G04 EAGLE Gerber RS-274X export*
G75*
%MOMM*%
%FSLAX34Y34*%
%LPD*%
%INBottom Copper*%
%IPPOS*%
%AMOC8*
5,1,8,0,0,1.08239X$1,22.5*%
G01*
%ADD10C,1.000000*%
%ADD11C,1.050000*%
%ADD12C,1.524000*%
%ADD13C,0.525000*%
%ADD14C,0.250000*%
%ADD15C,0.400000*%
%ADD16C,0.254000*%

G36*
X388388Y2005D02*
X388388Y2005D01*
X388434Y2003D01*
X388587Y2025D01*
X388741Y2041D01*
X388784Y2054D01*
X388829Y2061D01*
X388974Y2113D01*
X389122Y2159D01*
X389162Y2180D01*
X389205Y2196D01*
X389337Y2276D01*
X389473Y2350D01*
X389507Y2380D01*
X389546Y2403D01*
X389757Y2586D01*
X397414Y10243D01*
X397442Y10278D01*
X397476Y10309D01*
X397568Y10433D01*
X397667Y10552D01*
X397688Y10593D01*
X397715Y10629D01*
X397781Y10769D01*
X397853Y10906D01*
X397866Y10949D01*
X397885Y10990D01*
X397922Y11141D01*
X397965Y11289D01*
X397969Y11334D01*
X397980Y11378D01*
X397999Y11657D01*
X397999Y238343D01*
X397995Y238388D01*
X397997Y238434D01*
X397975Y238587D01*
X397959Y238741D01*
X397946Y238784D01*
X397939Y238829D01*
X397887Y238974D01*
X397841Y239122D01*
X397820Y239162D01*
X397804Y239205D01*
X397724Y239337D01*
X397650Y239473D01*
X397620Y239507D01*
X397597Y239546D01*
X397414Y239757D01*
X389757Y247414D01*
X389722Y247442D01*
X389691Y247476D01*
X389567Y247568D01*
X389448Y247667D01*
X389407Y247688D01*
X389371Y247715D01*
X389231Y247781D01*
X389094Y247853D01*
X389051Y247866D01*
X389010Y247885D01*
X388859Y247922D01*
X388711Y247965D01*
X388666Y247969D01*
X388622Y247980D01*
X388343Y247999D01*
X11657Y247999D01*
X11612Y247995D01*
X11566Y247997D01*
X11413Y247975D01*
X11259Y247959D01*
X11216Y247946D01*
X11171Y247939D01*
X11026Y247887D01*
X10878Y247841D01*
X10838Y247820D01*
X10795Y247804D01*
X10663Y247724D01*
X10527Y247650D01*
X10493Y247620D01*
X10454Y247597D01*
X10243Y247414D01*
X2586Y239757D01*
X2558Y239722D01*
X2524Y239691D01*
X2432Y239567D01*
X2333Y239448D01*
X2312Y239407D01*
X2285Y239371D01*
X2219Y239231D01*
X2147Y239094D01*
X2134Y239051D01*
X2115Y239010D01*
X2078Y238859D01*
X2035Y238711D01*
X2031Y238666D01*
X2020Y238622D01*
X2001Y238343D01*
X2001Y11657D01*
X2005Y11612D01*
X2003Y11566D01*
X2025Y11413D01*
X2041Y11259D01*
X2054Y11216D01*
X2061Y11171D01*
X2113Y11026D01*
X2159Y10878D01*
X2180Y10838D01*
X2196Y10795D01*
X2276Y10663D01*
X2350Y10527D01*
X2380Y10493D01*
X2403Y10454D01*
X2586Y10243D01*
X10243Y2586D01*
X10278Y2558D01*
X10309Y2524D01*
X10432Y2432D01*
X10552Y2333D01*
X10593Y2312D01*
X10629Y2285D01*
X10769Y2219D01*
X10906Y2147D01*
X10949Y2134D01*
X10990Y2115D01*
X11141Y2078D01*
X11289Y2035D01*
X11334Y2031D01*
X11378Y2020D01*
X11657Y2001D01*
X388343Y2001D01*
X388388Y2005D01*
G37*
%LPC*%
G36*
X84386Y26104D02*
X84386Y26104D01*
X82104Y28386D01*
X82104Y31614D01*
X82144Y31653D01*
X82172Y31688D01*
X82206Y31719D01*
X82298Y31842D01*
X82397Y31962D01*
X82418Y32003D01*
X82445Y32039D01*
X82511Y32179D01*
X82583Y32316D01*
X82596Y32359D01*
X82615Y32400D01*
X82652Y32551D01*
X82695Y32699D01*
X82699Y32744D01*
X82710Y32788D01*
X82729Y33067D01*
X82729Y46355D01*
X137645Y101271D01*
X188393Y101271D01*
X188408Y101272D01*
X188423Y101271D01*
X188607Y101292D01*
X188791Y101311D01*
X188805Y101315D01*
X188820Y101317D01*
X188996Y101374D01*
X189172Y101429D01*
X189186Y101436D01*
X189200Y101441D01*
X189360Y101531D01*
X189523Y101620D01*
X189534Y101630D01*
X189548Y101638D01*
X189687Y101759D01*
X189828Y101878D01*
X189837Y101890D01*
X189849Y101900D01*
X189962Y102046D01*
X190076Y102191D01*
X190083Y102204D01*
X190092Y102216D01*
X190174Y102382D01*
X190257Y102547D01*
X190261Y102561D01*
X190268Y102575D01*
X190315Y102754D01*
X190364Y102932D01*
X190365Y102947D01*
X190369Y102962D01*
X190379Y103145D01*
X190392Y103330D01*
X190390Y103345D01*
X190390Y103360D01*
X190364Y103542D01*
X190340Y103726D01*
X190335Y103741D01*
X190333Y103756D01*
X190270Y103929D01*
X190210Y104104D01*
X190202Y104117D01*
X190197Y104132D01*
X190101Y104290D01*
X190008Y104449D01*
X189998Y104460D01*
X189990Y104473D01*
X189807Y104684D01*
X188597Y105894D01*
X188562Y105922D01*
X188531Y105956D01*
X188407Y106049D01*
X188288Y106147D01*
X188247Y106168D01*
X188211Y106195D01*
X188071Y106261D01*
X187934Y106333D01*
X187891Y106346D01*
X187850Y106365D01*
X187699Y106402D01*
X187551Y106445D01*
X187506Y106449D01*
X187462Y106460D01*
X187183Y106479D01*
X122956Y106479D01*
X104541Y124894D01*
X104506Y124922D01*
X104476Y124956D01*
X104352Y125048D01*
X104232Y125147D01*
X104192Y125168D01*
X104156Y125195D01*
X104016Y125261D01*
X103879Y125333D01*
X103835Y125346D01*
X103794Y125365D01*
X103644Y125402D01*
X103496Y125445D01*
X103450Y125449D01*
X103406Y125460D01*
X103128Y125479D01*
X93817Y125479D01*
X93772Y125475D01*
X93726Y125477D01*
X93573Y125455D01*
X93419Y125439D01*
X93376Y125426D01*
X93331Y125419D01*
X93185Y125367D01*
X93038Y125321D01*
X92998Y125300D01*
X92955Y125284D01*
X92823Y125204D01*
X92687Y125130D01*
X92653Y125100D01*
X92614Y125077D01*
X92403Y124894D01*
X91614Y124104D01*
X88386Y124104D01*
X86104Y126386D01*
X86104Y129614D01*
X87577Y131086D01*
X87596Y131110D01*
X87619Y131130D01*
X87722Y131264D01*
X87830Y131396D01*
X87844Y131422D01*
X87862Y131446D01*
X87937Y131599D01*
X88016Y131749D01*
X88025Y131778D01*
X88038Y131805D01*
X88081Y131969D01*
X88128Y132132D01*
X88131Y132162D01*
X88139Y132192D01*
X88148Y132360D01*
X88162Y132530D01*
X88159Y132560D01*
X88160Y132590D01*
X88136Y132758D01*
X88116Y132927D01*
X88107Y132956D01*
X88103Y132986D01*
X88045Y133146D01*
X87993Y133307D01*
X87978Y133333D01*
X87967Y133362D01*
X87879Y133506D01*
X87796Y133654D01*
X87776Y133677D01*
X87760Y133703D01*
X87577Y133914D01*
X86104Y135386D01*
X86104Y138614D01*
X88386Y140896D01*
X91614Y140896D01*
X92403Y140106D01*
X92438Y140078D01*
X92469Y140044D01*
X92592Y139952D01*
X92712Y139853D01*
X92753Y139832D01*
X92789Y139805D01*
X92929Y139739D01*
X93066Y139667D01*
X93109Y139654D01*
X93150Y139635D01*
X93301Y139598D01*
X93449Y139555D01*
X93494Y139551D01*
X93538Y139540D01*
X93817Y139521D01*
X106044Y139521D01*
X128459Y117106D01*
X128494Y117078D01*
X128524Y117044D01*
X128648Y116952D01*
X128768Y116853D01*
X128808Y116832D01*
X128844Y116805D01*
X128984Y116739D01*
X129121Y116667D01*
X129165Y116654D01*
X129206Y116635D01*
X129356Y116598D01*
X129504Y116555D01*
X129550Y116551D01*
X129594Y116540D01*
X129872Y116521D01*
X174128Y116521D01*
X174173Y116525D01*
X174218Y116523D01*
X174371Y116545D01*
X174525Y116561D01*
X174568Y116574D01*
X174613Y116581D01*
X174759Y116633D01*
X174907Y116679D01*
X174947Y116700D01*
X174989Y116716D01*
X175121Y116796D01*
X175257Y116870D01*
X175292Y116900D01*
X175331Y116923D01*
X175541Y117106D01*
X179956Y121521D01*
X182183Y121521D01*
X182228Y121525D01*
X182274Y121523D01*
X182427Y121545D01*
X182581Y121561D01*
X182624Y121574D01*
X182669Y121581D01*
X182815Y121633D01*
X182962Y121679D01*
X183002Y121700D01*
X183045Y121716D01*
X183177Y121796D01*
X183313Y121870D01*
X183347Y121900D01*
X183386Y121923D01*
X183597Y122106D01*
X184386Y122896D01*
X187614Y122896D01*
X189896Y120614D01*
X189896Y117386D01*
X188818Y116309D01*
X188809Y116297D01*
X188797Y116287D01*
X188682Y116142D01*
X188565Y115999D01*
X188558Y115986D01*
X188549Y115974D01*
X188465Y115809D01*
X188379Y115646D01*
X188375Y115632D01*
X188368Y115618D01*
X188319Y115441D01*
X188267Y115263D01*
X188265Y115248D01*
X188261Y115233D01*
X188248Y115050D01*
X188233Y114865D01*
X188234Y114850D01*
X188233Y114835D01*
X188257Y114651D01*
X188279Y114468D01*
X188283Y114454D01*
X188285Y114439D01*
X188345Y114263D01*
X188402Y114088D01*
X188410Y114075D01*
X188415Y114061D01*
X188508Y113901D01*
X188599Y113741D01*
X188609Y113729D01*
X188617Y113716D01*
X188740Y113579D01*
X188861Y113439D01*
X188873Y113430D01*
X188883Y113419D01*
X189031Y113309D01*
X189178Y113196D01*
X189192Y113189D01*
X189204Y113180D01*
X189371Y113102D01*
X189537Y113020D01*
X189551Y113017D01*
X189565Y113010D01*
X189745Y112966D01*
X189923Y112920D01*
X189938Y112919D01*
X189953Y112915D01*
X190232Y112896D01*
X192614Y112896D01*
X194896Y110614D01*
X194896Y107386D01*
X192193Y104684D01*
X192183Y104672D01*
X192172Y104662D01*
X192058Y104518D01*
X191940Y104374D01*
X191933Y104361D01*
X191924Y104349D01*
X191840Y104185D01*
X191754Y104021D01*
X191750Y104007D01*
X191743Y103993D01*
X191694Y103816D01*
X191642Y103638D01*
X191640Y103623D01*
X191636Y103608D01*
X191623Y103425D01*
X191608Y103240D01*
X191609Y103225D01*
X191608Y103210D01*
X191632Y103026D01*
X191654Y102843D01*
X191658Y102829D01*
X191660Y102814D01*
X191720Y102638D01*
X191777Y102463D01*
X191785Y102450D01*
X191790Y102436D01*
X191883Y102277D01*
X191974Y102116D01*
X191984Y102104D01*
X191992Y102091D01*
X192115Y101954D01*
X192236Y101814D01*
X192248Y101805D01*
X192258Y101794D01*
X192406Y101684D01*
X192553Y101571D01*
X192567Y101564D01*
X192579Y101555D01*
X192745Y101477D01*
X192912Y101395D01*
X192926Y101392D01*
X192940Y101385D01*
X193120Y101341D01*
X193298Y101295D01*
X193313Y101294D01*
X193328Y101290D01*
X193607Y101271D01*
X212933Y101271D01*
X212978Y101275D01*
X213024Y101273D01*
X213177Y101295D01*
X213331Y101311D01*
X213374Y101324D01*
X213419Y101331D01*
X213565Y101383D01*
X213712Y101429D01*
X213752Y101450D01*
X213795Y101466D01*
X213927Y101546D01*
X214063Y101620D01*
X214097Y101650D01*
X214136Y101673D01*
X214347Y101856D01*
X214386Y101896D01*
X217614Y101896D01*
X217653Y101856D01*
X217688Y101828D01*
X217719Y101794D01*
X217842Y101702D01*
X217962Y101603D01*
X218003Y101582D01*
X218039Y101555D01*
X218179Y101489D01*
X218316Y101417D01*
X218359Y101404D01*
X218400Y101385D01*
X218551Y101348D01*
X218699Y101305D01*
X218744Y101301D01*
X218788Y101290D01*
X219067Y101271D01*
X227355Y101271D01*
X234769Y93856D01*
X234804Y93828D01*
X234835Y93794D01*
X234959Y93702D01*
X235078Y93603D01*
X235119Y93582D01*
X235155Y93555D01*
X235295Y93489D01*
X235432Y93417D01*
X235475Y93404D01*
X235516Y93385D01*
X235667Y93348D01*
X235815Y93305D01*
X235860Y93301D01*
X235904Y93290D01*
X236183Y93271D01*
X263933Y93271D01*
X263978Y93275D01*
X264024Y93273D01*
X264177Y93295D01*
X264331Y93311D01*
X264374Y93324D01*
X264419Y93331D01*
X264564Y93383D01*
X264712Y93429D01*
X264752Y93451D01*
X264795Y93466D01*
X264927Y93546D01*
X265063Y93620D01*
X265098Y93650D01*
X265136Y93673D01*
X265347Y93856D01*
X265386Y93896D01*
X268614Y93896D01*
X270896Y91614D01*
X270896Y88386D01*
X268614Y86104D01*
X265386Y86104D01*
X265347Y86144D01*
X265312Y86172D01*
X265282Y86206D01*
X265158Y86298D01*
X265038Y86396D01*
X264997Y86418D01*
X264961Y86445D01*
X264822Y86510D01*
X264684Y86583D01*
X264641Y86596D01*
X264600Y86615D01*
X264450Y86652D01*
X264301Y86695D01*
X264256Y86699D01*
X264212Y86710D01*
X263933Y86729D01*
X232645Y86729D01*
X225231Y94144D01*
X225196Y94172D01*
X225165Y94206D01*
X225041Y94298D01*
X224922Y94397D01*
X224881Y94418D01*
X224845Y94445D01*
X224705Y94511D01*
X224568Y94583D01*
X224525Y94596D01*
X224484Y94615D01*
X224333Y94652D01*
X224185Y94695D01*
X224140Y94699D01*
X224096Y94710D01*
X223817Y94729D01*
X219067Y94729D01*
X219022Y94725D01*
X218976Y94727D01*
X218823Y94705D01*
X218669Y94689D01*
X218626Y94676D01*
X218581Y94669D01*
X218435Y94617D01*
X218288Y94571D01*
X218248Y94550D01*
X218205Y94534D01*
X218073Y94454D01*
X217937Y94380D01*
X217903Y94350D01*
X217864Y94327D01*
X217653Y94144D01*
X217614Y94104D01*
X214386Y94104D01*
X214347Y94144D01*
X214312Y94172D01*
X214281Y94206D01*
X214158Y94298D01*
X214038Y94397D01*
X213997Y94418D01*
X213961Y94445D01*
X213821Y94511D01*
X213684Y94583D01*
X213641Y94596D01*
X213600Y94615D01*
X213449Y94652D01*
X213301Y94695D01*
X213256Y94699D01*
X213212Y94710D01*
X212933Y94729D01*
X141183Y94729D01*
X141138Y94725D01*
X141092Y94727D01*
X140939Y94705D01*
X140785Y94689D01*
X140742Y94676D01*
X140697Y94669D01*
X140552Y94617D01*
X140404Y94571D01*
X140364Y94550D01*
X140321Y94534D01*
X140189Y94454D01*
X140053Y94380D01*
X140019Y94350D01*
X139980Y94327D01*
X139769Y94144D01*
X89856Y44231D01*
X89828Y44196D01*
X89794Y44165D01*
X89702Y44041D01*
X89603Y43922D01*
X89582Y43881D01*
X89555Y43845D01*
X89489Y43705D01*
X89417Y43568D01*
X89404Y43525D01*
X89385Y43484D01*
X89348Y43333D01*
X89305Y43185D01*
X89301Y43140D01*
X89290Y43096D01*
X89271Y42817D01*
X89271Y33067D01*
X89275Y33022D01*
X89273Y32976D01*
X89295Y32823D01*
X89311Y32669D01*
X89324Y32626D01*
X89331Y32581D01*
X89383Y32435D01*
X89429Y32288D01*
X89450Y32248D01*
X89466Y32205D01*
X89546Y32073D01*
X89620Y31937D01*
X89650Y31903D01*
X89673Y31864D01*
X89856Y31653D01*
X89896Y31614D01*
X89896Y28386D01*
X87614Y26104D01*
X84386Y26104D01*
G37*
%LPD*%
%LPC*%
G36*
X213386Y61104D02*
X213386Y61104D01*
X211104Y63386D01*
X211104Y66614D01*
X213386Y68896D01*
X216614Y68896D01*
X216653Y68856D01*
X216688Y68828D01*
X216719Y68794D01*
X216842Y68702D01*
X216962Y68603D01*
X217003Y68582D01*
X217039Y68555D01*
X217179Y68489D01*
X217316Y68417D01*
X217359Y68404D01*
X217400Y68385D01*
X217551Y68348D01*
X217699Y68305D01*
X217744Y68301D01*
X217788Y68290D01*
X218067Y68271D01*
X277817Y68271D01*
X277862Y68275D01*
X277908Y68273D01*
X278061Y68295D01*
X278215Y68311D01*
X278258Y68324D01*
X278303Y68331D01*
X278448Y68383D01*
X278596Y68429D01*
X278636Y68450D01*
X278679Y68466D01*
X278811Y68546D01*
X278947Y68620D01*
X278981Y68650D01*
X279020Y68673D01*
X279231Y68856D01*
X281144Y70769D01*
X281172Y70804D01*
X281206Y70835D01*
X281298Y70959D01*
X281397Y71078D01*
X281418Y71119D01*
X281445Y71155D01*
X281511Y71295D01*
X281583Y71432D01*
X281596Y71475D01*
X281615Y71516D01*
X281652Y71667D01*
X281695Y71815D01*
X281699Y71860D01*
X281710Y71904D01*
X281729Y72183D01*
X281729Y137817D01*
X281725Y137862D01*
X281727Y137908D01*
X281705Y138061D01*
X281689Y138215D01*
X281676Y138258D01*
X281669Y138303D01*
X281617Y138448D01*
X281571Y138596D01*
X281550Y138636D01*
X281534Y138679D01*
X281454Y138811D01*
X281380Y138947D01*
X281350Y138981D01*
X281327Y139020D01*
X281144Y139231D01*
X269231Y151144D01*
X269196Y151172D01*
X269165Y151206D01*
X269041Y151298D01*
X268922Y151397D01*
X268881Y151418D01*
X268845Y151445D01*
X268705Y151511D01*
X268568Y151583D01*
X268525Y151596D01*
X268484Y151615D01*
X268333Y151652D01*
X268185Y151695D01*
X268140Y151699D01*
X268096Y151710D01*
X267817Y151729D01*
X258645Y151729D01*
X244856Y165519D01*
X244821Y165547D01*
X244790Y165581D01*
X244666Y165673D01*
X244547Y165772D01*
X244506Y165793D01*
X244470Y165820D01*
X244330Y165886D01*
X244193Y165958D01*
X244150Y165971D01*
X244109Y165990D01*
X243958Y166027D01*
X243810Y166070D01*
X243765Y166074D01*
X243721Y166085D01*
X243442Y166104D01*
X243386Y166104D01*
X241104Y168386D01*
X241104Y171614D01*
X243386Y173896D01*
X246614Y173896D01*
X248896Y171614D01*
X248896Y171558D01*
X248900Y171513D01*
X248898Y171467D01*
X248920Y171314D01*
X248936Y171160D01*
X248949Y171117D01*
X248956Y171072D01*
X249008Y170927D01*
X249054Y170779D01*
X249075Y170739D01*
X249091Y170696D01*
X249171Y170564D01*
X249245Y170428D01*
X249275Y170394D01*
X249298Y170355D01*
X249481Y170144D01*
X260769Y158856D01*
X260804Y158828D01*
X260835Y158794D01*
X260959Y158702D01*
X261078Y158603D01*
X261119Y158582D01*
X261155Y158555D01*
X261295Y158489D01*
X261432Y158417D01*
X261475Y158404D01*
X261516Y158385D01*
X261667Y158348D01*
X261815Y158305D01*
X261860Y158301D01*
X261904Y158290D01*
X262183Y158271D01*
X271355Y158271D01*
X288271Y141355D01*
X288271Y68645D01*
X281355Y61729D01*
X218067Y61729D01*
X218022Y61725D01*
X217976Y61727D01*
X217823Y61705D01*
X217669Y61689D01*
X217626Y61676D01*
X217581Y61669D01*
X217435Y61617D01*
X217288Y61571D01*
X217248Y61550D01*
X217205Y61534D01*
X217073Y61454D01*
X216937Y61380D01*
X216903Y61350D01*
X216864Y61327D01*
X216653Y61144D01*
X216614Y61104D01*
X213386Y61104D01*
G37*
%LPD*%
%LPC*%
G36*
X48386Y131104D02*
X48386Y131104D01*
X46104Y133386D01*
X46104Y136614D01*
X46874Y137383D01*
X46902Y137418D01*
X46936Y137449D01*
X47028Y137572D01*
X47127Y137692D01*
X47148Y137733D01*
X47175Y137769D01*
X47241Y137909D01*
X47313Y138046D01*
X47326Y138089D01*
X47345Y138130D01*
X47382Y138281D01*
X47425Y138429D01*
X47429Y138474D01*
X47440Y138518D01*
X47459Y138797D01*
X47459Y181203D01*
X47455Y181248D01*
X47457Y181294D01*
X47435Y181447D01*
X47419Y181601D01*
X47406Y181644D01*
X47399Y181689D01*
X47347Y181835D01*
X47301Y181982D01*
X47280Y182022D01*
X47264Y182065D01*
X47184Y182197D01*
X47110Y182333D01*
X47080Y182367D01*
X47057Y182406D01*
X46874Y182617D01*
X46104Y183386D01*
X46104Y186614D01*
X48386Y188896D01*
X51614Y188896D01*
X53896Y186614D01*
X53896Y183386D01*
X53126Y182617D01*
X53098Y182582D01*
X53064Y182551D01*
X52972Y182428D01*
X52873Y182308D01*
X52852Y182267D01*
X52825Y182231D01*
X52759Y182091D01*
X52687Y181954D01*
X52674Y181911D01*
X52655Y181870D01*
X52618Y181719D01*
X52575Y181571D01*
X52571Y181526D01*
X52560Y181482D01*
X52541Y181203D01*
X52541Y180035D01*
X52542Y180020D01*
X52541Y180005D01*
X52562Y179821D01*
X52581Y179638D01*
X52585Y179623D01*
X52587Y179608D01*
X52644Y179432D01*
X52699Y179256D01*
X52706Y179243D01*
X52711Y179228D01*
X52802Y179068D01*
X52890Y178906D01*
X52900Y178894D01*
X52908Y178881D01*
X53029Y178741D01*
X53148Y178600D01*
X53160Y178591D01*
X53170Y178579D01*
X53316Y178467D01*
X53461Y178352D01*
X53474Y178345D01*
X53486Y178336D01*
X53652Y178255D01*
X53817Y178171D01*
X53831Y178167D01*
X53845Y178160D01*
X54025Y178114D01*
X54202Y178065D01*
X54217Y178064D01*
X54232Y178060D01*
X54416Y178050D01*
X54600Y178037D01*
X54615Y178039D01*
X54630Y178038D01*
X54813Y178065D01*
X54996Y178089D01*
X55011Y178094D01*
X55026Y178096D01*
X55199Y178158D01*
X55374Y178218D01*
X55387Y178226D01*
X55402Y178231D01*
X55560Y178327D01*
X55719Y178420D01*
X55730Y178430D01*
X55743Y178438D01*
X55954Y178621D01*
X56584Y179251D01*
X57860Y180104D01*
X59277Y180691D01*
X60783Y180991D01*
X64801Y180991D01*
X64801Y173200D01*
X64804Y173170D01*
X64801Y173140D01*
X64824Y172972D01*
X64840Y172803D01*
X64849Y172774D01*
X64853Y172744D01*
X64908Y172584D01*
X64959Y172421D01*
X64973Y172395D01*
X64983Y172366D01*
X65069Y172220D01*
X65150Y172071D01*
X65170Y172048D01*
X65185Y172022D01*
X65298Y171895D01*
X65408Y171765D01*
X65432Y171746D01*
X65452Y171724D01*
X65588Y171622D01*
X65721Y171517D01*
X65748Y171503D01*
X65772Y171485D01*
X65926Y171413D01*
X66077Y171336D01*
X66106Y171328D01*
X66134Y171315D01*
X66299Y171275D01*
X66462Y171229D01*
X66492Y171227D01*
X66522Y171220D01*
X66800Y171201D01*
X79596Y171201D01*
X79541Y170927D01*
X78954Y169510D01*
X78101Y168234D01*
X77016Y167149D01*
X75740Y166296D01*
X74323Y165709D01*
X72817Y165409D01*
X67543Y165409D01*
X67528Y165408D01*
X67513Y165409D01*
X67328Y165388D01*
X67146Y165369D01*
X67131Y165365D01*
X67116Y165363D01*
X66940Y165306D01*
X66764Y165251D01*
X66751Y165244D01*
X66736Y165239D01*
X66576Y165149D01*
X66414Y165060D01*
X66402Y165050D01*
X66389Y165042D01*
X66249Y164921D01*
X66108Y164802D01*
X66099Y164790D01*
X66087Y164780D01*
X65975Y164634D01*
X65860Y164489D01*
X65853Y164476D01*
X65844Y164464D01*
X65763Y164298D01*
X65679Y164133D01*
X65675Y164118D01*
X65668Y164105D01*
X65622Y163926D01*
X65573Y163748D01*
X65571Y163733D01*
X65568Y163718D01*
X65558Y163534D01*
X65545Y163350D01*
X65547Y163335D01*
X65546Y163319D01*
X65572Y163137D01*
X65597Y162954D01*
X65601Y162939D01*
X65604Y162924D01*
X65667Y162749D01*
X65726Y162576D01*
X65734Y162563D01*
X65739Y162548D01*
X65835Y162390D01*
X65928Y162231D01*
X65938Y162220D01*
X65946Y162207D01*
X66129Y161996D01*
X66251Y161874D01*
X67051Y159944D01*
X67051Y157856D01*
X66251Y155926D01*
X64774Y154449D01*
X62844Y153649D01*
X60756Y153649D01*
X58826Y154449D01*
X57349Y155926D01*
X56549Y157856D01*
X56549Y159944D01*
X57349Y161874D01*
X58509Y163035D01*
X58523Y163052D01*
X58541Y163067D01*
X58650Y163208D01*
X58762Y163344D01*
X58773Y163364D01*
X58787Y163382D01*
X58866Y163541D01*
X58948Y163697D01*
X58955Y163719D01*
X58965Y163740D01*
X59011Y163910D01*
X59061Y164081D01*
X59063Y164103D01*
X59068Y164125D01*
X59079Y164301D01*
X59095Y164479D01*
X59092Y164501D01*
X59093Y164524D01*
X59069Y164699D01*
X59049Y164875D01*
X59042Y164897D01*
X59038Y164920D01*
X58980Y165087D01*
X58925Y165255D01*
X58914Y165275D01*
X58906Y165296D01*
X58816Y165448D01*
X58728Y165603D01*
X58713Y165620D01*
X58701Y165639D01*
X58582Y165771D01*
X58466Y165904D01*
X58448Y165918D01*
X58433Y165935D01*
X58290Y166040D01*
X58149Y166148D01*
X58129Y166158D01*
X58110Y166171D01*
X57861Y166296D01*
X57860Y166296D01*
X56584Y167149D01*
X55954Y167779D01*
X55942Y167788D01*
X55932Y167800D01*
X55787Y167914D01*
X55644Y168031D01*
X55631Y168038D01*
X55619Y168048D01*
X55454Y168132D01*
X55291Y168218D01*
X55277Y168222D01*
X55263Y168229D01*
X55086Y168278D01*
X54908Y168330D01*
X54893Y168331D01*
X54878Y168335D01*
X54695Y168348D01*
X54510Y168364D01*
X54495Y168362D01*
X54480Y168363D01*
X54296Y168339D01*
X54113Y168318D01*
X54099Y168313D01*
X54084Y168311D01*
X53909Y168251D01*
X53733Y168194D01*
X53720Y168187D01*
X53706Y168182D01*
X53547Y168088D01*
X53386Y167997D01*
X53374Y167987D01*
X53361Y167980D01*
X53224Y167857D01*
X53084Y167735D01*
X53075Y167723D01*
X53064Y167713D01*
X52954Y167566D01*
X52841Y167419D01*
X52834Y167405D01*
X52825Y167393D01*
X52747Y167226D01*
X52665Y167060D01*
X52662Y167045D01*
X52655Y167031D01*
X52611Y166852D01*
X52565Y166673D01*
X52564Y166658D01*
X52560Y166643D01*
X52541Y166365D01*
X52541Y138797D01*
X52545Y138752D01*
X52543Y138706D01*
X52565Y138553D01*
X52581Y138399D01*
X52594Y138356D01*
X52601Y138311D01*
X52653Y138165D01*
X52699Y138018D01*
X52720Y137978D01*
X52736Y137935D01*
X52816Y137803D01*
X52890Y137667D01*
X52920Y137633D01*
X52943Y137594D01*
X53126Y137383D01*
X53896Y136614D01*
X53896Y133386D01*
X51614Y131104D01*
X48386Y131104D01*
G37*
%LPD*%
%LPC*%
G36*
X350612Y179609D02*
X350612Y179609D01*
X347344Y180963D01*
X344843Y183464D01*
X343489Y186732D01*
X343489Y190268D01*
X344843Y193536D01*
X347344Y196037D01*
X350612Y197391D01*
X369388Y197391D01*
X372656Y196037D01*
X375157Y193536D01*
X376511Y190268D01*
X376511Y186732D01*
X375157Y183464D01*
X372656Y180963D01*
X369388Y179609D01*
X350612Y179609D01*
G37*
%LPD*%
%LPC*%
G36*
X350612Y154209D02*
X350612Y154209D01*
X347344Y155563D01*
X344843Y158064D01*
X343489Y161332D01*
X343489Y164868D01*
X344843Y168136D01*
X347344Y170637D01*
X350612Y171991D01*
X369388Y171991D01*
X372656Y170637D01*
X375157Y168136D01*
X376511Y164868D01*
X376511Y161332D01*
X375157Y158064D01*
X372656Y155563D01*
X369388Y154209D01*
X350612Y154209D01*
G37*
%LPD*%
%LPC*%
G36*
X350612Y128809D02*
X350612Y128809D01*
X347344Y130163D01*
X344843Y132664D01*
X343489Y135932D01*
X343489Y139468D01*
X344843Y142736D01*
X347344Y145237D01*
X350612Y146591D01*
X369388Y146591D01*
X372656Y145237D01*
X375157Y142736D01*
X376511Y139468D01*
X376511Y135932D01*
X375157Y132664D01*
X372656Y130163D01*
X369388Y128809D01*
X350612Y128809D01*
G37*
%LPD*%
%LPC*%
G36*
X350612Y103409D02*
X350612Y103409D01*
X347344Y104763D01*
X344843Y107264D01*
X343489Y110532D01*
X343489Y114068D01*
X344843Y117336D01*
X347344Y119837D01*
X350612Y121191D01*
X369388Y121191D01*
X372656Y119837D01*
X375157Y117336D01*
X376511Y114068D01*
X376511Y110532D01*
X375157Y107264D01*
X372656Y104763D01*
X369388Y103409D01*
X350612Y103409D01*
G37*
%LPD*%
%LPC*%
G36*
X350612Y78009D02*
X350612Y78009D01*
X347344Y79363D01*
X344843Y81864D01*
X343489Y85132D01*
X343489Y88668D01*
X344843Y91936D01*
X347344Y94437D01*
X350612Y95791D01*
X369388Y95791D01*
X372656Y94437D01*
X375157Y91936D01*
X376511Y88668D01*
X376511Y85132D01*
X375157Y81864D01*
X372656Y79363D01*
X369388Y78009D01*
X350612Y78009D01*
G37*
%LPD*%
%LPC*%
G36*
X350612Y52609D02*
X350612Y52609D01*
X347344Y53963D01*
X344843Y56464D01*
X343489Y59732D01*
X343489Y63268D01*
X344843Y66536D01*
X347344Y69037D01*
X350612Y70391D01*
X369388Y70391D01*
X372656Y69037D01*
X375157Y66536D01*
X376511Y63268D01*
X376511Y59732D01*
X375157Y56464D01*
X372656Y53963D01*
X369388Y52609D01*
X350612Y52609D01*
G37*
%LPD*%
%LPC*%
G36*
X350612Y27209D02*
X350612Y27209D01*
X347344Y28563D01*
X344843Y31064D01*
X343489Y34332D01*
X343489Y37868D01*
X344843Y41136D01*
X347344Y43637D01*
X350612Y44991D01*
X369388Y44991D01*
X372656Y43637D01*
X375157Y41136D01*
X376511Y37868D01*
X376511Y34332D01*
X375157Y31064D01*
X372656Y28563D01*
X369388Y27209D01*
X350612Y27209D01*
G37*
%LPD*%
%LPC*%
G36*
X258386Y41104D02*
X258386Y41104D01*
X256104Y43386D01*
X256104Y46614D01*
X258386Y48896D01*
X261614Y48896D01*
X262383Y48126D01*
X262418Y48098D01*
X262449Y48064D01*
X262572Y47972D01*
X262692Y47873D01*
X262733Y47852D01*
X262769Y47825D01*
X262909Y47759D01*
X263046Y47687D01*
X263089Y47674D01*
X263130Y47655D01*
X263281Y47618D01*
X263429Y47575D01*
X263474Y47571D01*
X263518Y47560D01*
X263797Y47541D01*
X283119Y47541D01*
X283165Y47545D01*
X283210Y47543D01*
X283363Y47565D01*
X283517Y47581D01*
X283560Y47594D01*
X283605Y47601D01*
X283751Y47653D01*
X283898Y47699D01*
X283938Y47720D01*
X283981Y47736D01*
X284113Y47816D01*
X284249Y47890D01*
X284284Y47920D01*
X284322Y47943D01*
X284533Y48126D01*
X296874Y60467D01*
X296902Y60502D01*
X296936Y60532D01*
X297028Y60656D01*
X297127Y60776D01*
X297148Y60816D01*
X297175Y60853D01*
X297241Y60993D01*
X297313Y61129D01*
X297326Y61173D01*
X297345Y61214D01*
X297382Y61364D01*
X297425Y61513D01*
X297429Y61558D01*
X297440Y61602D01*
X297459Y61881D01*
X297459Y81203D01*
X297455Y81248D01*
X297457Y81294D01*
X297435Y81447D01*
X297419Y81601D01*
X297406Y81644D01*
X297399Y81689D01*
X297347Y81835D01*
X297301Y81982D01*
X297280Y82022D01*
X297264Y82065D01*
X297184Y82197D01*
X297110Y82333D01*
X297080Y82367D01*
X297057Y82406D01*
X296874Y82617D01*
X296104Y83386D01*
X296104Y86614D01*
X298386Y88896D01*
X301614Y88896D01*
X303896Y86614D01*
X303896Y83386D01*
X303126Y82617D01*
X303098Y82582D01*
X303064Y82551D01*
X302972Y82428D01*
X302873Y82308D01*
X302852Y82267D01*
X302825Y82231D01*
X302759Y82091D01*
X302687Y81954D01*
X302674Y81911D01*
X302655Y81870D01*
X302618Y81719D01*
X302575Y81571D01*
X302571Y81526D01*
X302560Y81482D01*
X302541Y81203D01*
X302541Y58948D01*
X286052Y42459D01*
X263797Y42459D01*
X263752Y42455D01*
X263706Y42457D01*
X263553Y42435D01*
X263399Y42419D01*
X263356Y42406D01*
X263311Y42399D01*
X263165Y42347D01*
X263018Y42301D01*
X262978Y42280D01*
X262935Y42264D01*
X262803Y42184D01*
X262667Y42110D01*
X262633Y42080D01*
X262594Y42057D01*
X262383Y41874D01*
X261614Y41104D01*
X258386Y41104D01*
G37*
%LPD*%
%LPC*%
G36*
X66800Y88799D02*
X66800Y88799D01*
X54004Y88799D01*
X54059Y89073D01*
X54646Y90490D01*
X55499Y91766D01*
X56584Y92851D01*
X57860Y93704D01*
X57861Y93704D01*
X57881Y93715D01*
X57902Y93722D01*
X58057Y93810D01*
X58212Y93893D01*
X58230Y93908D01*
X58250Y93919D01*
X58384Y94036D01*
X58520Y94148D01*
X58534Y94166D01*
X58551Y94181D01*
X58659Y94322D01*
X58770Y94460D01*
X58781Y94480D01*
X58795Y94498D01*
X58873Y94657D01*
X58954Y94814D01*
X58960Y94836D01*
X58970Y94857D01*
X59015Y95027D01*
X59063Y95198D01*
X59065Y95221D01*
X59071Y95243D01*
X59080Y95419D01*
X59094Y95597D01*
X59091Y95619D01*
X59093Y95642D01*
X59067Y95816D01*
X59045Y95993D01*
X59038Y96015D01*
X59035Y96037D01*
X58975Y96203D01*
X58919Y96372D01*
X58907Y96392D01*
X58900Y96413D01*
X58808Y96564D01*
X58719Y96718D01*
X58704Y96735D01*
X58692Y96754D01*
X58509Y96965D01*
X57349Y98126D01*
X56549Y100056D01*
X56549Y102144D01*
X57349Y104074D01*
X58826Y105551D01*
X60756Y106351D01*
X62844Y106351D01*
X64774Y105551D01*
X66251Y104074D01*
X67051Y102144D01*
X67051Y100056D01*
X66251Y98126D01*
X66129Y98004D01*
X66120Y97992D01*
X66108Y97982D01*
X65993Y97837D01*
X65877Y97694D01*
X65870Y97681D01*
X65860Y97669D01*
X65776Y97503D01*
X65690Y97341D01*
X65686Y97327D01*
X65679Y97313D01*
X65629Y97134D01*
X65578Y96958D01*
X65577Y96943D01*
X65573Y96928D01*
X65560Y96744D01*
X65544Y96560D01*
X65546Y96545D01*
X65545Y96530D01*
X65569Y96347D01*
X65590Y96163D01*
X65595Y96149D01*
X65597Y96134D01*
X65656Y95959D01*
X65714Y95783D01*
X65721Y95770D01*
X65726Y95756D01*
X65820Y95596D01*
X65911Y95436D01*
X65921Y95424D01*
X65928Y95411D01*
X66052Y95274D01*
X66173Y95134D01*
X66185Y95125D01*
X66195Y95114D01*
X66343Y95003D01*
X66489Y94891D01*
X66503Y94884D01*
X66515Y94875D01*
X66682Y94797D01*
X66848Y94715D01*
X66863Y94712D01*
X66876Y94705D01*
X67056Y94661D01*
X67235Y94615D01*
X67250Y94614D01*
X67264Y94610D01*
X67543Y94591D01*
X72817Y94591D01*
X74323Y94291D01*
X75740Y93704D01*
X77016Y92851D01*
X78101Y91766D01*
X78954Y90490D01*
X79541Y89073D01*
X79596Y88799D01*
X66800Y88799D01*
X66800Y88799D01*
G37*
%LPD*%
%LPC*%
G36*
X308386Y41104D02*
X308386Y41104D01*
X306104Y43386D01*
X306104Y46614D01*
X308386Y48896D01*
X309503Y48896D01*
X309548Y48900D01*
X309593Y48898D01*
X309746Y48920D01*
X309900Y48936D01*
X309943Y48949D01*
X309988Y48956D01*
X310134Y49008D01*
X310282Y49054D01*
X310322Y49075D01*
X310364Y49091D01*
X310496Y49171D01*
X310632Y49245D01*
X310667Y49275D01*
X310706Y49298D01*
X310916Y49481D01*
X311894Y50459D01*
X311922Y50494D01*
X311956Y50524D01*
X312048Y50648D01*
X312147Y50768D01*
X312168Y50808D01*
X312195Y50844D01*
X312261Y50984D01*
X312333Y51121D01*
X312346Y51165D01*
X312365Y51206D01*
X312402Y51356D01*
X312445Y51504D01*
X312449Y51550D01*
X312460Y51594D01*
X312479Y51872D01*
X312479Y66183D01*
X312475Y66228D01*
X312477Y66274D01*
X312455Y66427D01*
X312439Y66581D01*
X312426Y66624D01*
X312419Y66669D01*
X312367Y66815D01*
X312321Y66962D01*
X312300Y67002D01*
X312284Y67045D01*
X312204Y67177D01*
X312130Y67313D01*
X312100Y67347D01*
X312077Y67386D01*
X311894Y67597D01*
X311104Y68386D01*
X311104Y71614D01*
X313386Y73896D01*
X316614Y73896D01*
X318896Y71614D01*
X318896Y68386D01*
X318106Y67597D01*
X318078Y67562D01*
X318044Y67531D01*
X317952Y67408D01*
X317853Y67288D01*
X317832Y67247D01*
X317805Y67211D01*
X317739Y67071D01*
X317667Y66934D01*
X317654Y66891D01*
X317635Y66850D01*
X317598Y66699D01*
X317555Y66551D01*
X317551Y66506D01*
X317540Y66462D01*
X317521Y66183D01*
X317521Y48956D01*
X314481Y45916D01*
X314453Y45881D01*
X314419Y45851D01*
X314327Y45727D01*
X314228Y45607D01*
X314207Y45567D01*
X314180Y45531D01*
X314114Y45391D01*
X314042Y45254D01*
X314029Y45210D01*
X314010Y45169D01*
X313973Y45019D01*
X313930Y44871D01*
X313926Y44825D01*
X313915Y44781D01*
X313896Y44503D01*
X313896Y43386D01*
X311614Y41104D01*
X308386Y41104D01*
G37*
%LPD*%
%LPC*%
G36*
X219406Y12499D02*
X219406Y12499D01*
X217384Y13337D01*
X215837Y14884D01*
X214999Y16906D01*
X214999Y19094D01*
X215837Y21116D01*
X217384Y22663D01*
X219406Y23501D01*
X221594Y23501D01*
X223616Y22663D01*
X225163Y21116D01*
X226001Y19094D01*
X226001Y16906D01*
X225163Y14884D01*
X223616Y13337D01*
X221594Y12499D01*
X219406Y12499D01*
G37*
%LPD*%
%LPC*%
G36*
X196406Y12499D02*
X196406Y12499D01*
X194384Y13337D01*
X192837Y14884D01*
X191999Y16906D01*
X191999Y19094D01*
X192837Y21116D01*
X194384Y22663D01*
X196406Y23501D01*
X198594Y23501D01*
X200616Y22663D01*
X202163Y21116D01*
X203001Y19094D01*
X203001Y16906D01*
X202163Y14884D01*
X200616Y13337D01*
X198594Y12499D01*
X196406Y12499D01*
G37*
%LPD*%
%LPC*%
G36*
X362539Y216439D02*
X362539Y216439D01*
X362539Y224061D01*
X368420Y224061D01*
X369999Y223811D01*
X371520Y223316D01*
X372945Y222590D01*
X374239Y221650D01*
X375370Y220519D01*
X376310Y219225D01*
X377036Y217800D01*
X377479Y216439D01*
X362539Y216439D01*
G37*
%LPD*%
%LPC*%
G36*
X342521Y216439D02*
X342521Y216439D01*
X342964Y217800D01*
X343690Y219225D01*
X344630Y220519D01*
X345761Y221650D01*
X347055Y222590D01*
X348480Y223316D01*
X350001Y223811D01*
X351580Y224061D01*
X357461Y224061D01*
X357461Y216439D01*
X342521Y216439D01*
G37*
%LPD*%
%LPC*%
G36*
X362539Y203739D02*
X362539Y203739D01*
X362539Y211361D01*
X377479Y211361D01*
X377036Y210000D01*
X376310Y208575D01*
X375370Y207281D01*
X374239Y206150D01*
X372945Y205210D01*
X371520Y204484D01*
X369999Y203989D01*
X368420Y203739D01*
X362539Y203739D01*
G37*
%LPD*%
%LPC*%
G36*
X351580Y203739D02*
X351580Y203739D01*
X350001Y203989D01*
X348480Y204484D01*
X347055Y205210D01*
X345761Y206150D01*
X344630Y207281D01*
X343690Y208575D01*
X342964Y210000D01*
X342521Y211361D01*
X357461Y211361D01*
X357461Y203739D01*
X351580Y203739D01*
G37*
%LPD*%
%LPC*%
G36*
X68799Y175199D02*
X68799Y175199D01*
X68799Y180991D01*
X72817Y180991D01*
X74323Y180691D01*
X75740Y180104D01*
X77016Y179251D01*
X78101Y178166D01*
X78954Y176890D01*
X79541Y175473D01*
X79596Y175199D01*
X68799Y175199D01*
G37*
%LPD*%
%LPC*%
G36*
X68799Y79009D02*
X68799Y79009D01*
X68799Y84801D01*
X79596Y84801D01*
X79541Y84527D01*
X78954Y83110D01*
X78101Y81834D01*
X77016Y80749D01*
X75740Y79896D01*
X74323Y79309D01*
X72817Y79009D01*
X68799Y79009D01*
G37*
%LPD*%
%LPC*%
G36*
X60783Y79009D02*
X60783Y79009D01*
X59277Y79309D01*
X57860Y79896D01*
X56584Y80749D01*
X55499Y81834D01*
X54646Y83110D01*
X54059Y84527D01*
X54004Y84801D01*
X64801Y84801D01*
X64801Y79009D01*
X60783Y79009D01*
G37*
%LPD*%
%LPC*%
G36*
X26999Y175199D02*
X26999Y175199D01*
X26999Y180741D01*
X30743Y180741D01*
X32200Y180451D01*
X33572Y179883D01*
X34807Y179057D01*
X35857Y178007D01*
X36683Y176772D01*
X37251Y175400D01*
X37291Y175199D01*
X26999Y175199D01*
G37*
%LPD*%
%LPC*%
G36*
X26999Y88799D02*
X26999Y88799D01*
X26999Y94341D01*
X30743Y94341D01*
X32200Y94051D01*
X33572Y93483D01*
X34807Y92657D01*
X35857Y91607D01*
X36683Y90372D01*
X37251Y89000D01*
X37291Y88799D01*
X26999Y88799D01*
G37*
%LPD*%
%LPC*%
G36*
X12709Y175199D02*
X12709Y175199D01*
X12749Y175400D01*
X13317Y176772D01*
X14143Y178007D01*
X15193Y179057D01*
X16428Y179883D01*
X17800Y180451D01*
X19257Y180741D01*
X23001Y180741D01*
X23001Y175199D01*
X12709Y175199D01*
G37*
%LPD*%
%LPC*%
G36*
X12709Y88799D02*
X12709Y88799D01*
X12749Y89000D01*
X13317Y90372D01*
X14143Y91607D01*
X15193Y92657D01*
X16428Y93483D01*
X17800Y94051D01*
X19257Y94341D01*
X23001Y94341D01*
X23001Y88799D01*
X12709Y88799D01*
G37*
%LPD*%
%LPC*%
G36*
X26999Y165659D02*
X26999Y165659D01*
X26999Y171201D01*
X37291Y171201D01*
X37251Y171000D01*
X36683Y169628D01*
X35857Y168393D01*
X34807Y167343D01*
X33572Y166517D01*
X32200Y165949D01*
X30743Y165659D01*
X26999Y165659D01*
G37*
%LPD*%
%LPC*%
G36*
X26999Y79259D02*
X26999Y79259D01*
X26999Y84801D01*
X37291Y84801D01*
X37251Y84600D01*
X36683Y83228D01*
X35857Y81993D01*
X34807Y80943D01*
X33572Y80117D01*
X32200Y79549D01*
X30743Y79259D01*
X26999Y79259D01*
G37*
%LPD*%
%LPC*%
G36*
X19257Y165659D02*
X19257Y165659D01*
X17800Y165949D01*
X16428Y166517D01*
X15193Y167343D01*
X14143Y168393D01*
X13317Y169628D01*
X12749Y171000D01*
X12709Y171201D01*
X23001Y171201D01*
X23001Y165659D01*
X19257Y165659D01*
G37*
%LPD*%
%LPC*%
G36*
X19257Y79259D02*
X19257Y79259D01*
X17800Y79549D01*
X16428Y80117D01*
X15193Y80943D01*
X14143Y81993D01*
X13317Y83228D01*
X12749Y84600D01*
X12709Y84801D01*
X23001Y84801D01*
X23001Y79259D01*
X19257Y79259D01*
G37*
%LPD*%
D10*
X20000Y173200D02*
X30000Y173200D01*
X30000Y86800D02*
X20000Y86800D01*
D11*
X61550Y173200D02*
X72050Y173200D01*
X72050Y86800D02*
X61550Y86800D01*
D12*
X352380Y213900D02*
X367620Y213900D01*
X367620Y188500D02*
X352380Y188500D01*
X352380Y163100D02*
X367620Y163100D01*
X367620Y137700D02*
X352380Y137700D01*
X352380Y112300D02*
X367620Y112300D01*
X367620Y86900D02*
X352380Y86900D01*
X352380Y61500D02*
X367620Y61500D01*
X367620Y36100D02*
X352380Y36100D01*
D13*
X270000Y136000D03*
X130000Y135000D03*
X175000Y30000D03*
X115000Y170000D03*
X135000Y195000D03*
X275000Y6000D03*
X220000Y196000D03*
X240000Y196000D03*
X190000Y211000D03*
X220000Y166000D03*
X265000Y226000D03*
X186000Y119000D03*
D14*
X181000Y119000D01*
X176000Y114000D01*
X128000Y114000D01*
X105000Y137000D02*
X90000Y137000D01*
X105000Y137000D02*
X128000Y114000D01*
D13*
X90000Y137000D03*
X191000Y109000D03*
X90000Y128000D03*
D14*
X105000Y128000D02*
X124000Y109000D01*
X105000Y128000D02*
X90000Y128000D01*
X124000Y109000D02*
X191000Y109000D01*
D13*
X245000Y170000D03*
D15*
X260000Y155000D01*
X270000Y155000D01*
X285000Y140000D01*
X280000Y65000D02*
X215000Y65000D01*
D13*
X215000Y65000D03*
D15*
X285000Y70000D02*
X285000Y140000D01*
X285000Y70000D02*
X280000Y65000D01*
D13*
X310000Y45000D03*
D14*
X315000Y50000D02*
X315000Y70000D01*
X315000Y50000D02*
X310000Y45000D01*
D13*
X315000Y70000D03*
X86000Y30000D03*
X216000Y98000D03*
D15*
X86000Y45000D02*
X86000Y30000D01*
X86000Y45000D02*
X139000Y98000D01*
X216000Y98000D01*
D13*
X267000Y90000D03*
D15*
X234000Y90000D01*
X226000Y98000D01*
X216000Y98000D01*
D13*
X260000Y45000D03*
D16*
X285000Y45000D01*
X300000Y60000D01*
X300000Y85000D01*
D13*
X300000Y85000D03*
X50000Y135000D03*
D16*
X50000Y185000D01*
D13*
X50000Y185000D03*
M02*
