G04 EAGLE Gerber RS-274X export*
G75*
%MOMM*%
%FSLAX34Y34*%
%LPD*%
%INSilkscreen Bottom*%
%IPPOS*%
%AMOC8*
5,1,8,0,0,1.08239X$1,22.5*%
G01*
%ADD10C,0.254000*%
%ADD11C,0.152400*%
%ADD12C,0.076200*%
%ADD13C,0.101600*%
%ADD14R,2.500000X2.500000*%


D10*
X238730Y221430D02*
X238730Y214092D01*
X238728Y213986D01*
X238722Y213881D01*
X238712Y213776D01*
X238698Y213671D01*
X238681Y213567D01*
X238659Y213464D01*
X238634Y213362D01*
X238605Y213260D01*
X238572Y213160D01*
X238535Y213061D01*
X238495Y212964D01*
X238451Y212868D01*
X238403Y212773D01*
X238352Y212681D01*
X238297Y212591D01*
X238240Y212502D01*
X238179Y212416D01*
X238114Y212333D01*
X238047Y212251D01*
X237977Y212173D01*
X237903Y212097D01*
X237827Y212023D01*
X237749Y211953D01*
X237667Y211886D01*
X237584Y211821D01*
X237498Y211760D01*
X237409Y211703D01*
X237319Y211648D01*
X237227Y211597D01*
X237132Y211549D01*
X237036Y211505D01*
X236939Y211465D01*
X236840Y211428D01*
X236740Y211395D01*
X236638Y211366D01*
X236536Y211341D01*
X236433Y211319D01*
X236329Y211302D01*
X236224Y211288D01*
X236119Y211278D01*
X236014Y211272D01*
X235908Y211270D01*
X235802Y211272D01*
X235697Y211278D01*
X235592Y211288D01*
X235487Y211302D01*
X235383Y211319D01*
X235280Y211341D01*
X235178Y211366D01*
X235076Y211395D01*
X234976Y211428D01*
X234877Y211465D01*
X234780Y211505D01*
X234684Y211549D01*
X234589Y211597D01*
X234497Y211648D01*
X234407Y211703D01*
X234318Y211760D01*
X234232Y211821D01*
X234149Y211886D01*
X234067Y211953D01*
X233989Y212023D01*
X233913Y212097D01*
X233839Y212173D01*
X233769Y212251D01*
X233702Y212333D01*
X233637Y212416D01*
X233576Y212502D01*
X233519Y212591D01*
X233464Y212681D01*
X233413Y212773D01*
X233365Y212868D01*
X233321Y212964D01*
X233281Y213061D01*
X233244Y213160D01*
X233211Y213260D01*
X233182Y213362D01*
X233157Y213464D01*
X233135Y213567D01*
X233118Y213671D01*
X233104Y213776D01*
X233094Y213881D01*
X233088Y213986D01*
X233086Y214092D01*
X233086Y221430D01*
X223913Y211270D02*
X223820Y211272D01*
X223727Y211278D01*
X223634Y211287D01*
X223541Y211301D01*
X223450Y211318D01*
X223359Y211339D01*
X223269Y211364D01*
X223180Y211392D01*
X223092Y211424D01*
X223006Y211460D01*
X222921Y211499D01*
X222838Y211542D01*
X222757Y211588D01*
X222678Y211638D01*
X222601Y211690D01*
X222526Y211746D01*
X222454Y211805D01*
X222384Y211867D01*
X222316Y211931D01*
X222252Y211999D01*
X222190Y212069D01*
X222131Y212141D01*
X222075Y212216D01*
X222023Y212293D01*
X221973Y212372D01*
X221927Y212453D01*
X221884Y212536D01*
X221845Y212621D01*
X221809Y212707D01*
X221777Y212795D01*
X221749Y212884D01*
X221724Y212974D01*
X221703Y213065D01*
X221686Y213156D01*
X221672Y213249D01*
X221663Y213342D01*
X221657Y213435D01*
X221655Y213528D01*
X223913Y211270D02*
X224048Y211272D01*
X224182Y211278D01*
X224316Y211287D01*
X224450Y211300D01*
X224583Y211317D01*
X224716Y211338D01*
X224849Y211363D01*
X224980Y211391D01*
X225111Y211423D01*
X225240Y211458D01*
X225369Y211498D01*
X225497Y211541D01*
X225623Y211587D01*
X225748Y211637D01*
X225871Y211690D01*
X225993Y211747D01*
X226113Y211808D01*
X226232Y211871D01*
X226348Y211938D01*
X226463Y212009D01*
X226575Y212082D01*
X226686Y212159D01*
X226794Y212239D01*
X226900Y212321D01*
X227004Y212407D01*
X227105Y212496D01*
X227204Y212587D01*
X227300Y212681D01*
X227018Y219172D02*
X227016Y219265D01*
X227010Y219358D01*
X227001Y219451D01*
X226987Y219544D01*
X226970Y219635D01*
X226949Y219726D01*
X226924Y219816D01*
X226896Y219905D01*
X226864Y219993D01*
X226828Y220079D01*
X226789Y220164D01*
X226746Y220247D01*
X226700Y220328D01*
X226650Y220407D01*
X226598Y220484D01*
X226542Y220559D01*
X226483Y220631D01*
X226421Y220701D01*
X226357Y220769D01*
X226289Y220833D01*
X226219Y220895D01*
X226147Y220954D01*
X226072Y221010D01*
X225995Y221062D01*
X225916Y221112D01*
X225835Y221158D01*
X225752Y221201D01*
X225667Y221240D01*
X225581Y221276D01*
X225493Y221308D01*
X225404Y221336D01*
X225314Y221361D01*
X225223Y221382D01*
X225132Y221399D01*
X225039Y221413D01*
X224946Y221422D01*
X224853Y221428D01*
X224760Y221430D01*
X224630Y221428D01*
X224501Y221422D01*
X224371Y221412D01*
X224242Y221398D01*
X224114Y221380D01*
X223986Y221359D01*
X223859Y221333D01*
X223733Y221303D01*
X223607Y221270D01*
X223483Y221233D01*
X223360Y221192D01*
X223238Y221147D01*
X223118Y221099D01*
X222999Y221046D01*
X222882Y220991D01*
X222767Y220931D01*
X222653Y220868D01*
X222542Y220802D01*
X222432Y220733D01*
X222325Y220660D01*
X222220Y220583D01*
X225889Y217197D02*
X225970Y217247D01*
X226049Y217300D01*
X226126Y217356D01*
X226200Y217416D01*
X226271Y217479D01*
X226340Y217545D01*
X226407Y217613D01*
X226470Y217684D01*
X226530Y217758D01*
X226587Y217834D01*
X226641Y217913D01*
X226692Y217993D01*
X226739Y218076D01*
X226783Y218161D01*
X226823Y218247D01*
X226860Y218335D01*
X226893Y218424D01*
X226922Y218515D01*
X226947Y218607D01*
X226969Y218699D01*
X226986Y218793D01*
X227000Y218887D01*
X227010Y218982D01*
X227016Y219077D01*
X227018Y219172D01*
X222785Y215504D02*
X222704Y215453D01*
X222625Y215400D01*
X222548Y215344D01*
X222474Y215284D01*
X222403Y215221D01*
X222334Y215155D01*
X222267Y215087D01*
X222204Y215016D01*
X222144Y214942D01*
X222087Y214866D01*
X222033Y214787D01*
X221982Y214707D01*
X221935Y214624D01*
X221891Y214540D01*
X221851Y214453D01*
X221814Y214365D01*
X221781Y214276D01*
X221752Y214185D01*
X221727Y214094D01*
X221705Y214001D01*
X221688Y213907D01*
X221674Y213813D01*
X221664Y213718D01*
X221658Y213623D01*
X221656Y213528D01*
X222784Y215503D02*
X225889Y217197D01*
X215574Y216914D02*
X212751Y216914D01*
X212645Y216912D01*
X212540Y216906D01*
X212435Y216896D01*
X212330Y216882D01*
X212226Y216865D01*
X212123Y216843D01*
X212021Y216818D01*
X211919Y216789D01*
X211819Y216756D01*
X211720Y216719D01*
X211623Y216679D01*
X211527Y216635D01*
X211432Y216587D01*
X211340Y216536D01*
X211250Y216481D01*
X211161Y216424D01*
X211075Y216363D01*
X210992Y216298D01*
X210910Y216231D01*
X210832Y216161D01*
X210756Y216087D01*
X210682Y216011D01*
X210612Y215933D01*
X210545Y215851D01*
X210480Y215768D01*
X210419Y215682D01*
X210362Y215593D01*
X210307Y215503D01*
X210256Y215411D01*
X210208Y215316D01*
X210164Y215220D01*
X210124Y215123D01*
X210087Y215024D01*
X210054Y214924D01*
X210025Y214822D01*
X210000Y214720D01*
X209978Y214617D01*
X209961Y214513D01*
X209947Y214408D01*
X209937Y214303D01*
X209931Y214198D01*
X209929Y214092D01*
X209931Y213986D01*
X209937Y213881D01*
X209947Y213776D01*
X209961Y213671D01*
X209978Y213567D01*
X210000Y213464D01*
X210025Y213362D01*
X210054Y213260D01*
X210087Y213160D01*
X210124Y213061D01*
X210164Y212964D01*
X210208Y212868D01*
X210256Y212773D01*
X210307Y212681D01*
X210362Y212591D01*
X210419Y212502D01*
X210480Y212416D01*
X210545Y212333D01*
X210612Y212251D01*
X210682Y212173D01*
X210756Y212097D01*
X210832Y212023D01*
X210910Y211953D01*
X210992Y211886D01*
X211075Y211821D01*
X211161Y211760D01*
X211250Y211703D01*
X211340Y211648D01*
X211432Y211597D01*
X211527Y211549D01*
X211623Y211505D01*
X211720Y211465D01*
X211819Y211428D01*
X211919Y211395D01*
X212021Y211366D01*
X212123Y211341D01*
X212226Y211319D01*
X212330Y211302D01*
X212435Y211288D01*
X212540Y211278D01*
X212645Y211272D01*
X212751Y211270D01*
X215574Y211270D01*
X215574Y221430D01*
X212751Y221430D01*
X212658Y221428D01*
X212565Y221422D01*
X212472Y221413D01*
X212379Y221399D01*
X212288Y221382D01*
X212197Y221361D01*
X212107Y221336D01*
X212018Y221308D01*
X211930Y221276D01*
X211844Y221240D01*
X211759Y221201D01*
X211676Y221158D01*
X211595Y221112D01*
X211516Y221062D01*
X211439Y221010D01*
X211364Y220954D01*
X211292Y220895D01*
X211222Y220833D01*
X211154Y220769D01*
X211090Y220701D01*
X211028Y220631D01*
X210969Y220559D01*
X210913Y220484D01*
X210861Y220407D01*
X210811Y220328D01*
X210765Y220247D01*
X210722Y220164D01*
X210683Y220079D01*
X210647Y219993D01*
X210615Y219905D01*
X210587Y219816D01*
X210562Y219726D01*
X210541Y219635D01*
X210524Y219544D01*
X210510Y219451D01*
X210501Y219358D01*
X210495Y219265D01*
X210493Y219172D01*
X210495Y219079D01*
X210501Y218986D01*
X210510Y218893D01*
X210524Y218800D01*
X210541Y218709D01*
X210562Y218618D01*
X210587Y218528D01*
X210615Y218439D01*
X210647Y218351D01*
X210683Y218265D01*
X210722Y218180D01*
X210765Y218097D01*
X210811Y218016D01*
X210861Y217937D01*
X210913Y217860D01*
X210969Y217785D01*
X211028Y217713D01*
X211090Y217643D01*
X211154Y217575D01*
X211222Y217511D01*
X211292Y217449D01*
X211364Y217390D01*
X211439Y217334D01*
X211516Y217282D01*
X211595Y217232D01*
X211676Y217186D01*
X211759Y217143D01*
X211844Y217104D01*
X211930Y217068D01*
X212018Y217036D01*
X212107Y217008D01*
X212197Y216983D01*
X212288Y216962D01*
X212379Y216945D01*
X212472Y216931D01*
X212565Y216922D01*
X212658Y216916D01*
X212751Y216914D01*
X204623Y215221D02*
X197850Y215221D01*
X191486Y214092D02*
X191486Y221430D01*
X191486Y214092D02*
X191484Y213986D01*
X191478Y213881D01*
X191468Y213776D01*
X191454Y213671D01*
X191437Y213567D01*
X191415Y213464D01*
X191390Y213362D01*
X191361Y213260D01*
X191328Y213160D01*
X191291Y213061D01*
X191251Y212964D01*
X191207Y212868D01*
X191159Y212773D01*
X191108Y212681D01*
X191053Y212591D01*
X190996Y212502D01*
X190935Y212416D01*
X190870Y212333D01*
X190803Y212251D01*
X190733Y212173D01*
X190659Y212097D01*
X190583Y212023D01*
X190505Y211953D01*
X190423Y211886D01*
X190340Y211821D01*
X190254Y211760D01*
X190165Y211703D01*
X190075Y211648D01*
X189983Y211597D01*
X189888Y211549D01*
X189792Y211505D01*
X189695Y211465D01*
X189596Y211428D01*
X189496Y211395D01*
X189394Y211366D01*
X189292Y211341D01*
X189189Y211319D01*
X189085Y211302D01*
X188980Y211288D01*
X188875Y211278D01*
X188770Y211272D01*
X188664Y211270D01*
X188558Y211272D01*
X188453Y211278D01*
X188348Y211288D01*
X188243Y211302D01*
X188139Y211319D01*
X188036Y211341D01*
X187934Y211366D01*
X187832Y211395D01*
X187732Y211428D01*
X187633Y211465D01*
X187536Y211505D01*
X187440Y211549D01*
X187345Y211597D01*
X187253Y211648D01*
X187163Y211703D01*
X187074Y211760D01*
X186988Y211821D01*
X186905Y211886D01*
X186823Y211953D01*
X186745Y212023D01*
X186669Y212097D01*
X186595Y212173D01*
X186525Y212251D01*
X186458Y212333D01*
X186393Y212416D01*
X186332Y212502D01*
X186275Y212591D01*
X186220Y212681D01*
X186169Y212773D01*
X186121Y212868D01*
X186077Y212964D01*
X186037Y213061D01*
X186000Y213160D01*
X185967Y213260D01*
X185938Y213362D01*
X185913Y213464D01*
X185891Y213567D01*
X185874Y213671D01*
X185860Y213776D01*
X185850Y213881D01*
X185844Y213986D01*
X185842Y214092D01*
X185842Y221430D01*
X176853Y221430D02*
X180239Y211270D01*
X173466Y211270D02*
X176853Y221430D01*
X174313Y213810D02*
X179393Y213810D01*
X167735Y211270D02*
X167735Y221430D01*
X164913Y221430D01*
X164807Y221428D01*
X164702Y221422D01*
X164597Y221412D01*
X164492Y221398D01*
X164388Y221381D01*
X164285Y221359D01*
X164183Y221334D01*
X164081Y221305D01*
X163981Y221272D01*
X163882Y221235D01*
X163785Y221195D01*
X163689Y221151D01*
X163594Y221103D01*
X163502Y221052D01*
X163412Y220997D01*
X163323Y220940D01*
X163237Y220879D01*
X163154Y220814D01*
X163072Y220747D01*
X162994Y220677D01*
X162918Y220603D01*
X162844Y220527D01*
X162774Y220449D01*
X162707Y220367D01*
X162642Y220284D01*
X162581Y220198D01*
X162524Y220109D01*
X162469Y220019D01*
X162418Y219927D01*
X162370Y219832D01*
X162326Y219736D01*
X162286Y219639D01*
X162249Y219540D01*
X162216Y219440D01*
X162187Y219338D01*
X162162Y219236D01*
X162140Y219133D01*
X162123Y219029D01*
X162109Y218924D01*
X162099Y218819D01*
X162093Y218714D01*
X162091Y218608D01*
X162093Y218502D01*
X162099Y218397D01*
X162109Y218292D01*
X162123Y218187D01*
X162140Y218083D01*
X162162Y217980D01*
X162187Y217878D01*
X162216Y217776D01*
X162249Y217676D01*
X162286Y217577D01*
X162326Y217480D01*
X162370Y217384D01*
X162418Y217289D01*
X162469Y217197D01*
X162524Y217107D01*
X162581Y217018D01*
X162642Y216932D01*
X162707Y216849D01*
X162774Y216767D01*
X162844Y216689D01*
X162918Y216613D01*
X162994Y216539D01*
X163072Y216469D01*
X163154Y216402D01*
X163237Y216337D01*
X163323Y216276D01*
X163412Y216219D01*
X163502Y216164D01*
X163594Y216113D01*
X163689Y216065D01*
X163785Y216021D01*
X163882Y215981D01*
X163981Y215944D01*
X164081Y215911D01*
X164183Y215882D01*
X164285Y215857D01*
X164388Y215835D01*
X164492Y215818D01*
X164597Y215804D01*
X164702Y215794D01*
X164807Y215788D01*
X164913Y215786D01*
X167735Y215786D01*
X164349Y215786D02*
X162091Y211270D01*
X154374Y211270D02*
X154374Y221430D01*
X157196Y221430D02*
X151552Y221430D01*
D11*
X319440Y215560D02*
X320880Y215560D01*
X319440Y215560D02*
X319440Y210762D01*
X322319Y210762D01*
X322405Y210764D01*
X322491Y210770D01*
X322577Y210779D01*
X322662Y210793D01*
X322746Y210810D01*
X322830Y210831D01*
X322912Y210856D01*
X322993Y210884D01*
X323073Y210916D01*
X323152Y210952D01*
X323228Y210991D01*
X323303Y211034D01*
X323376Y211079D01*
X323447Y211129D01*
X323515Y211181D01*
X323582Y211236D01*
X323645Y211294D01*
X323706Y211355D01*
X323764Y211418D01*
X323819Y211485D01*
X323872Y211553D01*
X323921Y211624D01*
X323966Y211697D01*
X324009Y211772D01*
X324048Y211848D01*
X324084Y211927D01*
X324116Y212007D01*
X324144Y212088D01*
X324169Y212171D01*
X324190Y212254D01*
X324207Y212338D01*
X324221Y212423D01*
X324230Y212509D01*
X324236Y212595D01*
X324238Y212681D01*
X324238Y217479D01*
X324236Y217565D01*
X324230Y217651D01*
X324221Y217737D01*
X324207Y217822D01*
X324190Y217906D01*
X324169Y217990D01*
X324144Y218072D01*
X324116Y218153D01*
X324084Y218233D01*
X324048Y218312D01*
X324009Y218388D01*
X323966Y218463D01*
X323921Y218536D01*
X323872Y218607D01*
X323819Y218675D01*
X323764Y218742D01*
X323706Y218805D01*
X323645Y218866D01*
X323582Y218924D01*
X323516Y218979D01*
X323447Y219031D01*
X323376Y219081D01*
X323303Y219126D01*
X323228Y219169D01*
X323152Y219208D01*
X323073Y219244D01*
X322993Y219276D01*
X322912Y219304D01*
X322830Y219329D01*
X322746Y219350D01*
X322662Y219367D01*
X322577Y219381D01*
X322491Y219390D01*
X322405Y219396D01*
X322319Y219398D01*
X319440Y219398D01*
X314484Y219398D02*
X314484Y210762D01*
X309687Y210762D02*
X314484Y219398D01*
X309687Y219398D02*
X309687Y210762D01*
X304731Y210762D02*
X304731Y219398D01*
X302332Y219398D01*
X302235Y219396D01*
X302139Y219390D01*
X302043Y219381D01*
X301947Y219367D01*
X301852Y219350D01*
X301758Y219328D01*
X301665Y219303D01*
X301572Y219275D01*
X301481Y219242D01*
X301392Y219206D01*
X301304Y219166D01*
X301217Y219123D01*
X301133Y219077D01*
X301050Y219027D01*
X300969Y218973D01*
X300891Y218917D01*
X300815Y218857D01*
X300741Y218795D01*
X300670Y218729D01*
X300602Y218661D01*
X300536Y218590D01*
X300474Y218516D01*
X300414Y218440D01*
X300358Y218362D01*
X300304Y218281D01*
X300254Y218199D01*
X300208Y218114D01*
X300165Y218027D01*
X300125Y217939D01*
X300089Y217850D01*
X300056Y217759D01*
X300028Y217666D01*
X300003Y217573D01*
X299981Y217479D01*
X299964Y217384D01*
X299950Y217288D01*
X299941Y217192D01*
X299935Y217096D01*
X299933Y216999D01*
X299933Y213161D01*
X299935Y213064D01*
X299941Y212968D01*
X299950Y212872D01*
X299964Y212776D01*
X299981Y212681D01*
X300003Y212587D01*
X300028Y212494D01*
X300056Y212401D01*
X300089Y212310D01*
X300125Y212221D01*
X300165Y212133D01*
X300208Y212046D01*
X300254Y211962D01*
X300304Y211879D01*
X300358Y211798D01*
X300414Y211720D01*
X300474Y211644D01*
X300536Y211570D01*
X300602Y211499D01*
X300670Y211431D01*
X300741Y211365D01*
X300815Y211303D01*
X300891Y211243D01*
X300969Y211187D01*
X301050Y211133D01*
X301133Y211083D01*
X301217Y211037D01*
X301304Y210994D01*
X301392Y210954D01*
X301481Y210918D01*
X301572Y210885D01*
X301665Y210857D01*
X301758Y210832D01*
X301852Y210810D01*
X301947Y210793D01*
X302043Y210779D01*
X302139Y210770D01*
X302235Y210764D01*
X302332Y210762D01*
X304731Y210762D01*
D12*
X323575Y169779D02*
X323575Y160381D01*
X324619Y160381D02*
X322531Y160381D01*
X322531Y169779D02*
X324619Y169779D01*
X318870Y167168D02*
X318870Y162992D01*
X318871Y167168D02*
X318869Y167269D01*
X318863Y167370D01*
X318853Y167471D01*
X318840Y167571D01*
X318822Y167671D01*
X318801Y167770D01*
X318775Y167868D01*
X318746Y167965D01*
X318714Y168061D01*
X318677Y168155D01*
X318637Y168248D01*
X318593Y168340D01*
X318546Y168429D01*
X318495Y168517D01*
X318441Y168603D01*
X318384Y168686D01*
X318324Y168768D01*
X318260Y168846D01*
X318194Y168923D01*
X318124Y168996D01*
X318052Y169067D01*
X317977Y169135D01*
X317899Y169200D01*
X317819Y169262D01*
X317737Y169321D01*
X317652Y169377D01*
X317566Y169429D01*
X317477Y169478D01*
X317386Y169524D01*
X317294Y169565D01*
X317200Y169604D01*
X317105Y169638D01*
X317009Y169669D01*
X316911Y169696D01*
X316813Y169720D01*
X316713Y169739D01*
X316613Y169755D01*
X316513Y169767D01*
X316412Y169775D01*
X316311Y169779D01*
X316209Y169779D01*
X316108Y169775D01*
X316007Y169767D01*
X315907Y169755D01*
X315807Y169739D01*
X315707Y169720D01*
X315609Y169696D01*
X315511Y169669D01*
X315415Y169638D01*
X315320Y169604D01*
X315226Y169565D01*
X315134Y169524D01*
X315043Y169478D01*
X314955Y169429D01*
X314868Y169377D01*
X314783Y169321D01*
X314701Y169262D01*
X314621Y169200D01*
X314543Y169135D01*
X314468Y169067D01*
X314396Y168996D01*
X314326Y168923D01*
X314260Y168846D01*
X314196Y168768D01*
X314136Y168686D01*
X314079Y168603D01*
X314025Y168517D01*
X313974Y168429D01*
X313927Y168340D01*
X313883Y168248D01*
X313843Y168155D01*
X313806Y168061D01*
X313774Y167965D01*
X313745Y167868D01*
X313719Y167770D01*
X313698Y167671D01*
X313680Y167571D01*
X313667Y167471D01*
X313657Y167370D01*
X313651Y167269D01*
X313649Y167168D01*
X313649Y162992D01*
X313651Y162891D01*
X313657Y162790D01*
X313667Y162689D01*
X313680Y162589D01*
X313698Y162489D01*
X313719Y162390D01*
X313745Y162292D01*
X313774Y162195D01*
X313806Y162099D01*
X313843Y162005D01*
X313883Y161912D01*
X313927Y161820D01*
X313974Y161731D01*
X314025Y161643D01*
X314079Y161557D01*
X314136Y161474D01*
X314196Y161392D01*
X314260Y161314D01*
X314326Y161237D01*
X314396Y161164D01*
X314468Y161093D01*
X314543Y161025D01*
X314621Y160960D01*
X314701Y160898D01*
X314783Y160839D01*
X314868Y160783D01*
X314955Y160731D01*
X315043Y160682D01*
X315134Y160636D01*
X315226Y160595D01*
X315320Y160556D01*
X315415Y160522D01*
X315511Y160491D01*
X315609Y160464D01*
X315707Y160440D01*
X315807Y160421D01*
X315907Y160405D01*
X316007Y160393D01*
X316108Y160385D01*
X316209Y160381D01*
X316311Y160381D01*
X316412Y160385D01*
X316513Y160393D01*
X316613Y160405D01*
X316713Y160421D01*
X316813Y160440D01*
X316911Y160464D01*
X317009Y160491D01*
X317105Y160522D01*
X317200Y160556D01*
X317294Y160595D01*
X317386Y160636D01*
X317477Y160682D01*
X317565Y160731D01*
X317652Y160783D01*
X317737Y160839D01*
X317819Y160898D01*
X317899Y160960D01*
X317977Y161025D01*
X318052Y161093D01*
X318124Y161164D01*
X318194Y161237D01*
X318260Y161314D01*
X318324Y161392D01*
X318384Y161474D01*
X318441Y161557D01*
X318495Y161643D01*
X318546Y161731D01*
X318593Y161820D01*
X318637Y161912D01*
X318677Y162005D01*
X318714Y162099D01*
X318746Y162195D01*
X318775Y162292D01*
X318801Y162390D01*
X318822Y162489D01*
X318840Y162589D01*
X318853Y162689D01*
X318863Y162790D01*
X318869Y162891D01*
X318871Y162992D01*
X306855Y169780D02*
X306760Y169778D01*
X306666Y169772D01*
X306572Y169763D01*
X306478Y169750D01*
X306385Y169733D01*
X306293Y169712D01*
X306201Y169687D01*
X306111Y169659D01*
X306022Y169627D01*
X305934Y169592D01*
X305848Y169553D01*
X305763Y169511D01*
X305680Y169465D01*
X305599Y169416D01*
X305520Y169364D01*
X305443Y169309D01*
X305369Y169250D01*
X305297Y169189D01*
X305227Y169125D01*
X305160Y169058D01*
X305096Y168988D01*
X305035Y168916D01*
X304976Y168842D01*
X304921Y168765D01*
X304869Y168686D01*
X304820Y168605D01*
X304774Y168522D01*
X304732Y168437D01*
X304693Y168351D01*
X304658Y168263D01*
X304626Y168174D01*
X304598Y168084D01*
X304573Y167992D01*
X304552Y167900D01*
X304535Y167807D01*
X304522Y167713D01*
X304513Y167619D01*
X304507Y167525D01*
X304505Y167430D01*
X306855Y169779D02*
X306963Y169777D01*
X307072Y169771D01*
X307180Y169761D01*
X307287Y169748D01*
X307394Y169730D01*
X307501Y169709D01*
X307606Y169684D01*
X307711Y169655D01*
X307814Y169623D01*
X307916Y169586D01*
X308017Y169546D01*
X308116Y169503D01*
X308214Y169456D01*
X308310Y169405D01*
X308404Y169351D01*
X308496Y169294D01*
X308586Y169233D01*
X308674Y169169D01*
X308759Y169103D01*
X308842Y169033D01*
X308922Y168960D01*
X309000Y168884D01*
X309075Y168806D01*
X309147Y168725D01*
X309216Y168641D01*
X309282Y168555D01*
X309345Y168467D01*
X309404Y168376D01*
X309461Y168284D01*
X309514Y168189D01*
X309563Y168092D01*
X309609Y167994D01*
X309652Y167895D01*
X309691Y167793D01*
X309726Y167691D01*
X305288Y165602D02*
X305219Y165671D01*
X305153Y165742D01*
X305089Y165815D01*
X305028Y165891D01*
X304970Y165970D01*
X304916Y166050D01*
X304864Y166133D01*
X304816Y166217D01*
X304770Y166303D01*
X304729Y166391D01*
X304690Y166481D01*
X304655Y166572D01*
X304624Y166664D01*
X304596Y166757D01*
X304572Y166851D01*
X304552Y166946D01*
X304535Y167042D01*
X304522Y167139D01*
X304513Y167236D01*
X304507Y167333D01*
X304505Y167430D01*
X305288Y165602D02*
X309726Y160381D01*
X304505Y160381D01*
X323575Y114779D02*
X323575Y105381D01*
X324619Y105381D02*
X322531Y105381D01*
X322531Y114779D02*
X324619Y114779D01*
X318870Y112168D02*
X318870Y107992D01*
X318871Y112168D02*
X318869Y112269D01*
X318863Y112370D01*
X318853Y112471D01*
X318840Y112571D01*
X318822Y112671D01*
X318801Y112770D01*
X318775Y112868D01*
X318746Y112965D01*
X318714Y113061D01*
X318677Y113155D01*
X318637Y113248D01*
X318593Y113340D01*
X318546Y113429D01*
X318495Y113517D01*
X318441Y113603D01*
X318384Y113686D01*
X318324Y113768D01*
X318260Y113846D01*
X318194Y113923D01*
X318124Y113996D01*
X318052Y114067D01*
X317977Y114135D01*
X317899Y114200D01*
X317819Y114262D01*
X317737Y114321D01*
X317652Y114377D01*
X317566Y114429D01*
X317477Y114478D01*
X317386Y114524D01*
X317294Y114565D01*
X317200Y114604D01*
X317105Y114638D01*
X317009Y114669D01*
X316911Y114696D01*
X316813Y114720D01*
X316713Y114739D01*
X316613Y114755D01*
X316513Y114767D01*
X316412Y114775D01*
X316311Y114779D01*
X316209Y114779D01*
X316108Y114775D01*
X316007Y114767D01*
X315907Y114755D01*
X315807Y114739D01*
X315707Y114720D01*
X315609Y114696D01*
X315511Y114669D01*
X315415Y114638D01*
X315320Y114604D01*
X315226Y114565D01*
X315134Y114524D01*
X315043Y114478D01*
X314955Y114429D01*
X314868Y114377D01*
X314783Y114321D01*
X314701Y114262D01*
X314621Y114200D01*
X314543Y114135D01*
X314468Y114067D01*
X314396Y113996D01*
X314326Y113923D01*
X314260Y113846D01*
X314196Y113768D01*
X314136Y113686D01*
X314079Y113603D01*
X314025Y113517D01*
X313974Y113429D01*
X313927Y113340D01*
X313883Y113248D01*
X313843Y113155D01*
X313806Y113061D01*
X313774Y112965D01*
X313745Y112868D01*
X313719Y112770D01*
X313698Y112671D01*
X313680Y112571D01*
X313667Y112471D01*
X313657Y112370D01*
X313651Y112269D01*
X313649Y112168D01*
X313649Y107992D01*
X313651Y107891D01*
X313657Y107790D01*
X313667Y107689D01*
X313680Y107589D01*
X313698Y107489D01*
X313719Y107390D01*
X313745Y107292D01*
X313774Y107195D01*
X313806Y107099D01*
X313843Y107005D01*
X313883Y106912D01*
X313927Y106820D01*
X313974Y106731D01*
X314025Y106643D01*
X314079Y106557D01*
X314136Y106474D01*
X314196Y106392D01*
X314260Y106314D01*
X314326Y106237D01*
X314396Y106164D01*
X314468Y106093D01*
X314543Y106025D01*
X314621Y105960D01*
X314701Y105898D01*
X314783Y105839D01*
X314868Y105783D01*
X314955Y105731D01*
X315043Y105682D01*
X315134Y105636D01*
X315226Y105595D01*
X315320Y105556D01*
X315415Y105522D01*
X315511Y105491D01*
X315609Y105464D01*
X315707Y105440D01*
X315807Y105421D01*
X315907Y105405D01*
X316007Y105393D01*
X316108Y105385D01*
X316209Y105381D01*
X316311Y105381D01*
X316412Y105385D01*
X316513Y105393D01*
X316613Y105405D01*
X316713Y105421D01*
X316813Y105440D01*
X316911Y105464D01*
X317009Y105491D01*
X317105Y105522D01*
X317200Y105556D01*
X317294Y105595D01*
X317386Y105636D01*
X317477Y105682D01*
X317565Y105731D01*
X317652Y105783D01*
X317737Y105839D01*
X317819Y105898D01*
X317899Y105960D01*
X317977Y106025D01*
X318052Y106093D01*
X318124Y106164D01*
X318194Y106237D01*
X318260Y106314D01*
X318324Y106392D01*
X318384Y106474D01*
X318441Y106557D01*
X318495Y106643D01*
X318546Y106731D01*
X318593Y106820D01*
X318637Y106912D01*
X318677Y107005D01*
X318714Y107099D01*
X318746Y107195D01*
X318775Y107292D01*
X318801Y107390D01*
X318822Y107489D01*
X318840Y107589D01*
X318853Y107689D01*
X318863Y107790D01*
X318869Y107891D01*
X318871Y107992D01*
X309727Y110080D02*
X309725Y110265D01*
X309718Y110450D01*
X309707Y110634D01*
X309692Y110818D01*
X309672Y111002D01*
X309648Y111186D01*
X309619Y111368D01*
X309586Y111550D01*
X309549Y111731D01*
X309507Y111911D01*
X309461Y112091D01*
X309411Y112269D01*
X309357Y112445D01*
X309298Y112621D01*
X309236Y112795D01*
X309169Y112967D01*
X309098Y113138D01*
X309023Y113307D01*
X308944Y113474D01*
X308914Y113554D01*
X308881Y113633D01*
X308844Y113710D01*
X308804Y113786D01*
X308761Y113860D01*
X308715Y113932D01*
X308665Y114001D01*
X308613Y114069D01*
X308557Y114134D01*
X308499Y114197D01*
X308437Y114256D01*
X308374Y114314D01*
X308307Y114368D01*
X308239Y114419D01*
X308168Y114467D01*
X308095Y114512D01*
X308021Y114554D01*
X307944Y114592D01*
X307866Y114627D01*
X307787Y114659D01*
X307706Y114687D01*
X307624Y114711D01*
X307540Y114732D01*
X307457Y114749D01*
X307372Y114762D01*
X307287Y114771D01*
X307202Y114777D01*
X307116Y114779D01*
X307030Y114777D01*
X306945Y114771D01*
X306860Y114762D01*
X306775Y114749D01*
X306692Y114732D01*
X306608Y114711D01*
X306526Y114687D01*
X306446Y114659D01*
X306366Y114627D01*
X306288Y114592D01*
X306211Y114554D01*
X306137Y114512D01*
X306064Y114467D01*
X305993Y114419D01*
X305925Y114368D01*
X305858Y114314D01*
X305795Y114256D01*
X305734Y114197D01*
X305675Y114134D01*
X305620Y114069D01*
X305567Y114001D01*
X305517Y113932D01*
X305471Y113860D01*
X305428Y113786D01*
X305388Y113710D01*
X305351Y113633D01*
X305318Y113554D01*
X305288Y113474D01*
X305209Y113307D01*
X305134Y113138D01*
X305063Y112967D01*
X304996Y112795D01*
X304934Y112621D01*
X304875Y112445D01*
X304821Y112269D01*
X304771Y112091D01*
X304725Y111911D01*
X304683Y111731D01*
X304646Y111550D01*
X304613Y111368D01*
X304584Y111186D01*
X304560Y111002D01*
X304540Y110818D01*
X304525Y110634D01*
X304514Y110450D01*
X304507Y110265D01*
X304505Y110080D01*
X309726Y110080D02*
X309724Y109895D01*
X309717Y109710D01*
X309706Y109526D01*
X309691Y109342D01*
X309671Y109158D01*
X309647Y108974D01*
X309618Y108792D01*
X309585Y108610D01*
X309548Y108429D01*
X309506Y108249D01*
X309460Y108069D01*
X309410Y107891D01*
X309356Y107715D01*
X309297Y107539D01*
X309235Y107365D01*
X309168Y107193D01*
X309097Y107022D01*
X309022Y106853D01*
X308943Y106686D01*
X308944Y106686D02*
X308914Y106606D01*
X308881Y106527D01*
X308844Y106450D01*
X308804Y106374D01*
X308761Y106300D01*
X308715Y106228D01*
X308665Y106159D01*
X308612Y106091D01*
X308557Y106026D01*
X308498Y105963D01*
X308437Y105904D01*
X308374Y105846D01*
X308307Y105792D01*
X308239Y105741D01*
X308168Y105693D01*
X308095Y105648D01*
X308021Y105606D01*
X307944Y105568D01*
X307866Y105533D01*
X307787Y105501D01*
X307706Y105473D01*
X307624Y105449D01*
X307540Y105428D01*
X307457Y105411D01*
X307372Y105398D01*
X307287Y105389D01*
X307202Y105383D01*
X307116Y105381D01*
X305288Y106686D02*
X305209Y106853D01*
X305134Y107022D01*
X305063Y107193D01*
X304996Y107365D01*
X304934Y107539D01*
X304875Y107715D01*
X304821Y107891D01*
X304771Y108069D01*
X304725Y108249D01*
X304683Y108429D01*
X304646Y108610D01*
X304613Y108792D01*
X304584Y108974D01*
X304560Y109158D01*
X304540Y109342D01*
X304525Y109526D01*
X304514Y109710D01*
X304507Y109895D01*
X304505Y110080D01*
X305288Y106686D02*
X305318Y106606D01*
X305351Y106527D01*
X305388Y106450D01*
X305428Y106374D01*
X305471Y106300D01*
X305517Y106228D01*
X305567Y106159D01*
X305620Y106091D01*
X305675Y106026D01*
X305734Y105963D01*
X305795Y105904D01*
X305858Y105846D01*
X305925Y105792D01*
X305993Y105741D01*
X306064Y105693D01*
X306137Y105648D01*
X306211Y105606D01*
X306288Y105568D01*
X306366Y105533D01*
X306446Y105501D01*
X306526Y105473D01*
X306608Y105449D01*
X306692Y105428D01*
X306775Y105411D01*
X306860Y105398D01*
X306945Y105389D01*
X307030Y105383D01*
X307116Y105381D01*
X309204Y107469D02*
X305027Y112691D01*
X324619Y185381D02*
X324619Y194779D01*
X322008Y194779D01*
X321907Y194777D01*
X321806Y194771D01*
X321705Y194761D01*
X321605Y194748D01*
X321505Y194730D01*
X321406Y194709D01*
X321308Y194683D01*
X321211Y194654D01*
X321115Y194622D01*
X321021Y194585D01*
X320928Y194545D01*
X320836Y194501D01*
X320747Y194454D01*
X320659Y194403D01*
X320573Y194349D01*
X320490Y194292D01*
X320408Y194232D01*
X320330Y194168D01*
X320253Y194102D01*
X320180Y194032D01*
X320109Y193960D01*
X320041Y193885D01*
X319976Y193807D01*
X319914Y193727D01*
X319855Y193645D01*
X319799Y193560D01*
X319747Y193474D01*
X319698Y193385D01*
X319652Y193294D01*
X319611Y193202D01*
X319572Y193108D01*
X319538Y193013D01*
X319507Y192917D01*
X319480Y192819D01*
X319456Y192721D01*
X319437Y192621D01*
X319421Y192521D01*
X319409Y192421D01*
X319401Y192320D01*
X319397Y192219D01*
X319397Y192117D01*
X319401Y192016D01*
X319409Y191915D01*
X319421Y191815D01*
X319437Y191715D01*
X319456Y191615D01*
X319480Y191517D01*
X319507Y191419D01*
X319538Y191323D01*
X319572Y191228D01*
X319611Y191134D01*
X319652Y191042D01*
X319698Y190951D01*
X319747Y190863D01*
X319799Y190776D01*
X319855Y190691D01*
X319914Y190609D01*
X319976Y190529D01*
X320041Y190451D01*
X320109Y190376D01*
X320180Y190304D01*
X320253Y190234D01*
X320330Y190168D01*
X320408Y190104D01*
X320490Y190044D01*
X320573Y189987D01*
X320659Y189933D01*
X320747Y189882D01*
X320836Y189835D01*
X320928Y189791D01*
X321021Y189751D01*
X321115Y189714D01*
X321211Y189682D01*
X321308Y189653D01*
X321406Y189627D01*
X321505Y189606D01*
X321605Y189588D01*
X321705Y189575D01*
X321806Y189565D01*
X321907Y189559D01*
X322008Y189557D01*
X322008Y189558D02*
X324619Y189558D01*
X321486Y189558D02*
X319398Y185381D01*
X316054Y185381D02*
X309789Y194779D01*
X316054Y194779D02*
X309789Y185381D01*
X322008Y64779D02*
X322008Y55381D01*
X324619Y64779D02*
X319398Y64779D01*
X310341Y64779D02*
X316607Y55381D01*
X310341Y55381D02*
X316607Y64779D01*
X320442Y135381D02*
X322531Y135381D01*
X322620Y135383D01*
X322708Y135389D01*
X322796Y135398D01*
X322884Y135411D01*
X322971Y135428D01*
X323057Y135448D01*
X323142Y135473D01*
X323227Y135500D01*
X323310Y135532D01*
X323391Y135566D01*
X323471Y135605D01*
X323549Y135646D01*
X323626Y135691D01*
X323700Y135739D01*
X323773Y135790D01*
X323843Y135844D01*
X323910Y135902D01*
X323976Y135962D01*
X324038Y136024D01*
X324098Y136090D01*
X324156Y136157D01*
X324210Y136227D01*
X324261Y136300D01*
X324309Y136374D01*
X324354Y136451D01*
X324395Y136529D01*
X324434Y136609D01*
X324468Y136690D01*
X324500Y136773D01*
X324527Y136858D01*
X324552Y136943D01*
X324572Y137029D01*
X324589Y137116D01*
X324602Y137204D01*
X324611Y137292D01*
X324617Y137380D01*
X324619Y137469D01*
X324619Y142691D01*
X324617Y142780D01*
X324611Y142868D01*
X324602Y142956D01*
X324589Y143044D01*
X324572Y143131D01*
X324552Y143217D01*
X324527Y143302D01*
X324500Y143387D01*
X324468Y143470D01*
X324434Y143551D01*
X324395Y143631D01*
X324354Y143709D01*
X324309Y143786D01*
X324261Y143860D01*
X324210Y143933D01*
X324156Y144003D01*
X324098Y144070D01*
X324038Y144136D01*
X323976Y144198D01*
X323910Y144258D01*
X323843Y144316D01*
X323773Y144370D01*
X323700Y144421D01*
X323626Y144469D01*
X323549Y144514D01*
X323471Y144555D01*
X323391Y144594D01*
X323310Y144628D01*
X323227Y144660D01*
X323142Y144687D01*
X323057Y144712D01*
X322971Y144732D01*
X322884Y144749D01*
X322796Y144762D01*
X322708Y144771D01*
X322620Y144777D01*
X322531Y144779D01*
X320442Y144779D01*
X316669Y144779D02*
X316669Y135381D01*
X316669Y140602D02*
X311447Y140602D01*
X311447Y144779D02*
X311447Y135381D01*
X307612Y134337D02*
X303435Y134337D01*
X299469Y135381D02*
X299469Y144779D01*
X296858Y144779D01*
X296757Y144777D01*
X296656Y144771D01*
X296555Y144761D01*
X296455Y144748D01*
X296355Y144730D01*
X296256Y144709D01*
X296158Y144683D01*
X296061Y144654D01*
X295965Y144622D01*
X295871Y144585D01*
X295778Y144545D01*
X295686Y144501D01*
X295597Y144454D01*
X295509Y144403D01*
X295423Y144349D01*
X295340Y144292D01*
X295258Y144232D01*
X295180Y144168D01*
X295103Y144102D01*
X295030Y144032D01*
X294959Y143960D01*
X294891Y143885D01*
X294826Y143807D01*
X294764Y143727D01*
X294705Y143645D01*
X294649Y143560D01*
X294597Y143474D01*
X294548Y143385D01*
X294502Y143294D01*
X294461Y143202D01*
X294422Y143108D01*
X294388Y143013D01*
X294357Y142917D01*
X294330Y142819D01*
X294306Y142721D01*
X294287Y142621D01*
X294271Y142521D01*
X294259Y142421D01*
X294251Y142320D01*
X294247Y142219D01*
X294247Y142117D01*
X294251Y142016D01*
X294259Y141915D01*
X294271Y141815D01*
X294287Y141715D01*
X294306Y141615D01*
X294330Y141517D01*
X294357Y141419D01*
X294388Y141323D01*
X294422Y141228D01*
X294461Y141134D01*
X294502Y141042D01*
X294548Y140951D01*
X294597Y140863D01*
X294649Y140776D01*
X294705Y140691D01*
X294764Y140609D01*
X294826Y140529D01*
X294891Y140451D01*
X294959Y140376D01*
X295030Y140304D01*
X295103Y140234D01*
X295180Y140168D01*
X295258Y140104D01*
X295340Y140044D01*
X295423Y139987D01*
X295509Y139933D01*
X295597Y139882D01*
X295686Y139835D01*
X295778Y139791D01*
X295871Y139751D01*
X295965Y139714D01*
X296061Y139682D01*
X296158Y139653D01*
X296256Y139627D01*
X296355Y139606D01*
X296455Y139588D01*
X296555Y139575D01*
X296656Y139565D01*
X296757Y139559D01*
X296858Y139557D01*
X296858Y139558D02*
X299469Y139558D01*
X290456Y135381D02*
X290456Y144779D01*
X287845Y144779D01*
X287745Y144777D01*
X287645Y144771D01*
X287546Y144762D01*
X287446Y144748D01*
X287348Y144731D01*
X287250Y144710D01*
X287153Y144686D01*
X287057Y144657D01*
X286962Y144625D01*
X286869Y144590D01*
X286777Y144551D01*
X286686Y144508D01*
X286598Y144462D01*
X286511Y144412D01*
X286426Y144360D01*
X286343Y144304D01*
X286262Y144245D01*
X286184Y144182D01*
X286108Y144117D01*
X286034Y144049D01*
X285964Y143979D01*
X285896Y143905D01*
X285831Y143829D01*
X285768Y143751D01*
X285709Y143670D01*
X285653Y143587D01*
X285601Y143502D01*
X285551Y143415D01*
X285505Y143327D01*
X285462Y143236D01*
X285423Y143144D01*
X285388Y143051D01*
X285356Y142956D01*
X285327Y142860D01*
X285303Y142763D01*
X285282Y142665D01*
X285265Y142567D01*
X285251Y142467D01*
X285242Y142368D01*
X285236Y142268D01*
X285234Y142168D01*
X285235Y142168D02*
X285235Y137992D01*
X285234Y137992D02*
X285236Y137892D01*
X285242Y137792D01*
X285251Y137693D01*
X285265Y137593D01*
X285282Y137495D01*
X285303Y137397D01*
X285327Y137300D01*
X285356Y137204D01*
X285388Y137109D01*
X285423Y137016D01*
X285462Y136924D01*
X285505Y136833D01*
X285551Y136745D01*
X285601Y136658D01*
X285653Y136573D01*
X285709Y136490D01*
X285768Y136409D01*
X285831Y136331D01*
X285896Y136255D01*
X285964Y136181D01*
X286034Y136111D01*
X286108Y136043D01*
X286184Y135978D01*
X286262Y135915D01*
X286343Y135856D01*
X286426Y135800D01*
X286511Y135748D01*
X286598Y135698D01*
X286686Y135652D01*
X286777Y135609D01*
X286869Y135570D01*
X286962Y135535D01*
X287057Y135503D01*
X287153Y135474D01*
X287250Y135450D01*
X287348Y135429D01*
X287446Y135412D01*
X287546Y135398D01*
X287645Y135389D01*
X287745Y135383D01*
X287845Y135381D01*
X290456Y135381D01*
X324619Y89779D02*
X324619Y80381D01*
X324619Y89779D02*
X322008Y89779D01*
X321907Y89777D01*
X321806Y89771D01*
X321705Y89761D01*
X321605Y89748D01*
X321505Y89730D01*
X321406Y89709D01*
X321308Y89683D01*
X321211Y89654D01*
X321115Y89622D01*
X321021Y89585D01*
X320928Y89545D01*
X320836Y89501D01*
X320747Y89454D01*
X320659Y89403D01*
X320573Y89349D01*
X320490Y89292D01*
X320408Y89232D01*
X320330Y89168D01*
X320253Y89102D01*
X320180Y89032D01*
X320109Y88960D01*
X320041Y88885D01*
X319976Y88807D01*
X319914Y88727D01*
X319855Y88645D01*
X319799Y88560D01*
X319747Y88474D01*
X319698Y88385D01*
X319652Y88294D01*
X319611Y88202D01*
X319572Y88108D01*
X319538Y88013D01*
X319507Y87917D01*
X319480Y87819D01*
X319456Y87721D01*
X319437Y87621D01*
X319421Y87521D01*
X319409Y87421D01*
X319401Y87320D01*
X319397Y87219D01*
X319397Y87117D01*
X319401Y87016D01*
X319409Y86915D01*
X319421Y86815D01*
X319437Y86715D01*
X319456Y86615D01*
X319480Y86517D01*
X319507Y86419D01*
X319538Y86323D01*
X319572Y86228D01*
X319611Y86134D01*
X319652Y86042D01*
X319698Y85951D01*
X319747Y85863D01*
X319799Y85776D01*
X319855Y85691D01*
X319914Y85609D01*
X319976Y85529D01*
X320041Y85451D01*
X320109Y85376D01*
X320180Y85304D01*
X320253Y85234D01*
X320330Y85168D01*
X320408Y85104D01*
X320490Y85044D01*
X320573Y84987D01*
X320659Y84933D01*
X320747Y84882D01*
X320836Y84835D01*
X320928Y84791D01*
X321021Y84751D01*
X321115Y84714D01*
X321211Y84682D01*
X321308Y84653D01*
X321406Y84627D01*
X321505Y84606D01*
X321605Y84588D01*
X321705Y84575D01*
X321806Y84565D01*
X321907Y84559D01*
X322008Y84557D01*
X322008Y84558D02*
X324619Y84558D01*
X321486Y84558D02*
X319398Y80381D01*
X312704Y80381D02*
X312615Y80383D01*
X312527Y80389D01*
X312439Y80398D01*
X312351Y80411D01*
X312264Y80428D01*
X312178Y80448D01*
X312093Y80473D01*
X312008Y80500D01*
X311925Y80532D01*
X311844Y80566D01*
X311764Y80605D01*
X311686Y80646D01*
X311609Y80691D01*
X311535Y80739D01*
X311462Y80790D01*
X311392Y80844D01*
X311325Y80902D01*
X311259Y80962D01*
X311197Y81024D01*
X311137Y81090D01*
X311079Y81157D01*
X311025Y81227D01*
X310974Y81300D01*
X310926Y81374D01*
X310881Y81451D01*
X310840Y81529D01*
X310801Y81609D01*
X310767Y81690D01*
X310735Y81773D01*
X310708Y81858D01*
X310683Y81943D01*
X310663Y82029D01*
X310646Y82116D01*
X310633Y82204D01*
X310624Y82292D01*
X310618Y82380D01*
X310616Y82469D01*
X312704Y80381D02*
X312833Y80383D01*
X312962Y80389D01*
X313091Y80398D01*
X313219Y80411D01*
X313347Y80428D01*
X313474Y80449D01*
X313601Y80473D01*
X313727Y80501D01*
X313852Y80533D01*
X313976Y80568D01*
X314099Y80607D01*
X314221Y80650D01*
X314341Y80696D01*
X314460Y80746D01*
X314578Y80799D01*
X314694Y80855D01*
X314808Y80915D01*
X314921Y80978D01*
X315031Y81045D01*
X315140Y81114D01*
X315246Y81187D01*
X315351Y81263D01*
X315453Y81342D01*
X315553Y81424D01*
X315650Y81508D01*
X315745Y81596D01*
X315837Y81686D01*
X315575Y87691D02*
X315573Y87780D01*
X315567Y87868D01*
X315558Y87956D01*
X315545Y88044D01*
X315528Y88131D01*
X315508Y88217D01*
X315483Y88302D01*
X315456Y88387D01*
X315424Y88470D01*
X315390Y88551D01*
X315351Y88631D01*
X315310Y88709D01*
X315265Y88786D01*
X315217Y88860D01*
X315166Y88933D01*
X315112Y89003D01*
X315054Y89070D01*
X314994Y89136D01*
X314932Y89198D01*
X314866Y89258D01*
X314799Y89316D01*
X314729Y89370D01*
X314656Y89421D01*
X314582Y89469D01*
X314505Y89514D01*
X314427Y89555D01*
X314347Y89594D01*
X314266Y89628D01*
X314183Y89660D01*
X314098Y89687D01*
X314013Y89712D01*
X313927Y89732D01*
X313840Y89749D01*
X313752Y89762D01*
X313664Y89771D01*
X313576Y89777D01*
X313487Y89779D01*
X313367Y89777D01*
X313247Y89772D01*
X313128Y89762D01*
X313008Y89750D01*
X312889Y89733D01*
X312771Y89713D01*
X312653Y89689D01*
X312537Y89662D01*
X312421Y89631D01*
X312306Y89597D01*
X312192Y89559D01*
X312079Y89517D01*
X311968Y89472D01*
X311858Y89424D01*
X311750Y89373D01*
X311643Y89318D01*
X311538Y89260D01*
X311435Y89198D01*
X311334Y89134D01*
X311234Y89066D01*
X311137Y88996D01*
X314532Y85864D02*
X314610Y85912D01*
X314686Y85964D01*
X314759Y86018D01*
X314830Y86076D01*
X314899Y86137D01*
X314965Y86201D01*
X315028Y86268D01*
X315088Y86337D01*
X315145Y86409D01*
X315199Y86483D01*
X315249Y86560D01*
X315297Y86639D01*
X315340Y86719D01*
X315381Y86802D01*
X315417Y86886D01*
X315450Y86971D01*
X315479Y87058D01*
X315505Y87147D01*
X315527Y87236D01*
X315544Y87326D01*
X315558Y87416D01*
X315568Y87508D01*
X315574Y87599D01*
X315576Y87691D01*
X311660Y84296D02*
X311582Y84248D01*
X311506Y84196D01*
X311433Y84142D01*
X311362Y84084D01*
X311293Y84023D01*
X311227Y83959D01*
X311164Y83892D01*
X311104Y83823D01*
X311047Y83751D01*
X310993Y83677D01*
X310943Y83600D01*
X310895Y83521D01*
X310852Y83441D01*
X310811Y83358D01*
X310775Y83274D01*
X310742Y83189D01*
X310713Y83102D01*
X310687Y83013D01*
X310665Y82924D01*
X310648Y82834D01*
X310634Y82744D01*
X310624Y82652D01*
X310618Y82561D01*
X310616Y82469D01*
X311660Y84297D02*
X314532Y85863D01*
X304997Y89779D02*
X304997Y80381D01*
X307607Y89779D02*
X302386Y89779D01*
X322008Y30381D02*
X324619Y30381D01*
X322008Y30381D02*
X321907Y30383D01*
X321806Y30389D01*
X321705Y30399D01*
X321605Y30412D01*
X321505Y30430D01*
X321406Y30451D01*
X321308Y30477D01*
X321211Y30506D01*
X321115Y30538D01*
X321021Y30575D01*
X320928Y30615D01*
X320836Y30659D01*
X320747Y30706D01*
X320659Y30757D01*
X320573Y30811D01*
X320490Y30868D01*
X320408Y30928D01*
X320330Y30992D01*
X320253Y31058D01*
X320180Y31128D01*
X320109Y31200D01*
X320041Y31275D01*
X319976Y31353D01*
X319914Y31433D01*
X319855Y31515D01*
X319799Y31600D01*
X319747Y31687D01*
X319698Y31775D01*
X319652Y31866D01*
X319611Y31958D01*
X319572Y32052D01*
X319538Y32147D01*
X319507Y32243D01*
X319480Y32341D01*
X319456Y32439D01*
X319437Y32539D01*
X319421Y32639D01*
X319409Y32739D01*
X319401Y32840D01*
X319397Y32941D01*
X319397Y33043D01*
X319401Y33144D01*
X319409Y33245D01*
X319421Y33345D01*
X319437Y33445D01*
X319456Y33545D01*
X319480Y33643D01*
X319507Y33741D01*
X319538Y33837D01*
X319572Y33932D01*
X319611Y34026D01*
X319652Y34118D01*
X319698Y34209D01*
X319747Y34298D01*
X319799Y34384D01*
X319855Y34469D01*
X319914Y34551D01*
X319976Y34631D01*
X320041Y34709D01*
X320109Y34784D01*
X320180Y34856D01*
X320253Y34926D01*
X320330Y34992D01*
X320408Y35056D01*
X320490Y35116D01*
X320573Y35173D01*
X320659Y35227D01*
X320747Y35278D01*
X320836Y35325D01*
X320928Y35369D01*
X321021Y35409D01*
X321115Y35446D01*
X321211Y35478D01*
X321308Y35507D01*
X321406Y35533D01*
X321505Y35554D01*
X321605Y35572D01*
X321705Y35585D01*
X321806Y35595D01*
X321907Y35601D01*
X322008Y35603D01*
X321486Y39779D02*
X324619Y39779D01*
X321486Y39779D02*
X321396Y39777D01*
X321307Y39771D01*
X321217Y39762D01*
X321128Y39748D01*
X321040Y39731D01*
X320953Y39710D01*
X320866Y39685D01*
X320781Y39656D01*
X320697Y39624D01*
X320615Y39589D01*
X320534Y39549D01*
X320455Y39507D01*
X320378Y39461D01*
X320303Y39411D01*
X320230Y39359D01*
X320159Y39303D01*
X320091Y39245D01*
X320026Y39183D01*
X319963Y39119D01*
X319903Y39052D01*
X319846Y38983D01*
X319792Y38911D01*
X319741Y38837D01*
X319693Y38761D01*
X319649Y38683D01*
X319608Y38603D01*
X319570Y38521D01*
X319536Y38438D01*
X319506Y38353D01*
X319479Y38267D01*
X319456Y38181D01*
X319437Y38093D01*
X319422Y38004D01*
X319410Y37915D01*
X319402Y37826D01*
X319398Y37736D01*
X319398Y37646D01*
X319402Y37556D01*
X319410Y37467D01*
X319422Y37378D01*
X319437Y37289D01*
X319456Y37201D01*
X319479Y37115D01*
X319506Y37029D01*
X319536Y36944D01*
X319570Y36861D01*
X319608Y36779D01*
X319649Y36699D01*
X319693Y36621D01*
X319741Y36545D01*
X319792Y36471D01*
X319846Y36399D01*
X319903Y36330D01*
X319963Y36263D01*
X320026Y36199D01*
X320091Y36137D01*
X320159Y36079D01*
X320230Y36023D01*
X320303Y35971D01*
X320378Y35921D01*
X320455Y35875D01*
X320534Y35833D01*
X320615Y35793D01*
X320697Y35758D01*
X320781Y35726D01*
X320866Y35697D01*
X320953Y35672D01*
X321040Y35651D01*
X321128Y35634D01*
X321217Y35620D01*
X321307Y35611D01*
X321396Y35605D01*
X321486Y35603D01*
X321486Y35602D02*
X323575Y35602D01*
X315869Y30903D02*
X315869Y30381D01*
X315869Y30903D02*
X315347Y30903D01*
X315347Y30381D01*
X315869Y30381D01*
X311817Y30381D02*
X309207Y30381D01*
X309106Y30383D01*
X309005Y30389D01*
X308904Y30399D01*
X308804Y30412D01*
X308704Y30430D01*
X308605Y30451D01*
X308507Y30477D01*
X308410Y30506D01*
X308314Y30538D01*
X308220Y30575D01*
X308127Y30615D01*
X308035Y30659D01*
X307946Y30706D01*
X307858Y30757D01*
X307772Y30811D01*
X307689Y30868D01*
X307607Y30928D01*
X307529Y30992D01*
X307452Y31058D01*
X307379Y31128D01*
X307308Y31200D01*
X307240Y31275D01*
X307175Y31353D01*
X307113Y31433D01*
X307054Y31515D01*
X306998Y31600D01*
X306946Y31687D01*
X306897Y31775D01*
X306851Y31866D01*
X306810Y31958D01*
X306771Y32052D01*
X306737Y32147D01*
X306706Y32243D01*
X306679Y32341D01*
X306655Y32439D01*
X306636Y32539D01*
X306620Y32639D01*
X306608Y32739D01*
X306600Y32840D01*
X306596Y32941D01*
X306596Y33043D01*
X306600Y33144D01*
X306608Y33245D01*
X306620Y33345D01*
X306636Y33445D01*
X306655Y33545D01*
X306679Y33643D01*
X306706Y33741D01*
X306737Y33837D01*
X306771Y33932D01*
X306810Y34026D01*
X306851Y34118D01*
X306897Y34209D01*
X306946Y34298D01*
X306998Y34384D01*
X307054Y34469D01*
X307113Y34551D01*
X307175Y34631D01*
X307240Y34709D01*
X307308Y34784D01*
X307379Y34856D01*
X307452Y34926D01*
X307529Y34992D01*
X307607Y35056D01*
X307689Y35116D01*
X307772Y35173D01*
X307858Y35227D01*
X307946Y35278D01*
X308035Y35325D01*
X308127Y35369D01*
X308220Y35409D01*
X308314Y35446D01*
X308410Y35478D01*
X308507Y35507D01*
X308605Y35533D01*
X308704Y35554D01*
X308804Y35572D01*
X308904Y35585D01*
X309005Y35595D01*
X309106Y35601D01*
X309207Y35603D01*
X308685Y39779D02*
X311817Y39779D01*
X308685Y39779D02*
X308595Y39777D01*
X308506Y39771D01*
X308416Y39762D01*
X308327Y39748D01*
X308239Y39731D01*
X308152Y39710D01*
X308065Y39685D01*
X307980Y39656D01*
X307896Y39624D01*
X307814Y39589D01*
X307733Y39549D01*
X307654Y39507D01*
X307577Y39461D01*
X307502Y39411D01*
X307429Y39359D01*
X307358Y39303D01*
X307290Y39245D01*
X307225Y39183D01*
X307162Y39119D01*
X307102Y39052D01*
X307045Y38983D01*
X306991Y38911D01*
X306940Y38837D01*
X306892Y38761D01*
X306848Y38683D01*
X306807Y38603D01*
X306769Y38521D01*
X306735Y38438D01*
X306705Y38353D01*
X306678Y38267D01*
X306655Y38181D01*
X306636Y38093D01*
X306621Y38004D01*
X306609Y37915D01*
X306601Y37826D01*
X306597Y37736D01*
X306597Y37646D01*
X306601Y37556D01*
X306609Y37467D01*
X306621Y37378D01*
X306636Y37289D01*
X306655Y37201D01*
X306678Y37115D01*
X306705Y37029D01*
X306735Y36944D01*
X306769Y36861D01*
X306807Y36779D01*
X306848Y36699D01*
X306892Y36621D01*
X306940Y36545D01*
X306991Y36471D01*
X307045Y36399D01*
X307102Y36330D01*
X307162Y36263D01*
X307225Y36199D01*
X307290Y36137D01*
X307358Y36079D01*
X307429Y36023D01*
X307502Y35971D01*
X307577Y35921D01*
X307654Y35875D01*
X307733Y35833D01*
X307814Y35793D01*
X307896Y35758D01*
X307980Y35726D01*
X308065Y35697D01*
X308152Y35672D01*
X308239Y35651D01*
X308327Y35634D01*
X308416Y35620D01*
X308506Y35611D01*
X308595Y35605D01*
X308685Y35603D01*
X308685Y35602D02*
X310773Y35602D01*
X303196Y39779D02*
X300063Y30381D01*
X296930Y39779D01*
D13*
X209492Y140508D02*
X209492Y152192D01*
X206246Y152192D01*
X206133Y152190D01*
X206020Y152184D01*
X205907Y152174D01*
X205794Y152160D01*
X205682Y152143D01*
X205571Y152121D01*
X205461Y152096D01*
X205351Y152066D01*
X205243Y152033D01*
X205136Y151996D01*
X205030Y151956D01*
X204926Y151911D01*
X204823Y151863D01*
X204722Y151812D01*
X204623Y151757D01*
X204526Y151699D01*
X204431Y151637D01*
X204338Y151572D01*
X204248Y151504D01*
X204160Y151433D01*
X204074Y151358D01*
X203991Y151281D01*
X203911Y151201D01*
X203834Y151118D01*
X203759Y151032D01*
X203688Y150944D01*
X203620Y150854D01*
X203555Y150761D01*
X203493Y150666D01*
X203435Y150569D01*
X203380Y150470D01*
X203329Y150369D01*
X203281Y150266D01*
X203236Y150162D01*
X203196Y150056D01*
X203159Y149949D01*
X203126Y149841D01*
X203096Y149731D01*
X203071Y149621D01*
X203049Y149510D01*
X203032Y149398D01*
X203018Y149285D01*
X203008Y149172D01*
X203002Y149059D01*
X203000Y148946D01*
X203001Y148946D02*
X203001Y143754D01*
X203000Y143754D02*
X203002Y143641D01*
X203008Y143528D01*
X203018Y143415D01*
X203032Y143302D01*
X203049Y143190D01*
X203071Y143079D01*
X203096Y142969D01*
X203126Y142859D01*
X203159Y142751D01*
X203196Y142644D01*
X203236Y142538D01*
X203281Y142434D01*
X203329Y142331D01*
X203380Y142230D01*
X203435Y142131D01*
X203493Y142034D01*
X203555Y141939D01*
X203620Y141846D01*
X203688Y141756D01*
X203759Y141668D01*
X203834Y141582D01*
X203911Y141499D01*
X203991Y141419D01*
X204074Y141342D01*
X204160Y141267D01*
X204248Y141196D01*
X204338Y141128D01*
X204431Y141063D01*
X204526Y141001D01*
X204623Y140943D01*
X204722Y140888D01*
X204823Y140837D01*
X204926Y140789D01*
X205030Y140744D01*
X205136Y140704D01*
X205243Y140667D01*
X205351Y140634D01*
X205461Y140604D01*
X205571Y140579D01*
X205682Y140557D01*
X205794Y140540D01*
X205907Y140526D01*
X206020Y140516D01*
X206133Y140510D01*
X206246Y140508D01*
X209492Y140508D01*
X197865Y140508D02*
X197865Y148297D01*
X198189Y151543D02*
X198189Y152192D01*
X197540Y152192D01*
X197540Y151543D01*
X198189Y151543D01*
X192248Y145052D02*
X189003Y143754D01*
X192248Y145051D02*
X192323Y145084D01*
X192397Y145120D01*
X192469Y145159D01*
X192539Y145202D01*
X192606Y145248D01*
X192672Y145298D01*
X192734Y145350D01*
X192795Y145406D01*
X192852Y145464D01*
X192907Y145525D01*
X192958Y145589D01*
X193006Y145655D01*
X193051Y145724D01*
X193093Y145794D01*
X193131Y145867D01*
X193166Y145941D01*
X193197Y146017D01*
X193224Y146094D01*
X193247Y146173D01*
X193267Y146252D01*
X193282Y146333D01*
X193294Y146414D01*
X193302Y146496D01*
X193306Y146577D01*
X193305Y146659D01*
X193301Y146741D01*
X193293Y146823D01*
X193281Y146904D01*
X193265Y146984D01*
X193245Y147064D01*
X193221Y147142D01*
X193193Y147219D01*
X193162Y147295D01*
X193127Y147369D01*
X193089Y147441D01*
X193047Y147512D01*
X193001Y147580D01*
X192953Y147646D01*
X192901Y147709D01*
X192846Y147770D01*
X192788Y147828D01*
X192728Y147884D01*
X192665Y147936D01*
X192599Y147985D01*
X192531Y148031D01*
X192461Y148073D01*
X192389Y148113D01*
X192315Y148148D01*
X192240Y148180D01*
X192163Y148208D01*
X192085Y148232D01*
X192005Y148253D01*
X191925Y148270D01*
X191844Y148282D01*
X191763Y148291D01*
X191681Y148296D01*
X191599Y148297D01*
X191422Y148293D01*
X191245Y148284D01*
X191068Y148270D01*
X190891Y148253D01*
X190716Y148231D01*
X190540Y148206D01*
X190366Y148175D01*
X190192Y148141D01*
X190019Y148103D01*
X189847Y148060D01*
X189676Y148013D01*
X189506Y147963D01*
X189337Y147908D01*
X189170Y147849D01*
X189005Y147786D01*
X188840Y147719D01*
X188678Y147648D01*
X189003Y143754D02*
X188928Y143721D01*
X188854Y143685D01*
X188782Y143646D01*
X188712Y143603D01*
X188645Y143557D01*
X188579Y143507D01*
X188517Y143455D01*
X188456Y143399D01*
X188399Y143341D01*
X188344Y143280D01*
X188293Y143216D01*
X188245Y143150D01*
X188200Y143081D01*
X188158Y143011D01*
X188120Y142938D01*
X188085Y142864D01*
X188054Y142788D01*
X188027Y142711D01*
X188004Y142632D01*
X187984Y142553D01*
X187969Y142472D01*
X187957Y142391D01*
X187949Y142309D01*
X187945Y142228D01*
X187946Y142146D01*
X187950Y142064D01*
X187958Y141982D01*
X187970Y141901D01*
X187986Y141821D01*
X188006Y141741D01*
X188030Y141663D01*
X188058Y141586D01*
X188089Y141510D01*
X188124Y141436D01*
X188162Y141364D01*
X188204Y141293D01*
X188250Y141225D01*
X188298Y141159D01*
X188350Y141096D01*
X188405Y141035D01*
X188463Y140977D01*
X188523Y140921D01*
X188586Y140869D01*
X188652Y140820D01*
X188720Y140774D01*
X188790Y140732D01*
X188862Y140692D01*
X188936Y140657D01*
X189011Y140625D01*
X189088Y140597D01*
X189166Y140573D01*
X189246Y140552D01*
X189326Y140535D01*
X189407Y140523D01*
X189488Y140514D01*
X189570Y140509D01*
X189652Y140508D01*
X189912Y140515D01*
X190172Y140528D01*
X190432Y140547D01*
X190691Y140572D01*
X190950Y140604D01*
X191207Y140641D01*
X191464Y140685D01*
X191720Y140734D01*
X191974Y140790D01*
X192227Y140851D01*
X192478Y140919D01*
X192728Y140993D01*
X192976Y141072D01*
X193222Y141157D01*
X181369Y140508D02*
X178123Y140508D01*
X181369Y140508D02*
X181456Y140510D01*
X181544Y140516D01*
X181630Y140526D01*
X181717Y140539D01*
X181802Y140557D01*
X181887Y140578D01*
X181971Y140603D01*
X182053Y140632D01*
X182134Y140665D01*
X182214Y140701D01*
X182292Y140740D01*
X182368Y140784D01*
X182442Y140830D01*
X182513Y140880D01*
X182583Y140933D01*
X182650Y140989D01*
X182714Y141048D01*
X182776Y141110D01*
X182835Y141174D01*
X182891Y141241D01*
X182944Y141311D01*
X182994Y141382D01*
X183040Y141456D01*
X183084Y141532D01*
X183123Y141610D01*
X183159Y141690D01*
X183192Y141771D01*
X183221Y141853D01*
X183246Y141937D01*
X183267Y142022D01*
X183285Y142107D01*
X183298Y142194D01*
X183308Y142280D01*
X183314Y142368D01*
X183316Y142455D01*
X183316Y145701D01*
X183314Y145802D01*
X183308Y145902D01*
X183298Y146002D01*
X183285Y146102D01*
X183267Y146201D01*
X183246Y146300D01*
X183221Y146397D01*
X183192Y146494D01*
X183159Y146589D01*
X183123Y146683D01*
X183083Y146775D01*
X183040Y146866D01*
X182993Y146955D01*
X182943Y147042D01*
X182889Y147128D01*
X182832Y147211D01*
X182772Y147291D01*
X182709Y147370D01*
X182642Y147446D01*
X182573Y147519D01*
X182501Y147589D01*
X182427Y147657D01*
X182350Y147722D01*
X182270Y147783D01*
X182188Y147842D01*
X182104Y147897D01*
X182018Y147949D01*
X181930Y147998D01*
X181840Y148043D01*
X181748Y148085D01*
X181655Y148123D01*
X181560Y148157D01*
X181465Y148188D01*
X181368Y148215D01*
X181270Y148238D01*
X181171Y148258D01*
X181071Y148273D01*
X180971Y148285D01*
X180871Y148293D01*
X180770Y148297D01*
X180670Y148297D01*
X180569Y148293D01*
X180469Y148285D01*
X180369Y148273D01*
X180269Y148258D01*
X180170Y148238D01*
X180072Y148215D01*
X179975Y148188D01*
X179880Y148157D01*
X179785Y148123D01*
X179692Y148085D01*
X179600Y148043D01*
X179510Y147998D01*
X179422Y147949D01*
X179336Y147897D01*
X179252Y147842D01*
X179170Y147783D01*
X179090Y147722D01*
X179013Y147657D01*
X178939Y147589D01*
X178867Y147519D01*
X178798Y147446D01*
X178731Y147370D01*
X178668Y147291D01*
X178608Y147211D01*
X178551Y147128D01*
X178497Y147042D01*
X178447Y146955D01*
X178400Y146866D01*
X178357Y146775D01*
X178317Y146683D01*
X178281Y146589D01*
X178248Y146494D01*
X178219Y146397D01*
X178194Y146300D01*
X178173Y146201D01*
X178155Y146102D01*
X178142Y146002D01*
X178132Y145902D01*
X178126Y145802D01*
X178124Y145701D01*
X178123Y145701D02*
X178123Y144403D01*
X183316Y144403D01*
X173029Y140508D02*
X173029Y148297D01*
X169783Y148297D01*
X169696Y148295D01*
X169608Y148289D01*
X169522Y148279D01*
X169435Y148266D01*
X169350Y148248D01*
X169265Y148227D01*
X169181Y148202D01*
X169099Y148173D01*
X169018Y148140D01*
X168938Y148104D01*
X168860Y148065D01*
X168784Y148021D01*
X168710Y147975D01*
X168639Y147925D01*
X168569Y147872D01*
X168502Y147816D01*
X168438Y147757D01*
X168376Y147696D01*
X168317Y147631D01*
X168261Y147564D01*
X168208Y147494D01*
X168158Y147423D01*
X168112Y147349D01*
X168069Y147273D01*
X168029Y147195D01*
X167993Y147115D01*
X167960Y147034D01*
X167931Y146952D01*
X167906Y146868D01*
X167885Y146783D01*
X167867Y146698D01*
X167854Y146611D01*
X167844Y146525D01*
X167838Y146437D01*
X167836Y146350D01*
X167836Y140508D01*
X173029Y151218D02*
X173027Y151288D01*
X173021Y151358D01*
X173012Y151428D01*
X172999Y151497D01*
X172982Y151565D01*
X172961Y151632D01*
X172937Y151698D01*
X172909Y151763D01*
X172878Y151826D01*
X172843Y151887D01*
X172805Y151946D01*
X172764Y152004D01*
X172720Y152058D01*
X172673Y152111D01*
X172624Y152160D01*
X172571Y152207D01*
X172517Y152251D01*
X172459Y152292D01*
X172400Y152330D01*
X172339Y152365D01*
X172276Y152396D01*
X172211Y152424D01*
X172145Y152448D01*
X172078Y152469D01*
X172010Y152486D01*
X171941Y152499D01*
X171871Y152508D01*
X171801Y152514D01*
X171731Y152516D01*
X171731Y152517D02*
X171669Y152515D01*
X171607Y152510D01*
X171546Y152501D01*
X171485Y152488D01*
X171425Y152472D01*
X171366Y152452D01*
X171309Y152429D01*
X171253Y152402D01*
X171198Y152373D01*
X171146Y152340D01*
X171095Y152304D01*
X171047Y152265D01*
X171001Y152224D01*
X170957Y152179D01*
X170917Y152133D01*
X170879Y152084D01*
X170843Y152032D01*
X170812Y151979D01*
X170783Y151924D01*
X170757Y151868D01*
X170757Y151867D02*
X170731Y151811D01*
X170702Y151756D01*
X170671Y151703D01*
X170635Y151651D01*
X170597Y151602D01*
X170557Y151556D01*
X170513Y151512D01*
X170467Y151470D01*
X170419Y151431D01*
X170368Y151395D01*
X170316Y151362D01*
X170261Y151333D01*
X170205Y151306D01*
X170148Y151283D01*
X170089Y151263D01*
X170029Y151247D01*
X169968Y151234D01*
X169907Y151225D01*
X169845Y151220D01*
X169783Y151218D01*
X169713Y151220D01*
X169643Y151226D01*
X169573Y151235D01*
X169504Y151248D01*
X169436Y151265D01*
X169369Y151286D01*
X169303Y151310D01*
X169238Y151338D01*
X169175Y151369D01*
X169114Y151404D01*
X169055Y151442D01*
X168998Y151483D01*
X168943Y151527D01*
X168890Y151574D01*
X168841Y151623D01*
X168794Y151676D01*
X168750Y151731D01*
X168709Y151788D01*
X168671Y151847D01*
X168636Y151908D01*
X168605Y151971D01*
X168577Y152036D01*
X168553Y152102D01*
X168532Y152169D01*
X168515Y152237D01*
X168502Y152306D01*
X168493Y152376D01*
X168487Y152446D01*
X168485Y152516D01*
X160529Y145052D02*
X157608Y145052D01*
X160529Y145052D02*
X160623Y145050D01*
X160717Y145044D01*
X160810Y145035D01*
X160903Y145021D01*
X160995Y145004D01*
X161087Y144982D01*
X161177Y144958D01*
X161267Y144929D01*
X161355Y144897D01*
X161442Y144861D01*
X161527Y144821D01*
X161610Y144778D01*
X161692Y144732D01*
X161772Y144682D01*
X161849Y144629D01*
X161924Y144573D01*
X161997Y144514D01*
X162068Y144452D01*
X162136Y144387D01*
X162201Y144319D01*
X162263Y144248D01*
X162322Y144175D01*
X162378Y144100D01*
X162431Y144023D01*
X162481Y143943D01*
X162527Y143861D01*
X162570Y143778D01*
X162610Y143693D01*
X162646Y143606D01*
X162678Y143518D01*
X162707Y143428D01*
X162731Y143338D01*
X162753Y143246D01*
X162770Y143154D01*
X162784Y143061D01*
X162793Y142968D01*
X162799Y142874D01*
X162801Y142780D01*
X162799Y142686D01*
X162793Y142592D01*
X162784Y142499D01*
X162770Y142406D01*
X162753Y142314D01*
X162731Y142222D01*
X162707Y142132D01*
X162678Y142042D01*
X162646Y141954D01*
X162610Y141867D01*
X162570Y141782D01*
X162527Y141699D01*
X162481Y141617D01*
X162431Y141537D01*
X162378Y141460D01*
X162322Y141385D01*
X162263Y141312D01*
X162201Y141241D01*
X162136Y141173D01*
X162068Y141108D01*
X161997Y141046D01*
X161924Y140987D01*
X161849Y140931D01*
X161772Y140878D01*
X161692Y140828D01*
X161610Y140782D01*
X161527Y140739D01*
X161442Y140699D01*
X161355Y140663D01*
X161267Y140631D01*
X161177Y140602D01*
X161087Y140578D01*
X160995Y140556D01*
X160903Y140539D01*
X160810Y140525D01*
X160717Y140516D01*
X160623Y140510D01*
X160529Y140508D01*
X157608Y140508D01*
X157608Y146350D01*
X157610Y146437D01*
X157616Y146525D01*
X157626Y146611D01*
X157639Y146698D01*
X157657Y146783D01*
X157678Y146868D01*
X157703Y146952D01*
X157732Y147034D01*
X157765Y147115D01*
X157801Y147195D01*
X157840Y147273D01*
X157884Y147349D01*
X157930Y147423D01*
X157980Y147494D01*
X158033Y147564D01*
X158089Y147631D01*
X158148Y147696D01*
X158210Y147757D01*
X158274Y147816D01*
X158341Y147872D01*
X158411Y147925D01*
X158482Y147975D01*
X158556Y148021D01*
X158632Y148065D01*
X158710Y148104D01*
X158790Y148140D01*
X158871Y148173D01*
X158953Y148202D01*
X159037Y148227D01*
X159122Y148248D01*
X159207Y148266D01*
X159294Y148279D01*
X159381Y148289D01*
X159468Y148295D01*
X159555Y148297D01*
X162152Y148297D01*
X147321Y152192D02*
X147321Y140508D01*
X150567Y140508D01*
X150654Y140510D01*
X150742Y140516D01*
X150828Y140526D01*
X150915Y140539D01*
X151000Y140557D01*
X151085Y140578D01*
X151169Y140603D01*
X151251Y140632D01*
X151332Y140665D01*
X151412Y140701D01*
X151490Y140740D01*
X151566Y140784D01*
X151640Y140830D01*
X151711Y140880D01*
X151781Y140933D01*
X151848Y140989D01*
X151912Y141048D01*
X151974Y141110D01*
X152033Y141174D01*
X152089Y141241D01*
X152142Y141311D01*
X152192Y141382D01*
X152238Y141456D01*
X152282Y141532D01*
X152321Y141610D01*
X152357Y141690D01*
X152390Y141771D01*
X152419Y141853D01*
X152444Y141937D01*
X152465Y142022D01*
X152483Y142107D01*
X152496Y142194D01*
X152506Y142280D01*
X152512Y142368D01*
X152514Y142455D01*
X152514Y146350D01*
X152512Y146437D01*
X152506Y146525D01*
X152496Y146611D01*
X152483Y146698D01*
X152465Y146783D01*
X152444Y146868D01*
X152419Y146952D01*
X152390Y147034D01*
X152357Y147115D01*
X152321Y147195D01*
X152282Y147273D01*
X152238Y147349D01*
X152192Y147423D01*
X152142Y147494D01*
X152089Y147564D01*
X152033Y147631D01*
X151974Y147695D01*
X151912Y147757D01*
X151848Y147816D01*
X151781Y147872D01*
X151711Y147925D01*
X151640Y147975D01*
X151566Y148021D01*
X151490Y148065D01*
X151412Y148104D01*
X151332Y148140D01*
X151251Y148173D01*
X151169Y148202D01*
X151085Y148227D01*
X151000Y148248D01*
X150915Y148266D01*
X150828Y148279D01*
X150742Y148289D01*
X150654Y148295D01*
X150567Y148297D01*
X147321Y148297D01*
X142168Y145701D02*
X142168Y143104D01*
X142168Y145701D02*
X142166Y145802D01*
X142160Y145902D01*
X142150Y146002D01*
X142137Y146102D01*
X142119Y146201D01*
X142098Y146300D01*
X142073Y146397D01*
X142044Y146494D01*
X142011Y146589D01*
X141975Y146683D01*
X141935Y146775D01*
X141892Y146866D01*
X141845Y146955D01*
X141795Y147042D01*
X141741Y147128D01*
X141684Y147211D01*
X141624Y147291D01*
X141561Y147370D01*
X141494Y147446D01*
X141425Y147519D01*
X141353Y147589D01*
X141279Y147657D01*
X141202Y147722D01*
X141122Y147783D01*
X141040Y147842D01*
X140956Y147897D01*
X140870Y147949D01*
X140782Y147998D01*
X140692Y148043D01*
X140600Y148085D01*
X140507Y148123D01*
X140412Y148157D01*
X140317Y148188D01*
X140220Y148215D01*
X140122Y148238D01*
X140023Y148258D01*
X139923Y148273D01*
X139823Y148285D01*
X139723Y148293D01*
X139622Y148297D01*
X139522Y148297D01*
X139421Y148293D01*
X139321Y148285D01*
X139221Y148273D01*
X139121Y148258D01*
X139022Y148238D01*
X138924Y148215D01*
X138827Y148188D01*
X138732Y148157D01*
X138637Y148123D01*
X138544Y148085D01*
X138452Y148043D01*
X138362Y147998D01*
X138274Y147949D01*
X138188Y147897D01*
X138104Y147842D01*
X138022Y147783D01*
X137942Y147722D01*
X137865Y147657D01*
X137791Y147589D01*
X137719Y147519D01*
X137650Y147446D01*
X137583Y147370D01*
X137520Y147291D01*
X137460Y147211D01*
X137403Y147128D01*
X137349Y147042D01*
X137299Y146955D01*
X137252Y146866D01*
X137209Y146775D01*
X137169Y146683D01*
X137133Y146589D01*
X137100Y146494D01*
X137071Y146397D01*
X137046Y146300D01*
X137025Y146201D01*
X137007Y146102D01*
X136994Y146002D01*
X136984Y145902D01*
X136978Y145802D01*
X136976Y145701D01*
X136975Y145701D02*
X136975Y143104D01*
X136976Y143104D02*
X136978Y143003D01*
X136984Y142903D01*
X136994Y142803D01*
X137007Y142703D01*
X137025Y142604D01*
X137046Y142505D01*
X137071Y142408D01*
X137100Y142311D01*
X137133Y142216D01*
X137169Y142122D01*
X137209Y142030D01*
X137252Y141939D01*
X137299Y141850D01*
X137349Y141763D01*
X137403Y141677D01*
X137460Y141594D01*
X137520Y141514D01*
X137583Y141435D01*
X137650Y141359D01*
X137719Y141286D01*
X137791Y141216D01*
X137865Y141148D01*
X137942Y141083D01*
X138022Y141022D01*
X138104Y140963D01*
X138188Y140908D01*
X138274Y140856D01*
X138362Y140807D01*
X138452Y140762D01*
X138544Y140720D01*
X138637Y140682D01*
X138732Y140648D01*
X138827Y140617D01*
X138924Y140590D01*
X139022Y140567D01*
X139121Y140547D01*
X139221Y140532D01*
X139321Y140520D01*
X139421Y140512D01*
X139522Y140508D01*
X139622Y140508D01*
X139723Y140512D01*
X139823Y140520D01*
X139923Y140532D01*
X140023Y140547D01*
X140122Y140567D01*
X140220Y140590D01*
X140317Y140617D01*
X140412Y140648D01*
X140507Y140682D01*
X140600Y140720D01*
X140692Y140762D01*
X140782Y140807D01*
X140870Y140856D01*
X140956Y140908D01*
X141040Y140963D01*
X141122Y141022D01*
X141202Y141083D01*
X141279Y141148D01*
X141353Y141216D01*
X141425Y141286D01*
X141494Y141359D01*
X141561Y141435D01*
X141624Y141514D01*
X141684Y141594D01*
X141741Y141677D01*
X141795Y141763D01*
X141845Y141850D01*
X141892Y141939D01*
X141935Y142030D01*
X141975Y142122D01*
X142011Y142216D01*
X142044Y142311D01*
X142073Y142408D01*
X142098Y142505D01*
X142119Y142604D01*
X142137Y142703D01*
X142150Y142803D01*
X142160Y142903D01*
X142166Y143003D01*
X142168Y143104D01*
X125726Y148297D02*
X125726Y136613D01*
X125726Y148297D02*
X122481Y148297D01*
X122394Y148295D01*
X122306Y148289D01*
X122220Y148279D01*
X122133Y148266D01*
X122048Y148248D01*
X121963Y148227D01*
X121879Y148202D01*
X121797Y148173D01*
X121716Y148140D01*
X121636Y148104D01*
X121558Y148065D01*
X121482Y148021D01*
X121408Y147975D01*
X121337Y147925D01*
X121267Y147872D01*
X121200Y147816D01*
X121136Y147757D01*
X121074Y147696D01*
X121015Y147631D01*
X120959Y147564D01*
X120906Y147494D01*
X120856Y147423D01*
X120810Y147349D01*
X120767Y147273D01*
X120727Y147195D01*
X120691Y147115D01*
X120658Y147034D01*
X120629Y146952D01*
X120604Y146868D01*
X120583Y146783D01*
X120565Y146698D01*
X120552Y146611D01*
X120542Y146525D01*
X120536Y146437D01*
X120534Y146350D01*
X120533Y146350D02*
X120533Y142455D01*
X120534Y142455D02*
X120536Y142368D01*
X120542Y142280D01*
X120552Y142194D01*
X120565Y142107D01*
X120583Y142022D01*
X120604Y141937D01*
X120629Y141853D01*
X120658Y141771D01*
X120691Y141690D01*
X120727Y141610D01*
X120766Y141532D01*
X120810Y141456D01*
X120856Y141382D01*
X120906Y141311D01*
X120959Y141241D01*
X121015Y141174D01*
X121074Y141109D01*
X121136Y141048D01*
X121200Y140989D01*
X121267Y140933D01*
X121337Y140880D01*
X121408Y140830D01*
X121482Y140784D01*
X121558Y140740D01*
X121636Y140701D01*
X121716Y140665D01*
X121797Y140632D01*
X121879Y140603D01*
X121963Y140578D01*
X122048Y140557D01*
X122133Y140539D01*
X122220Y140526D01*
X122307Y140516D01*
X122394Y140510D01*
X122481Y140508D01*
X125726Y140508D01*
X115879Y143104D02*
X115879Y145701D01*
X115877Y145802D01*
X115871Y145902D01*
X115861Y146002D01*
X115848Y146102D01*
X115830Y146201D01*
X115809Y146300D01*
X115784Y146397D01*
X115755Y146494D01*
X115722Y146589D01*
X115686Y146683D01*
X115646Y146775D01*
X115603Y146866D01*
X115556Y146955D01*
X115506Y147042D01*
X115452Y147128D01*
X115395Y147211D01*
X115335Y147291D01*
X115272Y147370D01*
X115205Y147446D01*
X115136Y147519D01*
X115064Y147589D01*
X114990Y147657D01*
X114913Y147722D01*
X114833Y147783D01*
X114751Y147842D01*
X114667Y147897D01*
X114581Y147949D01*
X114493Y147998D01*
X114403Y148043D01*
X114311Y148085D01*
X114218Y148123D01*
X114123Y148157D01*
X114028Y148188D01*
X113931Y148215D01*
X113833Y148238D01*
X113734Y148258D01*
X113634Y148273D01*
X113534Y148285D01*
X113434Y148293D01*
X113333Y148297D01*
X113233Y148297D01*
X113132Y148293D01*
X113032Y148285D01*
X112932Y148273D01*
X112832Y148258D01*
X112733Y148238D01*
X112635Y148215D01*
X112538Y148188D01*
X112443Y148157D01*
X112348Y148123D01*
X112255Y148085D01*
X112163Y148043D01*
X112073Y147998D01*
X111985Y147949D01*
X111899Y147897D01*
X111815Y147842D01*
X111733Y147783D01*
X111653Y147722D01*
X111576Y147657D01*
X111502Y147589D01*
X111430Y147519D01*
X111361Y147446D01*
X111294Y147370D01*
X111231Y147291D01*
X111171Y147211D01*
X111114Y147128D01*
X111060Y147042D01*
X111010Y146955D01*
X110963Y146866D01*
X110920Y146775D01*
X110880Y146683D01*
X110844Y146589D01*
X110811Y146494D01*
X110782Y146397D01*
X110757Y146300D01*
X110736Y146201D01*
X110718Y146102D01*
X110705Y146002D01*
X110695Y145902D01*
X110689Y145802D01*
X110687Y145701D01*
X110686Y145701D02*
X110686Y143104D01*
X110687Y143104D02*
X110689Y143003D01*
X110695Y142903D01*
X110705Y142803D01*
X110718Y142703D01*
X110736Y142604D01*
X110757Y142505D01*
X110782Y142408D01*
X110811Y142311D01*
X110844Y142216D01*
X110880Y142122D01*
X110920Y142030D01*
X110963Y141939D01*
X111010Y141850D01*
X111060Y141763D01*
X111114Y141677D01*
X111171Y141594D01*
X111231Y141514D01*
X111294Y141435D01*
X111361Y141359D01*
X111430Y141286D01*
X111502Y141216D01*
X111576Y141148D01*
X111653Y141083D01*
X111733Y141022D01*
X111815Y140963D01*
X111899Y140908D01*
X111985Y140856D01*
X112073Y140807D01*
X112163Y140762D01*
X112255Y140720D01*
X112348Y140682D01*
X112443Y140648D01*
X112538Y140617D01*
X112635Y140590D01*
X112733Y140567D01*
X112832Y140547D01*
X112932Y140532D01*
X113032Y140520D01*
X113132Y140512D01*
X113233Y140508D01*
X113333Y140508D01*
X113434Y140512D01*
X113534Y140520D01*
X113634Y140532D01*
X113734Y140547D01*
X113833Y140567D01*
X113931Y140590D01*
X114028Y140617D01*
X114123Y140648D01*
X114218Y140682D01*
X114311Y140720D01*
X114403Y140762D01*
X114493Y140807D01*
X114581Y140856D01*
X114667Y140908D01*
X114751Y140963D01*
X114833Y141022D01*
X114913Y141083D01*
X114990Y141148D01*
X115064Y141216D01*
X115136Y141286D01*
X115205Y141359D01*
X115272Y141435D01*
X115335Y141514D01*
X115395Y141594D01*
X115452Y141677D01*
X115506Y141763D01*
X115556Y141850D01*
X115603Y141939D01*
X115646Y142030D01*
X115686Y142122D01*
X115722Y142216D01*
X115755Y142311D01*
X115784Y142408D01*
X115809Y142505D01*
X115830Y142604D01*
X115848Y142703D01*
X115861Y142803D01*
X115871Y142903D01*
X115877Y143003D01*
X115879Y143104D01*
X105526Y140508D02*
X105526Y148297D01*
X101631Y148297D01*
X101631Y146999D01*
X97986Y142131D02*
X97986Y141482D01*
X97986Y142131D02*
X97337Y142131D01*
X97337Y141482D01*
X97986Y141482D01*
X97986Y146675D02*
X97986Y147324D01*
X97337Y147324D01*
X97337Y146675D01*
X97986Y146675D01*
X209492Y132192D02*
X209492Y120508D01*
X209492Y132192D02*
X206246Y132192D01*
X206133Y132190D01*
X206020Y132184D01*
X205907Y132174D01*
X205794Y132160D01*
X205682Y132143D01*
X205571Y132121D01*
X205461Y132096D01*
X205351Y132066D01*
X205243Y132033D01*
X205136Y131996D01*
X205030Y131956D01*
X204926Y131911D01*
X204823Y131863D01*
X204722Y131812D01*
X204623Y131757D01*
X204526Y131699D01*
X204431Y131637D01*
X204338Y131572D01*
X204248Y131504D01*
X204160Y131433D01*
X204074Y131358D01*
X203991Y131281D01*
X203911Y131201D01*
X203834Y131118D01*
X203759Y131032D01*
X203688Y130944D01*
X203620Y130854D01*
X203555Y130761D01*
X203493Y130666D01*
X203435Y130569D01*
X203380Y130470D01*
X203329Y130369D01*
X203281Y130266D01*
X203236Y130162D01*
X203196Y130056D01*
X203159Y129949D01*
X203126Y129841D01*
X203096Y129731D01*
X203071Y129621D01*
X203049Y129510D01*
X203032Y129398D01*
X203018Y129285D01*
X203008Y129172D01*
X203002Y129059D01*
X203000Y128946D01*
X203001Y128946D02*
X203001Y123754D01*
X203000Y123754D02*
X203002Y123641D01*
X203008Y123528D01*
X203018Y123415D01*
X203032Y123302D01*
X203049Y123190D01*
X203071Y123079D01*
X203096Y122969D01*
X203126Y122859D01*
X203159Y122751D01*
X203196Y122644D01*
X203236Y122538D01*
X203281Y122434D01*
X203329Y122331D01*
X203380Y122230D01*
X203435Y122131D01*
X203493Y122034D01*
X203555Y121939D01*
X203620Y121846D01*
X203688Y121756D01*
X203759Y121668D01*
X203834Y121582D01*
X203911Y121499D01*
X203991Y121419D01*
X204074Y121342D01*
X204160Y121267D01*
X204248Y121196D01*
X204338Y121128D01*
X204431Y121063D01*
X204526Y121001D01*
X204623Y120943D01*
X204722Y120888D01*
X204823Y120837D01*
X204926Y120789D01*
X205030Y120744D01*
X205136Y120704D01*
X205243Y120667D01*
X205351Y120634D01*
X205461Y120604D01*
X205571Y120579D01*
X205682Y120557D01*
X205794Y120540D01*
X205907Y120526D01*
X206020Y120516D01*
X206133Y120510D01*
X206246Y120508D01*
X209492Y120508D01*
X195581Y125052D02*
X192660Y125052D01*
X195581Y125052D02*
X195675Y125050D01*
X195769Y125044D01*
X195862Y125035D01*
X195955Y125021D01*
X196047Y125004D01*
X196139Y124982D01*
X196229Y124958D01*
X196319Y124929D01*
X196407Y124897D01*
X196494Y124861D01*
X196579Y124821D01*
X196662Y124778D01*
X196744Y124732D01*
X196824Y124682D01*
X196901Y124629D01*
X196976Y124573D01*
X197049Y124514D01*
X197120Y124452D01*
X197188Y124387D01*
X197253Y124319D01*
X197315Y124248D01*
X197374Y124175D01*
X197430Y124100D01*
X197483Y124023D01*
X197533Y123943D01*
X197579Y123861D01*
X197622Y123778D01*
X197662Y123693D01*
X197698Y123606D01*
X197730Y123518D01*
X197759Y123428D01*
X197783Y123338D01*
X197805Y123246D01*
X197822Y123154D01*
X197836Y123061D01*
X197845Y122968D01*
X197851Y122874D01*
X197853Y122780D01*
X197851Y122686D01*
X197845Y122592D01*
X197836Y122499D01*
X197822Y122406D01*
X197805Y122314D01*
X197783Y122222D01*
X197759Y122132D01*
X197730Y122042D01*
X197698Y121954D01*
X197662Y121867D01*
X197622Y121782D01*
X197579Y121699D01*
X197533Y121617D01*
X197483Y121537D01*
X197430Y121460D01*
X197374Y121385D01*
X197315Y121312D01*
X197253Y121241D01*
X197188Y121173D01*
X197120Y121108D01*
X197049Y121046D01*
X196976Y120987D01*
X196901Y120931D01*
X196824Y120878D01*
X196744Y120828D01*
X196662Y120782D01*
X196579Y120739D01*
X196494Y120699D01*
X196407Y120663D01*
X196319Y120631D01*
X196229Y120602D01*
X196139Y120578D01*
X196047Y120556D01*
X195955Y120539D01*
X195862Y120525D01*
X195769Y120516D01*
X195675Y120510D01*
X195581Y120508D01*
X192660Y120508D01*
X192660Y126350D01*
X192662Y126437D01*
X192668Y126525D01*
X192678Y126611D01*
X192691Y126698D01*
X192709Y126783D01*
X192730Y126868D01*
X192755Y126952D01*
X192784Y127034D01*
X192817Y127115D01*
X192853Y127195D01*
X192892Y127273D01*
X192936Y127349D01*
X192982Y127423D01*
X193032Y127494D01*
X193085Y127564D01*
X193141Y127631D01*
X193200Y127696D01*
X193262Y127757D01*
X193326Y127816D01*
X193393Y127872D01*
X193463Y127925D01*
X193534Y127975D01*
X193608Y128021D01*
X193684Y128065D01*
X193762Y128104D01*
X193842Y128140D01*
X193923Y128173D01*
X194005Y128202D01*
X194089Y128227D01*
X194174Y128248D01*
X194259Y128266D01*
X194346Y128279D01*
X194433Y128289D01*
X194520Y128295D01*
X194607Y128297D01*
X197204Y128297D01*
X187888Y128297D02*
X185292Y120508D01*
X182695Y128297D01*
X178434Y128297D02*
X178434Y120508D01*
X178758Y131543D02*
X178758Y132192D01*
X178109Y132192D01*
X178109Y131543D01*
X178758Y131543D01*
X168657Y132192D02*
X168657Y120508D01*
X171903Y120508D01*
X171990Y120510D01*
X172078Y120516D01*
X172164Y120526D01*
X172251Y120539D01*
X172336Y120557D01*
X172421Y120578D01*
X172505Y120603D01*
X172587Y120632D01*
X172668Y120665D01*
X172748Y120701D01*
X172826Y120740D01*
X172902Y120784D01*
X172976Y120830D01*
X173047Y120880D01*
X173117Y120933D01*
X173184Y120989D01*
X173248Y121048D01*
X173310Y121110D01*
X173369Y121174D01*
X173425Y121241D01*
X173478Y121311D01*
X173528Y121382D01*
X173574Y121456D01*
X173618Y121532D01*
X173657Y121610D01*
X173693Y121690D01*
X173726Y121771D01*
X173755Y121853D01*
X173780Y121937D01*
X173801Y122022D01*
X173819Y122107D01*
X173832Y122194D01*
X173842Y122280D01*
X173848Y122368D01*
X173850Y122455D01*
X173850Y126350D01*
X173848Y126437D01*
X173842Y126525D01*
X173832Y126611D01*
X173819Y126698D01*
X173801Y126783D01*
X173780Y126868D01*
X173755Y126952D01*
X173726Y127034D01*
X173693Y127115D01*
X173657Y127195D01*
X173618Y127273D01*
X173574Y127349D01*
X173528Y127423D01*
X173478Y127494D01*
X173425Y127564D01*
X173369Y127631D01*
X173310Y127695D01*
X173248Y127757D01*
X173184Y127816D01*
X173117Y127872D01*
X173047Y127925D01*
X172976Y127975D01*
X172902Y128021D01*
X172826Y128065D01*
X172748Y128104D01*
X172668Y128140D01*
X172587Y128173D01*
X172505Y128202D01*
X172421Y128227D01*
X172336Y128248D01*
X172251Y128266D01*
X172164Y128279D01*
X172078Y128289D01*
X171990Y128295D01*
X171903Y128297D01*
X168657Y128297D01*
X156745Y126999D02*
X153499Y126999D01*
X153499Y127000D02*
X153386Y126998D01*
X153273Y126992D01*
X153160Y126982D01*
X153047Y126968D01*
X152935Y126951D01*
X152824Y126929D01*
X152714Y126904D01*
X152604Y126874D01*
X152496Y126841D01*
X152389Y126804D01*
X152283Y126764D01*
X152179Y126719D01*
X152076Y126671D01*
X151975Y126620D01*
X151876Y126565D01*
X151779Y126507D01*
X151684Y126445D01*
X151591Y126380D01*
X151501Y126312D01*
X151413Y126241D01*
X151327Y126166D01*
X151244Y126089D01*
X151164Y126009D01*
X151087Y125926D01*
X151012Y125840D01*
X150941Y125752D01*
X150873Y125662D01*
X150808Y125569D01*
X150746Y125474D01*
X150688Y125377D01*
X150633Y125278D01*
X150582Y125177D01*
X150534Y125074D01*
X150489Y124970D01*
X150449Y124864D01*
X150412Y124757D01*
X150379Y124649D01*
X150349Y124539D01*
X150324Y124429D01*
X150302Y124318D01*
X150285Y124206D01*
X150271Y124093D01*
X150261Y123980D01*
X150255Y123867D01*
X150253Y123754D01*
X150255Y123641D01*
X150261Y123528D01*
X150271Y123415D01*
X150285Y123302D01*
X150302Y123190D01*
X150324Y123079D01*
X150349Y122969D01*
X150379Y122859D01*
X150412Y122751D01*
X150449Y122644D01*
X150489Y122538D01*
X150534Y122434D01*
X150582Y122331D01*
X150633Y122230D01*
X150688Y122131D01*
X150746Y122034D01*
X150808Y121939D01*
X150873Y121846D01*
X150941Y121756D01*
X151012Y121668D01*
X151087Y121582D01*
X151164Y121499D01*
X151244Y121419D01*
X151327Y121342D01*
X151413Y121267D01*
X151501Y121196D01*
X151591Y121128D01*
X151684Y121063D01*
X151779Y121001D01*
X151876Y120943D01*
X151975Y120888D01*
X152076Y120837D01*
X152179Y120789D01*
X152283Y120744D01*
X152389Y120704D01*
X152496Y120667D01*
X152604Y120634D01*
X152714Y120604D01*
X152824Y120579D01*
X152935Y120557D01*
X153047Y120540D01*
X153160Y120526D01*
X153273Y120516D01*
X153386Y120510D01*
X153499Y120508D01*
X156745Y120508D01*
X156745Y132192D01*
X153499Y132192D01*
X153398Y132190D01*
X153298Y132184D01*
X153198Y132174D01*
X153098Y132161D01*
X152999Y132143D01*
X152900Y132122D01*
X152803Y132097D01*
X152706Y132068D01*
X152611Y132035D01*
X152517Y131999D01*
X152425Y131959D01*
X152334Y131916D01*
X152245Y131869D01*
X152158Y131819D01*
X152072Y131765D01*
X151989Y131708D01*
X151909Y131648D01*
X151830Y131585D01*
X151754Y131518D01*
X151681Y131449D01*
X151611Y131377D01*
X151543Y131303D01*
X151478Y131226D01*
X151417Y131146D01*
X151358Y131064D01*
X151303Y130980D01*
X151251Y130894D01*
X151202Y130806D01*
X151157Y130716D01*
X151115Y130624D01*
X151077Y130531D01*
X151043Y130436D01*
X151012Y130341D01*
X150985Y130244D01*
X150962Y130146D01*
X150942Y130047D01*
X150927Y129947D01*
X150915Y129847D01*
X150907Y129747D01*
X150903Y129646D01*
X150903Y129546D01*
X150907Y129445D01*
X150915Y129345D01*
X150927Y129245D01*
X150942Y129145D01*
X150962Y129046D01*
X150985Y128948D01*
X151012Y128851D01*
X151043Y128756D01*
X151077Y128661D01*
X151115Y128568D01*
X151157Y128476D01*
X151202Y128386D01*
X151251Y128298D01*
X151303Y128212D01*
X151358Y128128D01*
X151417Y128046D01*
X151478Y127966D01*
X151543Y127889D01*
X151611Y127815D01*
X151681Y127743D01*
X151754Y127674D01*
X151830Y127607D01*
X151909Y127544D01*
X151989Y127484D01*
X152072Y127427D01*
X152158Y127373D01*
X152245Y127323D01*
X152334Y127276D01*
X152425Y127233D01*
X152517Y127193D01*
X152611Y127157D01*
X152706Y127124D01*
X152803Y127095D01*
X152900Y127070D01*
X152999Y127049D01*
X153098Y127031D01*
X153198Y127018D01*
X153298Y127008D01*
X153398Y127002D01*
X153499Y127000D01*
X145531Y128297D02*
X145531Y120508D01*
X145531Y128297D02*
X141636Y128297D01*
X141636Y126999D01*
X135764Y125052D02*
X132843Y125052D01*
X135764Y125052D02*
X135858Y125050D01*
X135952Y125044D01*
X136045Y125035D01*
X136138Y125021D01*
X136230Y125004D01*
X136322Y124982D01*
X136412Y124958D01*
X136502Y124929D01*
X136590Y124897D01*
X136677Y124861D01*
X136762Y124821D01*
X136845Y124778D01*
X136927Y124732D01*
X137007Y124682D01*
X137084Y124629D01*
X137159Y124573D01*
X137232Y124514D01*
X137303Y124452D01*
X137371Y124387D01*
X137436Y124319D01*
X137498Y124248D01*
X137557Y124175D01*
X137613Y124100D01*
X137666Y124023D01*
X137716Y123943D01*
X137762Y123861D01*
X137805Y123778D01*
X137845Y123693D01*
X137881Y123606D01*
X137913Y123518D01*
X137942Y123428D01*
X137966Y123338D01*
X137988Y123246D01*
X138005Y123154D01*
X138019Y123061D01*
X138028Y122968D01*
X138034Y122874D01*
X138036Y122780D01*
X138034Y122686D01*
X138028Y122592D01*
X138019Y122499D01*
X138005Y122406D01*
X137988Y122314D01*
X137966Y122222D01*
X137942Y122132D01*
X137913Y122042D01*
X137881Y121954D01*
X137845Y121867D01*
X137805Y121782D01*
X137762Y121699D01*
X137716Y121617D01*
X137666Y121537D01*
X137613Y121460D01*
X137557Y121385D01*
X137498Y121312D01*
X137436Y121241D01*
X137371Y121173D01*
X137303Y121108D01*
X137232Y121046D01*
X137159Y120987D01*
X137084Y120931D01*
X137007Y120878D01*
X136927Y120828D01*
X136845Y120782D01*
X136762Y120739D01*
X136677Y120699D01*
X136590Y120663D01*
X136502Y120631D01*
X136412Y120602D01*
X136322Y120578D01*
X136230Y120556D01*
X136138Y120539D01*
X136045Y120525D01*
X135952Y120516D01*
X135858Y120510D01*
X135764Y120508D01*
X132843Y120508D01*
X132843Y126350D01*
X132845Y126437D01*
X132851Y126525D01*
X132861Y126611D01*
X132874Y126698D01*
X132892Y126783D01*
X132913Y126868D01*
X132938Y126952D01*
X132967Y127034D01*
X133000Y127115D01*
X133036Y127195D01*
X133075Y127273D01*
X133119Y127349D01*
X133165Y127423D01*
X133215Y127494D01*
X133268Y127564D01*
X133324Y127631D01*
X133383Y127696D01*
X133445Y127757D01*
X133509Y127816D01*
X133576Y127872D01*
X133646Y127925D01*
X133717Y127975D01*
X133791Y128021D01*
X133867Y128065D01*
X133945Y128104D01*
X134025Y128140D01*
X134106Y128173D01*
X134188Y128202D01*
X134272Y128227D01*
X134357Y128248D01*
X134442Y128266D01*
X134529Y128279D01*
X134616Y128289D01*
X134703Y128295D01*
X134790Y128297D01*
X137387Y128297D01*
X125729Y120508D02*
X123133Y120508D01*
X125729Y120508D02*
X125816Y120510D01*
X125904Y120516D01*
X125990Y120526D01*
X126077Y120539D01*
X126162Y120557D01*
X126247Y120578D01*
X126331Y120603D01*
X126413Y120632D01*
X126494Y120665D01*
X126574Y120701D01*
X126652Y120740D01*
X126728Y120784D01*
X126802Y120830D01*
X126873Y120880D01*
X126943Y120933D01*
X127010Y120989D01*
X127074Y121048D01*
X127136Y121110D01*
X127195Y121174D01*
X127251Y121241D01*
X127304Y121311D01*
X127354Y121382D01*
X127400Y121456D01*
X127444Y121532D01*
X127483Y121610D01*
X127519Y121690D01*
X127552Y121771D01*
X127581Y121853D01*
X127606Y121937D01*
X127627Y122022D01*
X127645Y122107D01*
X127658Y122194D01*
X127668Y122280D01*
X127674Y122368D01*
X127676Y122455D01*
X127677Y122455D02*
X127677Y126350D01*
X127676Y126350D02*
X127674Y126437D01*
X127668Y126525D01*
X127658Y126611D01*
X127645Y126698D01*
X127627Y126783D01*
X127606Y126868D01*
X127581Y126952D01*
X127552Y127034D01*
X127519Y127115D01*
X127483Y127195D01*
X127444Y127273D01*
X127400Y127349D01*
X127354Y127423D01*
X127304Y127494D01*
X127251Y127564D01*
X127195Y127631D01*
X127136Y127695D01*
X127074Y127757D01*
X127010Y127816D01*
X126943Y127872D01*
X126873Y127925D01*
X126802Y127975D01*
X126728Y128021D01*
X126652Y128065D01*
X126574Y128104D01*
X126494Y128140D01*
X126413Y128173D01*
X126331Y128202D01*
X126247Y128227D01*
X126162Y128248D01*
X126077Y128266D01*
X125990Y128279D01*
X125904Y128289D01*
X125816Y128295D01*
X125729Y128297D01*
X123133Y128297D01*
X118546Y132192D02*
X118546Y120508D01*
X118546Y128297D02*
X115301Y128297D01*
X115214Y128295D01*
X115126Y128289D01*
X115040Y128279D01*
X114953Y128266D01*
X114868Y128248D01*
X114783Y128227D01*
X114699Y128202D01*
X114617Y128173D01*
X114536Y128140D01*
X114456Y128104D01*
X114378Y128065D01*
X114302Y128021D01*
X114228Y127975D01*
X114157Y127925D01*
X114087Y127872D01*
X114020Y127816D01*
X113956Y127757D01*
X113894Y127696D01*
X113835Y127631D01*
X113779Y127564D01*
X113726Y127494D01*
X113676Y127423D01*
X113630Y127349D01*
X113587Y127273D01*
X113547Y127195D01*
X113511Y127115D01*
X113478Y127034D01*
X113449Y126952D01*
X113424Y126868D01*
X113403Y126783D01*
X113385Y126698D01*
X113372Y126611D01*
X113362Y126525D01*
X113356Y126437D01*
X113354Y126350D01*
X113353Y126350D02*
X113353Y120508D01*
X108259Y123104D02*
X108259Y125701D01*
X108257Y125802D01*
X108251Y125902D01*
X108241Y126002D01*
X108228Y126102D01*
X108210Y126201D01*
X108189Y126300D01*
X108164Y126397D01*
X108135Y126494D01*
X108102Y126589D01*
X108066Y126683D01*
X108026Y126775D01*
X107983Y126866D01*
X107936Y126955D01*
X107886Y127042D01*
X107832Y127128D01*
X107775Y127211D01*
X107715Y127291D01*
X107652Y127370D01*
X107585Y127446D01*
X107516Y127519D01*
X107444Y127589D01*
X107370Y127657D01*
X107293Y127722D01*
X107213Y127783D01*
X107131Y127842D01*
X107047Y127897D01*
X106961Y127949D01*
X106873Y127998D01*
X106783Y128043D01*
X106691Y128085D01*
X106598Y128123D01*
X106503Y128157D01*
X106408Y128188D01*
X106311Y128215D01*
X106213Y128238D01*
X106114Y128258D01*
X106014Y128273D01*
X105914Y128285D01*
X105814Y128293D01*
X105713Y128297D01*
X105613Y128297D01*
X105512Y128293D01*
X105412Y128285D01*
X105312Y128273D01*
X105212Y128258D01*
X105113Y128238D01*
X105015Y128215D01*
X104918Y128188D01*
X104823Y128157D01*
X104728Y128123D01*
X104635Y128085D01*
X104543Y128043D01*
X104453Y127998D01*
X104365Y127949D01*
X104279Y127897D01*
X104195Y127842D01*
X104113Y127783D01*
X104033Y127722D01*
X103956Y127657D01*
X103882Y127589D01*
X103810Y127519D01*
X103741Y127446D01*
X103674Y127370D01*
X103611Y127291D01*
X103551Y127211D01*
X103494Y127128D01*
X103440Y127042D01*
X103390Y126955D01*
X103343Y126866D01*
X103300Y126775D01*
X103260Y126683D01*
X103224Y126589D01*
X103191Y126494D01*
X103162Y126397D01*
X103137Y126300D01*
X103116Y126201D01*
X103098Y126102D01*
X103085Y126002D01*
X103075Y125902D01*
X103069Y125802D01*
X103067Y125701D01*
X103066Y125701D02*
X103066Y123104D01*
X103067Y123104D02*
X103069Y123003D01*
X103075Y122903D01*
X103085Y122803D01*
X103098Y122703D01*
X103116Y122604D01*
X103137Y122505D01*
X103162Y122408D01*
X103191Y122311D01*
X103224Y122216D01*
X103260Y122122D01*
X103300Y122030D01*
X103343Y121939D01*
X103390Y121850D01*
X103440Y121763D01*
X103494Y121677D01*
X103551Y121594D01*
X103611Y121514D01*
X103674Y121435D01*
X103741Y121359D01*
X103810Y121286D01*
X103882Y121216D01*
X103956Y121148D01*
X104033Y121083D01*
X104113Y121022D01*
X104195Y120963D01*
X104279Y120908D01*
X104365Y120856D01*
X104453Y120807D01*
X104543Y120762D01*
X104635Y120720D01*
X104728Y120682D01*
X104823Y120648D01*
X104918Y120617D01*
X105015Y120590D01*
X105113Y120567D01*
X105212Y120547D01*
X105312Y120532D01*
X105412Y120520D01*
X105512Y120512D01*
X105613Y120508D01*
X105713Y120508D01*
X105814Y120512D01*
X105914Y120520D01*
X106014Y120532D01*
X106114Y120547D01*
X106213Y120567D01*
X106311Y120590D01*
X106408Y120617D01*
X106503Y120648D01*
X106598Y120682D01*
X106691Y120720D01*
X106783Y120762D01*
X106873Y120807D01*
X106961Y120856D01*
X107047Y120908D01*
X107131Y120963D01*
X107213Y121022D01*
X107293Y121083D01*
X107370Y121148D01*
X107444Y121216D01*
X107516Y121286D01*
X107585Y121359D01*
X107652Y121435D01*
X107715Y121514D01*
X107775Y121594D01*
X107832Y121677D01*
X107886Y121763D01*
X107936Y121850D01*
X107983Y121939D01*
X108026Y122030D01*
X108066Y122122D01*
X108102Y122216D01*
X108135Y122311D01*
X108164Y122408D01*
X108189Y122505D01*
X108210Y122604D01*
X108228Y122703D01*
X108241Y122803D01*
X108251Y122903D01*
X108257Y123003D01*
X108259Y123104D01*
D14*
X342500Y137500D03*
D13*
X209492Y112192D02*
X209492Y100508D01*
X209492Y108297D02*
X206246Y108297D01*
X206159Y108295D01*
X206071Y108289D01*
X205985Y108279D01*
X205898Y108266D01*
X205813Y108248D01*
X205728Y108227D01*
X205644Y108202D01*
X205562Y108173D01*
X205481Y108140D01*
X205401Y108104D01*
X205323Y108065D01*
X205247Y108021D01*
X205173Y107975D01*
X205102Y107925D01*
X205032Y107872D01*
X204965Y107816D01*
X204901Y107757D01*
X204839Y107696D01*
X204780Y107631D01*
X204724Y107564D01*
X204671Y107494D01*
X204621Y107423D01*
X204575Y107349D01*
X204532Y107273D01*
X204492Y107195D01*
X204456Y107115D01*
X204423Y107034D01*
X204394Y106952D01*
X204369Y106868D01*
X204348Y106783D01*
X204330Y106698D01*
X204317Y106611D01*
X204307Y106525D01*
X204301Y106437D01*
X204299Y106350D01*
X204299Y100508D01*
X200172Y108297D02*
X196278Y108297D01*
X198874Y112192D02*
X198874Y102455D01*
X198872Y102368D01*
X198866Y102280D01*
X198856Y102194D01*
X198843Y102107D01*
X198825Y102022D01*
X198804Y101937D01*
X198779Y101853D01*
X198750Y101771D01*
X198717Y101690D01*
X198681Y101610D01*
X198642Y101532D01*
X198598Y101456D01*
X198552Y101382D01*
X198502Y101311D01*
X198449Y101241D01*
X198393Y101174D01*
X198334Y101110D01*
X198272Y101048D01*
X198208Y100989D01*
X198141Y100933D01*
X198071Y100880D01*
X198000Y100830D01*
X197926Y100784D01*
X197850Y100740D01*
X197772Y100701D01*
X197692Y100665D01*
X197611Y100632D01*
X197529Y100603D01*
X197445Y100578D01*
X197360Y100557D01*
X197275Y100539D01*
X197188Y100526D01*
X197102Y100516D01*
X197014Y100510D01*
X196927Y100508D01*
X196278Y100508D01*
X192933Y108297D02*
X189039Y108297D01*
X191635Y112192D02*
X191635Y102455D01*
X191633Y102368D01*
X191627Y102280D01*
X191617Y102194D01*
X191604Y102107D01*
X191586Y102022D01*
X191565Y101937D01*
X191540Y101853D01*
X191511Y101771D01*
X191478Y101690D01*
X191442Y101610D01*
X191403Y101532D01*
X191359Y101456D01*
X191313Y101382D01*
X191263Y101311D01*
X191210Y101241D01*
X191154Y101174D01*
X191095Y101110D01*
X191033Y101048D01*
X190969Y100989D01*
X190902Y100933D01*
X190832Y100880D01*
X190761Y100830D01*
X190687Y100784D01*
X190611Y100740D01*
X190533Y100701D01*
X190453Y100665D01*
X190372Y100632D01*
X190290Y100603D01*
X190206Y100578D01*
X190121Y100557D01*
X190036Y100539D01*
X189949Y100526D01*
X189863Y100516D01*
X189775Y100510D01*
X189688Y100508D01*
X189039Y100508D01*
X184287Y96613D02*
X184287Y108297D01*
X181042Y108297D01*
X180955Y108295D01*
X180867Y108289D01*
X180781Y108279D01*
X180694Y108266D01*
X180609Y108248D01*
X180524Y108227D01*
X180440Y108202D01*
X180358Y108173D01*
X180277Y108140D01*
X180197Y108104D01*
X180119Y108065D01*
X180043Y108021D01*
X179969Y107975D01*
X179898Y107925D01*
X179828Y107872D01*
X179761Y107816D01*
X179697Y107757D01*
X179635Y107696D01*
X179576Y107631D01*
X179520Y107564D01*
X179467Y107494D01*
X179417Y107423D01*
X179371Y107349D01*
X179328Y107273D01*
X179288Y107195D01*
X179252Y107115D01*
X179219Y107034D01*
X179190Y106952D01*
X179165Y106868D01*
X179144Y106783D01*
X179126Y106698D01*
X179113Y106611D01*
X179103Y106525D01*
X179097Y106437D01*
X179095Y106350D01*
X179094Y106350D02*
X179094Y102455D01*
X179095Y102455D02*
X179097Y102368D01*
X179103Y102280D01*
X179113Y102194D01*
X179126Y102107D01*
X179144Y102022D01*
X179165Y101937D01*
X179190Y101853D01*
X179219Y101771D01*
X179252Y101690D01*
X179288Y101610D01*
X179327Y101532D01*
X179371Y101456D01*
X179417Y101382D01*
X179467Y101311D01*
X179520Y101241D01*
X179576Y101174D01*
X179635Y101109D01*
X179697Y101048D01*
X179761Y100989D01*
X179828Y100933D01*
X179898Y100880D01*
X179969Y100830D01*
X180043Y100784D01*
X180119Y100740D01*
X180197Y100701D01*
X180277Y100665D01*
X180358Y100632D01*
X180440Y100603D01*
X180524Y100578D01*
X180609Y100557D01*
X180694Y100539D01*
X180781Y100526D01*
X180868Y100516D01*
X180955Y100510D01*
X181042Y100508D01*
X184287Y100508D01*
X173466Y105052D02*
X170221Y103754D01*
X173466Y105051D02*
X173541Y105084D01*
X173615Y105120D01*
X173687Y105159D01*
X173757Y105202D01*
X173824Y105248D01*
X173890Y105298D01*
X173952Y105350D01*
X174013Y105406D01*
X174070Y105464D01*
X174125Y105525D01*
X174176Y105589D01*
X174224Y105655D01*
X174269Y105724D01*
X174311Y105794D01*
X174349Y105867D01*
X174384Y105941D01*
X174415Y106017D01*
X174442Y106094D01*
X174465Y106173D01*
X174485Y106252D01*
X174500Y106333D01*
X174512Y106414D01*
X174520Y106496D01*
X174524Y106577D01*
X174523Y106659D01*
X174519Y106741D01*
X174511Y106823D01*
X174499Y106904D01*
X174483Y106984D01*
X174463Y107064D01*
X174439Y107142D01*
X174411Y107219D01*
X174380Y107295D01*
X174345Y107369D01*
X174307Y107441D01*
X174265Y107512D01*
X174219Y107580D01*
X174171Y107646D01*
X174119Y107709D01*
X174064Y107770D01*
X174006Y107828D01*
X173946Y107884D01*
X173883Y107936D01*
X173817Y107985D01*
X173749Y108031D01*
X173679Y108073D01*
X173607Y108113D01*
X173533Y108148D01*
X173458Y108180D01*
X173381Y108208D01*
X173303Y108232D01*
X173223Y108253D01*
X173143Y108270D01*
X173062Y108282D01*
X172981Y108291D01*
X172899Y108296D01*
X172817Y108297D01*
X172818Y108297D02*
X172641Y108293D01*
X172464Y108284D01*
X172287Y108270D01*
X172110Y108253D01*
X171935Y108231D01*
X171759Y108206D01*
X171585Y108175D01*
X171411Y108141D01*
X171238Y108103D01*
X171066Y108060D01*
X170895Y108013D01*
X170725Y107963D01*
X170556Y107908D01*
X170389Y107849D01*
X170224Y107786D01*
X170059Y107719D01*
X169897Y107648D01*
X170221Y103754D02*
X170146Y103721D01*
X170072Y103685D01*
X170000Y103646D01*
X169930Y103603D01*
X169863Y103557D01*
X169797Y103507D01*
X169735Y103455D01*
X169674Y103399D01*
X169617Y103341D01*
X169562Y103280D01*
X169511Y103216D01*
X169463Y103150D01*
X169418Y103081D01*
X169376Y103011D01*
X169338Y102938D01*
X169303Y102864D01*
X169272Y102788D01*
X169245Y102711D01*
X169222Y102632D01*
X169202Y102553D01*
X169187Y102472D01*
X169175Y102391D01*
X169167Y102309D01*
X169163Y102228D01*
X169164Y102146D01*
X169168Y102064D01*
X169176Y101982D01*
X169188Y101901D01*
X169204Y101821D01*
X169224Y101741D01*
X169248Y101663D01*
X169276Y101586D01*
X169307Y101510D01*
X169342Y101436D01*
X169380Y101364D01*
X169422Y101293D01*
X169468Y101225D01*
X169516Y101159D01*
X169568Y101096D01*
X169623Y101035D01*
X169681Y100977D01*
X169741Y100921D01*
X169804Y100869D01*
X169870Y100820D01*
X169938Y100774D01*
X170008Y100732D01*
X170080Y100692D01*
X170154Y100657D01*
X170229Y100625D01*
X170306Y100597D01*
X170384Y100573D01*
X170464Y100552D01*
X170544Y100535D01*
X170625Y100523D01*
X170706Y100514D01*
X170788Y100509D01*
X170870Y100508D01*
X171130Y100515D01*
X171390Y100528D01*
X171650Y100547D01*
X171909Y100572D01*
X172168Y100604D01*
X172425Y100641D01*
X172682Y100685D01*
X172938Y100734D01*
X173192Y100790D01*
X173445Y100851D01*
X173696Y100919D01*
X173946Y100993D01*
X174194Y101072D01*
X174440Y101157D01*
X164548Y101482D02*
X164548Y102131D01*
X163899Y102131D01*
X163899Y101482D01*
X164548Y101482D01*
X164548Y106675D02*
X164548Y107324D01*
X163899Y107324D01*
X163899Y106675D01*
X164548Y106675D01*
X159581Y99210D02*
X154388Y113490D01*
X145244Y113490D02*
X150437Y99210D01*
X138965Y100508D02*
X135719Y100508D01*
X138965Y100508D02*
X139052Y100510D01*
X139140Y100516D01*
X139226Y100526D01*
X139313Y100539D01*
X139398Y100557D01*
X139483Y100578D01*
X139567Y100603D01*
X139649Y100632D01*
X139730Y100665D01*
X139810Y100701D01*
X139888Y100740D01*
X139964Y100784D01*
X140038Y100830D01*
X140109Y100880D01*
X140179Y100933D01*
X140246Y100989D01*
X140310Y101048D01*
X140372Y101110D01*
X140431Y101174D01*
X140487Y101241D01*
X140540Y101311D01*
X140590Y101382D01*
X140636Y101456D01*
X140680Y101532D01*
X140719Y101610D01*
X140755Y101690D01*
X140788Y101771D01*
X140817Y101853D01*
X140842Y101937D01*
X140863Y102022D01*
X140881Y102107D01*
X140894Y102194D01*
X140904Y102280D01*
X140910Y102368D01*
X140912Y102455D01*
X140912Y105701D01*
X140910Y105802D01*
X140904Y105902D01*
X140894Y106002D01*
X140881Y106102D01*
X140863Y106201D01*
X140842Y106300D01*
X140817Y106397D01*
X140788Y106494D01*
X140755Y106589D01*
X140719Y106683D01*
X140679Y106775D01*
X140636Y106866D01*
X140589Y106955D01*
X140539Y107042D01*
X140485Y107128D01*
X140428Y107211D01*
X140368Y107291D01*
X140305Y107370D01*
X140238Y107446D01*
X140169Y107519D01*
X140097Y107589D01*
X140023Y107657D01*
X139946Y107722D01*
X139866Y107783D01*
X139784Y107842D01*
X139700Y107897D01*
X139614Y107949D01*
X139526Y107998D01*
X139436Y108043D01*
X139344Y108085D01*
X139251Y108123D01*
X139156Y108157D01*
X139061Y108188D01*
X138964Y108215D01*
X138866Y108238D01*
X138767Y108258D01*
X138667Y108273D01*
X138567Y108285D01*
X138467Y108293D01*
X138366Y108297D01*
X138266Y108297D01*
X138165Y108293D01*
X138065Y108285D01*
X137965Y108273D01*
X137865Y108258D01*
X137766Y108238D01*
X137668Y108215D01*
X137571Y108188D01*
X137476Y108157D01*
X137381Y108123D01*
X137288Y108085D01*
X137196Y108043D01*
X137106Y107998D01*
X137018Y107949D01*
X136932Y107897D01*
X136848Y107842D01*
X136766Y107783D01*
X136686Y107722D01*
X136609Y107657D01*
X136535Y107589D01*
X136463Y107519D01*
X136394Y107446D01*
X136327Y107370D01*
X136264Y107291D01*
X136204Y107211D01*
X136147Y107128D01*
X136093Y107042D01*
X136043Y106955D01*
X135996Y106866D01*
X135953Y106775D01*
X135913Y106683D01*
X135877Y106589D01*
X135844Y106494D01*
X135815Y106397D01*
X135790Y106300D01*
X135769Y106201D01*
X135751Y106102D01*
X135738Y106002D01*
X135728Y105902D01*
X135722Y105802D01*
X135720Y105701D01*
X135719Y105701D02*
X135719Y104403D01*
X140912Y104403D01*
X130857Y102455D02*
X130857Y112192D01*
X130856Y102455D02*
X130854Y102368D01*
X130848Y102280D01*
X130838Y102194D01*
X130825Y102107D01*
X130807Y102022D01*
X130786Y101937D01*
X130761Y101853D01*
X130732Y101771D01*
X130699Y101690D01*
X130663Y101610D01*
X130624Y101532D01*
X130580Y101456D01*
X130534Y101382D01*
X130484Y101311D01*
X130431Y101241D01*
X130375Y101174D01*
X130316Y101110D01*
X130254Y101048D01*
X130190Y100989D01*
X130123Y100933D01*
X130053Y100880D01*
X129982Y100830D01*
X129908Y100784D01*
X129832Y100740D01*
X129754Y100701D01*
X129674Y100665D01*
X129593Y100632D01*
X129511Y100603D01*
X129427Y100578D01*
X129342Y100557D01*
X129257Y100539D01*
X129170Y100526D01*
X129084Y100516D01*
X128996Y100510D01*
X128909Y100508D01*
X122963Y100508D02*
X119717Y100508D01*
X122963Y100508D02*
X123050Y100510D01*
X123138Y100516D01*
X123224Y100526D01*
X123311Y100539D01*
X123396Y100557D01*
X123481Y100578D01*
X123565Y100603D01*
X123647Y100632D01*
X123728Y100665D01*
X123808Y100701D01*
X123886Y100740D01*
X123962Y100784D01*
X124036Y100830D01*
X124107Y100880D01*
X124177Y100933D01*
X124244Y100989D01*
X124308Y101048D01*
X124370Y101110D01*
X124429Y101174D01*
X124485Y101241D01*
X124538Y101311D01*
X124588Y101382D01*
X124634Y101456D01*
X124678Y101532D01*
X124717Y101610D01*
X124753Y101690D01*
X124786Y101771D01*
X124815Y101853D01*
X124840Y101937D01*
X124861Y102022D01*
X124879Y102107D01*
X124892Y102194D01*
X124902Y102280D01*
X124908Y102368D01*
X124910Y102455D01*
X124910Y105701D01*
X124908Y105802D01*
X124902Y105902D01*
X124892Y106002D01*
X124879Y106102D01*
X124861Y106201D01*
X124840Y106300D01*
X124815Y106397D01*
X124786Y106494D01*
X124753Y106589D01*
X124717Y106683D01*
X124677Y106775D01*
X124634Y106866D01*
X124587Y106955D01*
X124537Y107042D01*
X124483Y107128D01*
X124426Y107211D01*
X124366Y107291D01*
X124303Y107370D01*
X124236Y107446D01*
X124167Y107519D01*
X124095Y107589D01*
X124021Y107657D01*
X123944Y107722D01*
X123864Y107783D01*
X123782Y107842D01*
X123698Y107897D01*
X123612Y107949D01*
X123524Y107998D01*
X123434Y108043D01*
X123342Y108085D01*
X123249Y108123D01*
X123154Y108157D01*
X123059Y108188D01*
X122962Y108215D01*
X122864Y108238D01*
X122765Y108258D01*
X122665Y108273D01*
X122565Y108285D01*
X122465Y108293D01*
X122364Y108297D01*
X122264Y108297D01*
X122163Y108293D01*
X122063Y108285D01*
X121963Y108273D01*
X121863Y108258D01*
X121764Y108238D01*
X121666Y108215D01*
X121569Y108188D01*
X121474Y108157D01*
X121379Y108123D01*
X121286Y108085D01*
X121194Y108043D01*
X121104Y107998D01*
X121016Y107949D01*
X120930Y107897D01*
X120846Y107842D01*
X120764Y107783D01*
X120684Y107722D01*
X120607Y107657D01*
X120533Y107589D01*
X120461Y107519D01*
X120392Y107446D01*
X120325Y107370D01*
X120262Y107291D01*
X120202Y107211D01*
X120145Y107128D01*
X120091Y107042D01*
X120041Y106955D01*
X119994Y106866D01*
X119951Y106775D01*
X119911Y106683D01*
X119875Y106589D01*
X119842Y106494D01*
X119813Y106397D01*
X119788Y106300D01*
X119767Y106201D01*
X119749Y106102D01*
X119736Y106002D01*
X119726Y105902D01*
X119720Y105802D01*
X119718Y105701D01*
X119717Y105701D02*
X119717Y104403D01*
X124910Y104403D01*
X113044Y100508D02*
X110447Y100508D01*
X113044Y100508D02*
X113131Y100510D01*
X113219Y100516D01*
X113305Y100526D01*
X113392Y100539D01*
X113477Y100557D01*
X113562Y100578D01*
X113646Y100603D01*
X113728Y100632D01*
X113809Y100665D01*
X113889Y100701D01*
X113967Y100740D01*
X114043Y100784D01*
X114117Y100830D01*
X114188Y100880D01*
X114258Y100933D01*
X114325Y100989D01*
X114389Y101048D01*
X114451Y101110D01*
X114510Y101174D01*
X114566Y101241D01*
X114619Y101311D01*
X114669Y101382D01*
X114715Y101456D01*
X114759Y101532D01*
X114798Y101610D01*
X114834Y101690D01*
X114867Y101771D01*
X114896Y101853D01*
X114921Y101937D01*
X114942Y102022D01*
X114960Y102107D01*
X114973Y102194D01*
X114983Y102280D01*
X114989Y102368D01*
X114991Y102455D01*
X114991Y106350D01*
X114989Y106437D01*
X114983Y106525D01*
X114973Y106611D01*
X114960Y106698D01*
X114942Y106783D01*
X114921Y106868D01*
X114896Y106952D01*
X114867Y107034D01*
X114834Y107115D01*
X114798Y107195D01*
X114759Y107273D01*
X114715Y107349D01*
X114669Y107423D01*
X114619Y107494D01*
X114566Y107564D01*
X114510Y107631D01*
X114451Y107695D01*
X114389Y107757D01*
X114325Y107816D01*
X114258Y107872D01*
X114188Y107925D01*
X114117Y107975D01*
X114043Y108021D01*
X113967Y108065D01*
X113889Y108104D01*
X113809Y108140D01*
X113728Y108173D01*
X113646Y108202D01*
X113562Y108227D01*
X113477Y108248D01*
X113392Y108266D01*
X113305Y108279D01*
X113219Y108289D01*
X113131Y108295D01*
X113044Y108297D01*
X110447Y108297D01*
X106312Y108297D02*
X106312Y100508D01*
X106636Y111543D02*
X106636Y112192D01*
X105987Y112192D01*
X105987Y111543D01*
X106636Y111543D01*
X101288Y108297D02*
X101288Y100508D01*
X101288Y108297D02*
X98043Y108297D01*
X97956Y108295D01*
X97868Y108289D01*
X97782Y108279D01*
X97695Y108266D01*
X97610Y108248D01*
X97525Y108227D01*
X97441Y108202D01*
X97359Y108173D01*
X97278Y108140D01*
X97198Y108104D01*
X97120Y108065D01*
X97044Y108021D01*
X96970Y107975D01*
X96899Y107925D01*
X96829Y107872D01*
X96762Y107816D01*
X96698Y107757D01*
X96636Y107696D01*
X96577Y107631D01*
X96521Y107564D01*
X96468Y107494D01*
X96418Y107423D01*
X96372Y107349D01*
X96329Y107273D01*
X96289Y107195D01*
X96253Y107115D01*
X96220Y107034D01*
X96191Y106952D01*
X96166Y106868D01*
X96145Y106783D01*
X96127Y106698D01*
X96114Y106611D01*
X96104Y106525D01*
X96098Y106437D01*
X96096Y106350D01*
X96095Y106350D02*
X96095Y100508D01*
X89041Y100508D02*
X86444Y100508D01*
X89041Y100508D02*
X89128Y100510D01*
X89216Y100516D01*
X89302Y100526D01*
X89389Y100539D01*
X89474Y100557D01*
X89559Y100578D01*
X89643Y100603D01*
X89725Y100632D01*
X89806Y100665D01*
X89886Y100701D01*
X89964Y100740D01*
X90040Y100784D01*
X90114Y100830D01*
X90185Y100880D01*
X90255Y100933D01*
X90322Y100989D01*
X90386Y101048D01*
X90448Y101110D01*
X90507Y101174D01*
X90563Y101241D01*
X90616Y101311D01*
X90666Y101382D01*
X90712Y101456D01*
X90756Y101532D01*
X90795Y101610D01*
X90831Y101690D01*
X90864Y101771D01*
X90893Y101853D01*
X90918Y101937D01*
X90939Y102022D01*
X90957Y102107D01*
X90970Y102194D01*
X90980Y102280D01*
X90986Y102368D01*
X90988Y102455D01*
X90988Y106350D01*
X90986Y106437D01*
X90980Y106525D01*
X90970Y106611D01*
X90957Y106698D01*
X90939Y106783D01*
X90918Y106868D01*
X90893Y106952D01*
X90864Y107034D01*
X90831Y107115D01*
X90795Y107195D01*
X90756Y107273D01*
X90712Y107349D01*
X90666Y107423D01*
X90616Y107494D01*
X90563Y107564D01*
X90507Y107631D01*
X90448Y107695D01*
X90386Y107757D01*
X90322Y107816D01*
X90255Y107872D01*
X90185Y107925D01*
X90114Y107975D01*
X90040Y108021D01*
X89964Y108065D01*
X89886Y108104D01*
X89806Y108140D01*
X89725Y108173D01*
X89643Y108202D01*
X89559Y108227D01*
X89474Y108248D01*
X89389Y108266D01*
X89302Y108279D01*
X89216Y108289D01*
X89128Y108295D01*
X89041Y108297D01*
X86444Y108297D01*
X81265Y105052D02*
X78019Y103754D01*
X81265Y105051D02*
X81340Y105084D01*
X81414Y105120D01*
X81486Y105159D01*
X81556Y105202D01*
X81623Y105248D01*
X81689Y105298D01*
X81751Y105350D01*
X81812Y105406D01*
X81869Y105464D01*
X81924Y105525D01*
X81975Y105589D01*
X82023Y105655D01*
X82068Y105724D01*
X82110Y105794D01*
X82148Y105867D01*
X82183Y105941D01*
X82214Y106017D01*
X82241Y106094D01*
X82264Y106173D01*
X82284Y106252D01*
X82299Y106333D01*
X82311Y106414D01*
X82319Y106496D01*
X82323Y106577D01*
X82322Y106659D01*
X82318Y106741D01*
X82310Y106823D01*
X82298Y106904D01*
X82282Y106984D01*
X82262Y107064D01*
X82238Y107142D01*
X82210Y107219D01*
X82179Y107295D01*
X82144Y107369D01*
X82106Y107441D01*
X82064Y107512D01*
X82018Y107580D01*
X81970Y107646D01*
X81918Y107709D01*
X81863Y107770D01*
X81805Y107828D01*
X81745Y107884D01*
X81682Y107936D01*
X81616Y107985D01*
X81548Y108031D01*
X81478Y108073D01*
X81406Y108113D01*
X81332Y108148D01*
X81257Y108180D01*
X81180Y108208D01*
X81102Y108232D01*
X81022Y108253D01*
X80942Y108270D01*
X80861Y108282D01*
X80780Y108291D01*
X80698Y108296D01*
X80616Y108297D01*
X80439Y108293D01*
X80262Y108284D01*
X80085Y108270D01*
X79908Y108253D01*
X79733Y108231D01*
X79557Y108206D01*
X79383Y108175D01*
X79209Y108141D01*
X79036Y108103D01*
X78864Y108060D01*
X78693Y108013D01*
X78523Y107963D01*
X78354Y107908D01*
X78187Y107849D01*
X78022Y107786D01*
X77857Y107719D01*
X77695Y107648D01*
X78019Y103754D02*
X77944Y103721D01*
X77870Y103685D01*
X77798Y103646D01*
X77728Y103603D01*
X77661Y103557D01*
X77595Y103507D01*
X77533Y103455D01*
X77472Y103399D01*
X77415Y103341D01*
X77360Y103280D01*
X77309Y103216D01*
X77261Y103150D01*
X77216Y103081D01*
X77174Y103011D01*
X77136Y102938D01*
X77101Y102864D01*
X77070Y102788D01*
X77043Y102711D01*
X77020Y102632D01*
X77000Y102553D01*
X76985Y102472D01*
X76973Y102391D01*
X76965Y102309D01*
X76961Y102228D01*
X76962Y102146D01*
X76966Y102064D01*
X76974Y101982D01*
X76986Y101901D01*
X77002Y101821D01*
X77022Y101741D01*
X77046Y101663D01*
X77074Y101586D01*
X77105Y101510D01*
X77140Y101436D01*
X77178Y101364D01*
X77220Y101293D01*
X77266Y101225D01*
X77314Y101159D01*
X77366Y101096D01*
X77421Y101035D01*
X77479Y100977D01*
X77539Y100921D01*
X77602Y100869D01*
X77668Y100820D01*
X77736Y100774D01*
X77806Y100732D01*
X77878Y100692D01*
X77952Y100657D01*
X78027Y100625D01*
X78104Y100597D01*
X78182Y100573D01*
X78262Y100552D01*
X78342Y100535D01*
X78423Y100523D01*
X78504Y100514D01*
X78586Y100509D01*
X78668Y100508D01*
X78928Y100515D01*
X79188Y100528D01*
X79448Y100547D01*
X79707Y100572D01*
X79966Y100604D01*
X80223Y100641D01*
X80480Y100685D01*
X80736Y100734D01*
X80990Y100790D01*
X81243Y100851D01*
X81494Y100919D01*
X81744Y100993D01*
X81992Y101072D01*
X82238Y101157D01*
X73300Y108297D02*
X69405Y108297D01*
X72001Y112192D02*
X72001Y102455D01*
X71999Y102368D01*
X71993Y102280D01*
X71983Y102194D01*
X71970Y102107D01*
X71952Y102022D01*
X71931Y101937D01*
X71906Y101853D01*
X71877Y101771D01*
X71844Y101690D01*
X71808Y101610D01*
X71769Y101532D01*
X71725Y101456D01*
X71679Y101382D01*
X71629Y101311D01*
X71576Y101241D01*
X71520Y101174D01*
X71461Y101110D01*
X71399Y101048D01*
X71335Y100989D01*
X71268Y100933D01*
X71198Y100880D01*
X71127Y100830D01*
X71053Y100784D01*
X70977Y100740D01*
X70899Y100701D01*
X70819Y100665D01*
X70738Y100632D01*
X70656Y100603D01*
X70572Y100578D01*
X70487Y100557D01*
X70402Y100539D01*
X70315Y100526D01*
X70229Y100516D01*
X70141Y100510D01*
X70054Y100508D01*
X69405Y100508D01*
X65093Y103104D02*
X65093Y105701D01*
X65091Y105802D01*
X65085Y105902D01*
X65075Y106002D01*
X65062Y106102D01*
X65044Y106201D01*
X65023Y106300D01*
X64998Y106397D01*
X64969Y106494D01*
X64936Y106589D01*
X64900Y106683D01*
X64860Y106775D01*
X64817Y106866D01*
X64770Y106955D01*
X64720Y107042D01*
X64666Y107128D01*
X64609Y107211D01*
X64549Y107291D01*
X64486Y107370D01*
X64419Y107446D01*
X64350Y107519D01*
X64278Y107589D01*
X64204Y107657D01*
X64127Y107722D01*
X64047Y107783D01*
X63965Y107842D01*
X63881Y107897D01*
X63795Y107949D01*
X63707Y107998D01*
X63617Y108043D01*
X63525Y108085D01*
X63432Y108123D01*
X63337Y108157D01*
X63242Y108188D01*
X63145Y108215D01*
X63047Y108238D01*
X62948Y108258D01*
X62848Y108273D01*
X62748Y108285D01*
X62648Y108293D01*
X62547Y108297D01*
X62447Y108297D01*
X62346Y108293D01*
X62246Y108285D01*
X62146Y108273D01*
X62046Y108258D01*
X61947Y108238D01*
X61849Y108215D01*
X61752Y108188D01*
X61657Y108157D01*
X61562Y108123D01*
X61469Y108085D01*
X61377Y108043D01*
X61287Y107998D01*
X61199Y107949D01*
X61113Y107897D01*
X61029Y107842D01*
X60947Y107783D01*
X60867Y107722D01*
X60790Y107657D01*
X60716Y107589D01*
X60644Y107519D01*
X60575Y107446D01*
X60508Y107370D01*
X60445Y107291D01*
X60385Y107211D01*
X60328Y107128D01*
X60274Y107042D01*
X60224Y106955D01*
X60177Y106866D01*
X60134Y106775D01*
X60094Y106683D01*
X60058Y106589D01*
X60025Y106494D01*
X59996Y106397D01*
X59971Y106300D01*
X59950Y106201D01*
X59932Y106102D01*
X59919Y106002D01*
X59909Y105902D01*
X59903Y105802D01*
X59901Y105701D01*
X59900Y105701D02*
X59900Y103104D01*
X59901Y103104D02*
X59903Y103003D01*
X59909Y102903D01*
X59919Y102803D01*
X59932Y102703D01*
X59950Y102604D01*
X59971Y102505D01*
X59996Y102408D01*
X60025Y102311D01*
X60058Y102216D01*
X60094Y102122D01*
X60134Y102030D01*
X60177Y101939D01*
X60224Y101850D01*
X60274Y101763D01*
X60328Y101677D01*
X60385Y101594D01*
X60445Y101514D01*
X60508Y101435D01*
X60575Y101359D01*
X60644Y101286D01*
X60716Y101216D01*
X60790Y101148D01*
X60867Y101083D01*
X60947Y101022D01*
X61029Y100963D01*
X61113Y100908D01*
X61199Y100856D01*
X61287Y100807D01*
X61377Y100762D01*
X61469Y100720D01*
X61562Y100682D01*
X61657Y100648D01*
X61752Y100617D01*
X61849Y100590D01*
X61947Y100567D01*
X62046Y100547D01*
X62146Y100532D01*
X62246Y100520D01*
X62346Y100512D01*
X62447Y100508D01*
X62547Y100508D01*
X62648Y100512D01*
X62748Y100520D01*
X62848Y100532D01*
X62948Y100547D01*
X63047Y100567D01*
X63145Y100590D01*
X63242Y100617D01*
X63337Y100648D01*
X63432Y100682D01*
X63525Y100720D01*
X63617Y100762D01*
X63707Y100807D01*
X63795Y100856D01*
X63881Y100908D01*
X63965Y100963D01*
X64047Y101022D01*
X64127Y101083D01*
X64204Y101148D01*
X64278Y101216D01*
X64350Y101286D01*
X64419Y101359D01*
X64486Y101435D01*
X64549Y101514D01*
X64609Y101594D01*
X64666Y101677D01*
X64720Y101763D01*
X64770Y101850D01*
X64817Y101939D01*
X64860Y102030D01*
X64900Y102122D01*
X64936Y102216D01*
X64969Y102311D01*
X64998Y102408D01*
X65023Y102505D01*
X65044Y102604D01*
X65062Y102703D01*
X65075Y102803D01*
X65085Y102903D01*
X65091Y103003D01*
X65093Y103104D01*
X54740Y100508D02*
X54740Y108297D01*
X50845Y108297D01*
X50845Y106999D01*
X45239Y100508D02*
X41993Y100508D01*
X45239Y100508D02*
X45326Y100510D01*
X45414Y100516D01*
X45500Y100526D01*
X45587Y100539D01*
X45672Y100557D01*
X45757Y100578D01*
X45841Y100603D01*
X45923Y100632D01*
X46004Y100665D01*
X46084Y100701D01*
X46162Y100740D01*
X46238Y100784D01*
X46312Y100830D01*
X46383Y100880D01*
X46453Y100933D01*
X46520Y100989D01*
X46584Y101048D01*
X46646Y101110D01*
X46705Y101174D01*
X46761Y101241D01*
X46814Y101311D01*
X46864Y101382D01*
X46910Y101456D01*
X46954Y101532D01*
X46993Y101610D01*
X47029Y101690D01*
X47062Y101771D01*
X47091Y101853D01*
X47116Y101937D01*
X47137Y102022D01*
X47155Y102107D01*
X47168Y102194D01*
X47178Y102280D01*
X47184Y102368D01*
X47186Y102455D01*
X47186Y105701D01*
X47184Y105802D01*
X47178Y105902D01*
X47168Y106002D01*
X47155Y106102D01*
X47137Y106201D01*
X47116Y106300D01*
X47091Y106397D01*
X47062Y106494D01*
X47029Y106589D01*
X46993Y106683D01*
X46953Y106775D01*
X46910Y106866D01*
X46863Y106955D01*
X46813Y107042D01*
X46759Y107128D01*
X46702Y107211D01*
X46642Y107291D01*
X46579Y107370D01*
X46512Y107446D01*
X46443Y107519D01*
X46371Y107589D01*
X46297Y107657D01*
X46220Y107722D01*
X46140Y107783D01*
X46058Y107842D01*
X45974Y107897D01*
X45888Y107949D01*
X45800Y107998D01*
X45710Y108043D01*
X45618Y108085D01*
X45525Y108123D01*
X45430Y108157D01*
X45335Y108188D01*
X45238Y108215D01*
X45140Y108238D01*
X45041Y108258D01*
X44941Y108273D01*
X44841Y108285D01*
X44741Y108293D01*
X44640Y108297D01*
X44540Y108297D01*
X44439Y108293D01*
X44339Y108285D01*
X44239Y108273D01*
X44139Y108258D01*
X44040Y108238D01*
X43942Y108215D01*
X43845Y108188D01*
X43750Y108157D01*
X43655Y108123D01*
X43562Y108085D01*
X43470Y108043D01*
X43380Y107998D01*
X43292Y107949D01*
X43206Y107897D01*
X43122Y107842D01*
X43040Y107783D01*
X42960Y107722D01*
X42883Y107657D01*
X42809Y107589D01*
X42737Y107519D01*
X42668Y107446D01*
X42601Y107370D01*
X42538Y107291D01*
X42478Y107211D01*
X42421Y107128D01*
X42367Y107042D01*
X42317Y106955D01*
X42270Y106866D01*
X42227Y106775D01*
X42187Y106683D01*
X42151Y106589D01*
X42118Y106494D01*
X42089Y106397D01*
X42064Y106300D01*
X42043Y106201D01*
X42025Y106102D01*
X42012Y106002D01*
X42002Y105902D01*
X41996Y105802D01*
X41994Y105701D01*
X41993Y105701D02*
X41993Y104403D01*
X47186Y104403D01*
X37675Y101157D02*
X37675Y100508D01*
X37675Y101157D02*
X37026Y101157D01*
X37026Y100508D01*
X37675Y100508D01*
X30748Y100508D02*
X28151Y100508D01*
X30748Y100508D02*
X30835Y100510D01*
X30923Y100516D01*
X31009Y100526D01*
X31096Y100539D01*
X31181Y100557D01*
X31266Y100578D01*
X31350Y100603D01*
X31432Y100632D01*
X31513Y100665D01*
X31593Y100701D01*
X31671Y100740D01*
X31747Y100784D01*
X31821Y100830D01*
X31892Y100880D01*
X31962Y100933D01*
X32029Y100989D01*
X32093Y101048D01*
X32155Y101110D01*
X32214Y101174D01*
X32270Y101241D01*
X32323Y101311D01*
X32373Y101382D01*
X32419Y101456D01*
X32463Y101532D01*
X32502Y101610D01*
X32538Y101690D01*
X32571Y101771D01*
X32600Y101853D01*
X32625Y101937D01*
X32646Y102022D01*
X32664Y102107D01*
X32677Y102194D01*
X32687Y102280D01*
X32693Y102368D01*
X32695Y102455D01*
X32695Y106350D01*
X32693Y106437D01*
X32687Y106525D01*
X32677Y106611D01*
X32664Y106698D01*
X32646Y106783D01*
X32625Y106868D01*
X32600Y106952D01*
X32571Y107034D01*
X32538Y107115D01*
X32502Y107195D01*
X32463Y107273D01*
X32419Y107349D01*
X32373Y107423D01*
X32323Y107494D01*
X32270Y107564D01*
X32214Y107631D01*
X32155Y107695D01*
X32093Y107757D01*
X32029Y107816D01*
X31962Y107872D01*
X31892Y107925D01*
X31821Y107975D01*
X31747Y108021D01*
X31671Y108065D01*
X31593Y108104D01*
X31513Y108140D01*
X31432Y108173D01*
X31350Y108202D01*
X31266Y108227D01*
X31181Y108248D01*
X31096Y108266D01*
X31009Y108279D01*
X30923Y108289D01*
X30835Y108295D01*
X30748Y108297D01*
X28151Y108297D01*
X23945Y105701D02*
X23945Y103104D01*
X23945Y105701D02*
X23943Y105802D01*
X23937Y105902D01*
X23927Y106002D01*
X23914Y106102D01*
X23896Y106201D01*
X23875Y106300D01*
X23850Y106397D01*
X23821Y106494D01*
X23788Y106589D01*
X23752Y106683D01*
X23712Y106775D01*
X23669Y106866D01*
X23622Y106955D01*
X23572Y107042D01*
X23518Y107128D01*
X23461Y107211D01*
X23401Y107291D01*
X23338Y107370D01*
X23271Y107446D01*
X23202Y107519D01*
X23130Y107589D01*
X23056Y107657D01*
X22979Y107722D01*
X22899Y107783D01*
X22817Y107842D01*
X22733Y107897D01*
X22647Y107949D01*
X22559Y107998D01*
X22469Y108043D01*
X22377Y108085D01*
X22284Y108123D01*
X22189Y108157D01*
X22094Y108188D01*
X21997Y108215D01*
X21899Y108238D01*
X21800Y108258D01*
X21700Y108273D01*
X21600Y108285D01*
X21500Y108293D01*
X21399Y108297D01*
X21299Y108297D01*
X21198Y108293D01*
X21098Y108285D01*
X20998Y108273D01*
X20898Y108258D01*
X20799Y108238D01*
X20701Y108215D01*
X20604Y108188D01*
X20509Y108157D01*
X20414Y108123D01*
X20321Y108085D01*
X20229Y108043D01*
X20139Y107998D01*
X20051Y107949D01*
X19965Y107897D01*
X19881Y107842D01*
X19799Y107783D01*
X19719Y107722D01*
X19642Y107657D01*
X19568Y107589D01*
X19496Y107519D01*
X19427Y107446D01*
X19360Y107370D01*
X19297Y107291D01*
X19237Y107211D01*
X19180Y107128D01*
X19126Y107042D01*
X19076Y106955D01*
X19029Y106866D01*
X18986Y106775D01*
X18946Y106683D01*
X18910Y106589D01*
X18877Y106494D01*
X18848Y106397D01*
X18823Y106300D01*
X18802Y106201D01*
X18784Y106102D01*
X18771Y106002D01*
X18761Y105902D01*
X18755Y105802D01*
X18753Y105701D01*
X18752Y105701D02*
X18752Y103104D01*
X18753Y103104D02*
X18755Y103003D01*
X18761Y102903D01*
X18771Y102803D01*
X18784Y102703D01*
X18802Y102604D01*
X18823Y102505D01*
X18848Y102408D01*
X18877Y102311D01*
X18910Y102216D01*
X18946Y102122D01*
X18986Y102030D01*
X19029Y101939D01*
X19076Y101850D01*
X19126Y101763D01*
X19180Y101677D01*
X19237Y101594D01*
X19297Y101514D01*
X19360Y101435D01*
X19427Y101359D01*
X19496Y101286D01*
X19568Y101216D01*
X19642Y101148D01*
X19719Y101083D01*
X19799Y101022D01*
X19881Y100963D01*
X19965Y100908D01*
X20051Y100856D01*
X20139Y100807D01*
X20229Y100762D01*
X20321Y100720D01*
X20414Y100682D01*
X20509Y100648D01*
X20604Y100617D01*
X20701Y100590D01*
X20799Y100567D01*
X20898Y100547D01*
X20998Y100532D01*
X21098Y100520D01*
X21198Y100512D01*
X21299Y100508D01*
X21399Y100508D01*
X21500Y100512D01*
X21600Y100520D01*
X21700Y100532D01*
X21800Y100547D01*
X21899Y100567D01*
X21997Y100590D01*
X22094Y100617D01*
X22189Y100648D01*
X22284Y100682D01*
X22377Y100720D01*
X22469Y100762D01*
X22559Y100807D01*
X22647Y100856D01*
X22733Y100908D01*
X22817Y100963D01*
X22899Y101022D01*
X22979Y101083D01*
X23056Y101148D01*
X23130Y101216D01*
X23202Y101286D01*
X23271Y101359D01*
X23338Y101435D01*
X23401Y101514D01*
X23461Y101594D01*
X23518Y101677D01*
X23572Y101763D01*
X23622Y101850D01*
X23669Y101939D01*
X23712Y102030D01*
X23752Y102122D01*
X23788Y102216D01*
X23821Y102311D01*
X23850Y102408D01*
X23875Y102505D01*
X23896Y102604D01*
X23914Y102703D01*
X23927Y102803D01*
X23937Y102903D01*
X23943Y103003D01*
X23945Y103104D01*
X13433Y100508D02*
X13433Y108297D01*
X7591Y108297D01*
X7504Y108295D01*
X7416Y108289D01*
X7330Y108279D01*
X7243Y108266D01*
X7158Y108248D01*
X7073Y108227D01*
X6989Y108202D01*
X6907Y108173D01*
X6826Y108140D01*
X6746Y108104D01*
X6668Y108065D01*
X6592Y108021D01*
X6518Y107975D01*
X6447Y107925D01*
X6377Y107872D01*
X6310Y107816D01*
X6246Y107757D01*
X6184Y107695D01*
X6125Y107631D01*
X6069Y107564D01*
X6016Y107494D01*
X5966Y107423D01*
X5920Y107349D01*
X5876Y107273D01*
X5837Y107195D01*
X5801Y107115D01*
X5768Y107034D01*
X5739Y106952D01*
X5714Y106868D01*
X5693Y106783D01*
X5675Y106698D01*
X5662Y106611D01*
X5652Y106525D01*
X5646Y106437D01*
X5644Y106350D01*
X5643Y106350D02*
X5643Y100508D01*
X9538Y100508D02*
X9538Y108297D01*
X199299Y45508D02*
X204492Y45508D01*
X204492Y57192D01*
X199299Y57192D01*
X200597Y51999D02*
X204492Y51999D01*
X191476Y45508D02*
X191377Y45510D01*
X191277Y45516D01*
X191178Y45525D01*
X191080Y45538D01*
X190982Y45555D01*
X190884Y45576D01*
X190788Y45601D01*
X190693Y45629D01*
X190599Y45661D01*
X190506Y45696D01*
X190414Y45735D01*
X190324Y45778D01*
X190236Y45823D01*
X190149Y45873D01*
X190065Y45925D01*
X189982Y45981D01*
X189902Y46039D01*
X189824Y46101D01*
X189749Y46166D01*
X189676Y46234D01*
X189606Y46304D01*
X189538Y46377D01*
X189473Y46452D01*
X189411Y46530D01*
X189353Y46610D01*
X189297Y46693D01*
X189245Y46777D01*
X189195Y46864D01*
X189150Y46952D01*
X189107Y47042D01*
X189068Y47134D01*
X189033Y47227D01*
X189001Y47321D01*
X188973Y47416D01*
X188948Y47512D01*
X188927Y47610D01*
X188910Y47708D01*
X188897Y47806D01*
X188888Y47905D01*
X188882Y48005D01*
X188880Y48104D01*
X191476Y45508D02*
X191620Y45510D01*
X191765Y45516D01*
X191909Y45525D01*
X192052Y45538D01*
X192196Y45555D01*
X192339Y45576D01*
X192481Y45601D01*
X192622Y45629D01*
X192763Y45661D01*
X192903Y45697D01*
X193042Y45736D01*
X193180Y45779D01*
X193316Y45826D01*
X193452Y45876D01*
X193586Y45930D01*
X193718Y45987D01*
X193849Y46048D01*
X193978Y46112D01*
X194106Y46180D01*
X194232Y46251D01*
X194356Y46325D01*
X194477Y46402D01*
X194597Y46483D01*
X194715Y46566D01*
X194830Y46653D01*
X194943Y46743D01*
X195054Y46836D01*
X195162Y46931D01*
X195268Y47030D01*
X195371Y47131D01*
X195046Y54596D02*
X195044Y54695D01*
X195038Y54795D01*
X195029Y54894D01*
X195016Y54992D01*
X194999Y55090D01*
X194978Y55188D01*
X194953Y55284D01*
X194925Y55379D01*
X194893Y55473D01*
X194858Y55566D01*
X194819Y55658D01*
X194776Y55748D01*
X194731Y55836D01*
X194681Y55923D01*
X194629Y56007D01*
X194573Y56090D01*
X194515Y56170D01*
X194453Y56248D01*
X194388Y56323D01*
X194320Y56396D01*
X194250Y56466D01*
X194177Y56534D01*
X194102Y56599D01*
X194024Y56661D01*
X193944Y56719D01*
X193861Y56775D01*
X193777Y56827D01*
X193690Y56877D01*
X193602Y56922D01*
X193512Y56965D01*
X193420Y57004D01*
X193327Y57039D01*
X193233Y57071D01*
X193138Y57099D01*
X193042Y57124D01*
X192944Y57145D01*
X192846Y57162D01*
X192748Y57175D01*
X192649Y57184D01*
X192549Y57190D01*
X192450Y57192D01*
X192314Y57190D01*
X192178Y57184D01*
X192042Y57175D01*
X191906Y57162D01*
X191771Y57144D01*
X191637Y57124D01*
X191503Y57099D01*
X191369Y57071D01*
X191237Y57038D01*
X191106Y57003D01*
X190975Y56963D01*
X190846Y56920D01*
X190718Y56874D01*
X190592Y56823D01*
X190466Y56770D01*
X190343Y56712D01*
X190221Y56652D01*
X190101Y56588D01*
X189982Y56520D01*
X189866Y56450D01*
X189752Y56376D01*
X189639Y56299D01*
X189529Y56218D01*
X193748Y52324D02*
X193834Y52377D01*
X193918Y52434D01*
X194000Y52493D01*
X194080Y52556D01*
X194157Y52622D01*
X194232Y52690D01*
X194304Y52762D01*
X194373Y52836D01*
X194439Y52913D01*
X194502Y52992D01*
X194562Y53074D01*
X194619Y53158D01*
X194673Y53244D01*
X194723Y53332D01*
X194770Y53422D01*
X194814Y53513D01*
X194853Y53607D01*
X194890Y53701D01*
X194922Y53797D01*
X194951Y53895D01*
X194976Y53993D01*
X194997Y54092D01*
X195015Y54192D01*
X195028Y54292D01*
X195038Y54393D01*
X195044Y54495D01*
X195046Y54596D01*
X190177Y50376D02*
X190091Y50323D01*
X190007Y50266D01*
X189925Y50207D01*
X189845Y50144D01*
X189768Y50078D01*
X189693Y50010D01*
X189621Y49938D01*
X189552Y49864D01*
X189486Y49787D01*
X189423Y49708D01*
X189363Y49626D01*
X189306Y49542D01*
X189252Y49456D01*
X189202Y49368D01*
X189155Y49278D01*
X189111Y49187D01*
X189072Y49093D01*
X189035Y48999D01*
X189003Y48903D01*
X188974Y48805D01*
X188949Y48707D01*
X188928Y48608D01*
X188910Y48508D01*
X188897Y48408D01*
X188887Y48307D01*
X188881Y48205D01*
X188879Y48104D01*
X190178Y50376D02*
X193748Y52324D01*
X183771Y57192D02*
X183771Y45508D01*
X183771Y57192D02*
X180526Y57192D01*
X180413Y57190D01*
X180300Y57184D01*
X180187Y57174D01*
X180074Y57160D01*
X179962Y57143D01*
X179851Y57121D01*
X179741Y57096D01*
X179631Y57066D01*
X179523Y57033D01*
X179416Y56996D01*
X179310Y56956D01*
X179206Y56911D01*
X179103Y56863D01*
X179002Y56812D01*
X178903Y56757D01*
X178806Y56699D01*
X178711Y56637D01*
X178618Y56572D01*
X178528Y56504D01*
X178440Y56433D01*
X178354Y56358D01*
X178271Y56281D01*
X178191Y56201D01*
X178114Y56118D01*
X178039Y56032D01*
X177968Y55944D01*
X177900Y55854D01*
X177835Y55761D01*
X177773Y55666D01*
X177715Y55569D01*
X177660Y55470D01*
X177609Y55369D01*
X177561Y55266D01*
X177516Y55162D01*
X177476Y55056D01*
X177439Y54949D01*
X177406Y54841D01*
X177376Y54731D01*
X177351Y54621D01*
X177329Y54510D01*
X177312Y54398D01*
X177298Y54285D01*
X177288Y54172D01*
X177282Y54059D01*
X177280Y53946D01*
X177282Y53833D01*
X177288Y53720D01*
X177298Y53607D01*
X177312Y53494D01*
X177329Y53382D01*
X177351Y53271D01*
X177376Y53161D01*
X177406Y53051D01*
X177439Y52943D01*
X177476Y52836D01*
X177516Y52730D01*
X177561Y52626D01*
X177609Y52523D01*
X177660Y52422D01*
X177715Y52323D01*
X177773Y52226D01*
X177835Y52131D01*
X177900Y52038D01*
X177968Y51948D01*
X178039Y51860D01*
X178114Y51774D01*
X178191Y51691D01*
X178271Y51611D01*
X178354Y51534D01*
X178440Y51459D01*
X178528Y51388D01*
X178618Y51320D01*
X178711Y51255D01*
X178806Y51193D01*
X178903Y51135D01*
X179002Y51080D01*
X179103Y51029D01*
X179206Y50981D01*
X179310Y50936D01*
X179416Y50896D01*
X179523Y50859D01*
X179631Y50826D01*
X179741Y50796D01*
X179851Y50771D01*
X179962Y50749D01*
X180074Y50732D01*
X180187Y50718D01*
X180300Y50708D01*
X180413Y50702D01*
X180526Y50700D01*
X180526Y50701D02*
X183771Y50701D01*
X172892Y51350D02*
X172889Y51580D01*
X172881Y51810D01*
X172867Y52039D01*
X172848Y52268D01*
X172823Y52497D01*
X172793Y52725D01*
X172758Y52952D01*
X172717Y53178D01*
X172671Y53403D01*
X172619Y53627D01*
X172562Y53850D01*
X172500Y54071D01*
X172432Y54291D01*
X172359Y54509D01*
X172281Y54725D01*
X172198Y54939D01*
X172110Y55152D01*
X172017Y55362D01*
X171918Y55569D01*
X171885Y55659D01*
X171849Y55748D01*
X171809Y55836D01*
X171765Y55921D01*
X171718Y56005D01*
X171668Y56087D01*
X171614Y56167D01*
X171558Y56244D01*
X171498Y56320D01*
X171435Y56393D01*
X171370Y56463D01*
X171301Y56531D01*
X171230Y56595D01*
X171157Y56657D01*
X171081Y56716D01*
X171003Y56772D01*
X170922Y56825D01*
X170840Y56874D01*
X170756Y56920D01*
X170669Y56963D01*
X170582Y57002D01*
X170492Y57038D01*
X170402Y57070D01*
X170310Y57098D01*
X170217Y57123D01*
X170123Y57144D01*
X170029Y57161D01*
X169934Y57175D01*
X169838Y57184D01*
X169742Y57190D01*
X169646Y57192D01*
X169550Y57190D01*
X169454Y57184D01*
X169358Y57175D01*
X169263Y57161D01*
X169169Y57144D01*
X169075Y57123D01*
X168982Y57098D01*
X168890Y57070D01*
X168800Y57038D01*
X168710Y57002D01*
X168623Y56963D01*
X168536Y56920D01*
X168452Y56874D01*
X168370Y56825D01*
X168289Y56772D01*
X168211Y56716D01*
X168135Y56657D01*
X168062Y56595D01*
X167991Y56531D01*
X167922Y56463D01*
X167857Y56393D01*
X167794Y56320D01*
X167734Y56245D01*
X167678Y56167D01*
X167624Y56087D01*
X167574Y56005D01*
X167527Y55921D01*
X167484Y55836D01*
X167443Y55748D01*
X167407Y55659D01*
X167374Y55569D01*
X167375Y55569D02*
X167276Y55361D01*
X167183Y55151D01*
X167095Y54939D01*
X167012Y54725D01*
X166934Y54508D01*
X166861Y54290D01*
X166793Y54071D01*
X166731Y53849D01*
X166674Y53627D01*
X166622Y53403D01*
X166576Y53178D01*
X166535Y52952D01*
X166500Y52724D01*
X166470Y52497D01*
X166445Y52268D01*
X166426Y52039D01*
X166412Y51810D01*
X166404Y51580D01*
X166401Y51350D01*
X172892Y51350D02*
X172889Y51120D01*
X172881Y50890D01*
X172867Y50661D01*
X172848Y50432D01*
X172823Y50203D01*
X172793Y49975D01*
X172758Y49748D01*
X172717Y49522D01*
X172671Y49297D01*
X172619Y49073D01*
X172562Y48850D01*
X172500Y48629D01*
X172432Y48409D01*
X172359Y48191D01*
X172281Y47975D01*
X172198Y47761D01*
X172110Y47549D01*
X172017Y47338D01*
X171918Y47131D01*
X171885Y47041D01*
X171849Y46952D01*
X171808Y46864D01*
X171765Y46779D01*
X171718Y46695D01*
X171668Y46613D01*
X171614Y46533D01*
X171558Y46456D01*
X171498Y46380D01*
X171435Y46307D01*
X171370Y46237D01*
X171301Y46169D01*
X171230Y46105D01*
X171157Y46043D01*
X171081Y45984D01*
X171003Y45928D01*
X170922Y45875D01*
X170840Y45826D01*
X170756Y45780D01*
X170669Y45737D01*
X170582Y45698D01*
X170492Y45662D01*
X170402Y45630D01*
X170310Y45602D01*
X170217Y45577D01*
X170123Y45556D01*
X170029Y45539D01*
X169934Y45525D01*
X169838Y45516D01*
X169742Y45510D01*
X169646Y45508D01*
X167374Y47131D02*
X167275Y47338D01*
X167182Y47549D01*
X167094Y47761D01*
X167011Y47975D01*
X166933Y48191D01*
X166860Y48409D01*
X166792Y48629D01*
X166730Y48850D01*
X166673Y49073D01*
X166621Y49297D01*
X166575Y49522D01*
X166534Y49748D01*
X166499Y49975D01*
X166469Y50203D01*
X166444Y50432D01*
X166425Y50661D01*
X166411Y50890D01*
X166403Y51120D01*
X166400Y51350D01*
X167374Y47131D02*
X167407Y47041D01*
X167443Y46952D01*
X167484Y46864D01*
X167527Y46779D01*
X167574Y46695D01*
X167624Y46613D01*
X167678Y46533D01*
X167734Y46455D01*
X167794Y46380D01*
X167857Y46307D01*
X167922Y46237D01*
X167991Y46169D01*
X168062Y46105D01*
X168135Y46043D01*
X168211Y45984D01*
X168289Y45928D01*
X168370Y45875D01*
X168452Y45826D01*
X168536Y45780D01*
X168623Y45737D01*
X168710Y45698D01*
X168800Y45662D01*
X168890Y45630D01*
X168982Y45602D01*
X169075Y45577D01*
X169169Y45556D01*
X169263Y45539D01*
X169358Y45525D01*
X169454Y45516D01*
X169550Y45510D01*
X169646Y45508D01*
X172243Y48104D02*
X167050Y54596D01*
X161462Y54596D02*
X158216Y57192D01*
X158216Y45508D01*
X154971Y45508D02*
X161462Y45508D01*
D11*
X330000Y200000D02*
X330000Y225000D01*
X330000Y200000D02*
X330000Y175000D01*
X330000Y150000D02*
X330000Y125000D01*
X330000Y100000D02*
X330000Y75000D01*
X330000Y50000D02*
X330000Y20000D01*
X275000Y20000D01*
X275000Y50000D01*
X275000Y75000D01*
X275000Y100000D02*
X275000Y125000D01*
X275000Y150000D02*
X275000Y175000D01*
X275000Y200000D02*
X275000Y225000D01*
X330000Y225000D01*
X330000Y200000D02*
X275000Y200000D01*
X275000Y175000D01*
X330000Y175000D01*
X330000Y150000D01*
X275000Y150000D01*
X275000Y125000D01*
X330000Y125000D01*
X330000Y100000D01*
X275000Y100000D01*
X275000Y75000D01*
X330000Y75000D01*
X330000Y50000D01*
X275000Y50000D01*
M02*
