G04 EAGLE Gerber RS-274X export*
G75*
%MOMM*%
%FSLAX34Y34*%
%LPD*%
%INSilkscreen Top*%
%IPPOS*%
%AMOC8*
5,1,8,0,0,1.08239X$1,22.5*%
G01*
%ADD10C,0.101600*%
%ADD11C,0.203200*%
%ADD12C,0.200000*%
%ADD13C,0.127000*%
%ADD14C,0.152400*%


D10*
X115508Y5508D02*
X115508Y17192D01*
X118754Y17192D01*
X118867Y17190D01*
X118980Y17184D01*
X119093Y17174D01*
X119206Y17160D01*
X119318Y17143D01*
X119429Y17121D01*
X119539Y17096D01*
X119649Y17066D01*
X119757Y17033D01*
X119864Y16996D01*
X119970Y16956D01*
X120074Y16911D01*
X120177Y16863D01*
X120278Y16812D01*
X120377Y16757D01*
X120474Y16699D01*
X120569Y16637D01*
X120662Y16572D01*
X120752Y16504D01*
X120840Y16433D01*
X120926Y16358D01*
X121009Y16281D01*
X121089Y16201D01*
X121166Y16118D01*
X121241Y16032D01*
X121312Y15944D01*
X121380Y15854D01*
X121445Y15761D01*
X121507Y15666D01*
X121565Y15569D01*
X121620Y15470D01*
X121671Y15369D01*
X121719Y15266D01*
X121764Y15162D01*
X121804Y15056D01*
X121841Y14949D01*
X121874Y14841D01*
X121904Y14731D01*
X121929Y14621D01*
X121951Y14510D01*
X121968Y14398D01*
X121982Y14285D01*
X121992Y14172D01*
X121998Y14059D01*
X122000Y13946D01*
X121998Y13833D01*
X121992Y13720D01*
X121982Y13607D01*
X121968Y13494D01*
X121951Y13382D01*
X121929Y13271D01*
X121904Y13161D01*
X121874Y13051D01*
X121841Y12943D01*
X121804Y12836D01*
X121764Y12730D01*
X121719Y12626D01*
X121671Y12523D01*
X121620Y12422D01*
X121565Y12323D01*
X121507Y12226D01*
X121445Y12131D01*
X121380Y12038D01*
X121312Y11948D01*
X121241Y11860D01*
X121166Y11774D01*
X121089Y11691D01*
X121009Y11611D01*
X120926Y11534D01*
X120840Y11459D01*
X120752Y11388D01*
X120662Y11320D01*
X120569Y11255D01*
X120474Y11193D01*
X120377Y11135D01*
X120278Y11080D01*
X120177Y11029D01*
X120074Y10981D01*
X119970Y10936D01*
X119864Y10896D01*
X119757Y10859D01*
X119649Y10826D01*
X119539Y10796D01*
X119429Y10771D01*
X119318Y10749D01*
X119206Y10732D01*
X119093Y10718D01*
X118980Y10708D01*
X118867Y10702D01*
X118754Y10700D01*
X118754Y10701D02*
X115508Y10701D01*
X119403Y10701D02*
X121999Y5508D01*
X128699Y5508D02*
X131944Y5508D01*
X128699Y5508D02*
X128612Y5510D01*
X128524Y5516D01*
X128438Y5526D01*
X128351Y5539D01*
X128266Y5557D01*
X128181Y5578D01*
X128097Y5603D01*
X128015Y5632D01*
X127934Y5665D01*
X127854Y5701D01*
X127776Y5740D01*
X127700Y5784D01*
X127626Y5830D01*
X127555Y5880D01*
X127485Y5933D01*
X127418Y5989D01*
X127354Y6048D01*
X127292Y6110D01*
X127233Y6174D01*
X127177Y6241D01*
X127124Y6311D01*
X127074Y6382D01*
X127028Y6456D01*
X126984Y6532D01*
X126945Y6610D01*
X126909Y6690D01*
X126876Y6771D01*
X126847Y6853D01*
X126822Y6937D01*
X126801Y7022D01*
X126783Y7107D01*
X126770Y7194D01*
X126760Y7280D01*
X126754Y7368D01*
X126752Y7455D01*
X126751Y7455D02*
X126751Y10701D01*
X126752Y10701D02*
X126754Y10802D01*
X126760Y10902D01*
X126770Y11002D01*
X126783Y11102D01*
X126801Y11201D01*
X126822Y11300D01*
X126847Y11397D01*
X126876Y11494D01*
X126909Y11589D01*
X126945Y11683D01*
X126985Y11775D01*
X127028Y11866D01*
X127075Y11955D01*
X127125Y12042D01*
X127179Y12128D01*
X127236Y12211D01*
X127296Y12291D01*
X127359Y12370D01*
X127426Y12446D01*
X127495Y12519D01*
X127567Y12589D01*
X127641Y12657D01*
X127718Y12722D01*
X127798Y12783D01*
X127880Y12842D01*
X127964Y12897D01*
X128050Y12949D01*
X128138Y12998D01*
X128228Y13043D01*
X128320Y13085D01*
X128413Y13123D01*
X128508Y13157D01*
X128603Y13188D01*
X128700Y13215D01*
X128798Y13238D01*
X128897Y13258D01*
X128997Y13273D01*
X129097Y13285D01*
X129197Y13293D01*
X129298Y13297D01*
X129398Y13297D01*
X129499Y13293D01*
X129599Y13285D01*
X129699Y13273D01*
X129799Y13258D01*
X129898Y13238D01*
X129996Y13215D01*
X130093Y13188D01*
X130188Y13157D01*
X130283Y13123D01*
X130376Y13085D01*
X130468Y13043D01*
X130558Y12998D01*
X130646Y12949D01*
X130732Y12897D01*
X130816Y12842D01*
X130898Y12783D01*
X130978Y12722D01*
X131055Y12657D01*
X131129Y12589D01*
X131201Y12519D01*
X131270Y12446D01*
X131337Y12370D01*
X131400Y12291D01*
X131460Y12211D01*
X131517Y12128D01*
X131571Y12042D01*
X131621Y11955D01*
X131668Y11866D01*
X131711Y11775D01*
X131751Y11683D01*
X131787Y11589D01*
X131820Y11494D01*
X131849Y11397D01*
X131874Y11300D01*
X131895Y11201D01*
X131913Y11102D01*
X131926Y11002D01*
X131936Y10902D01*
X131942Y10802D01*
X131944Y10701D01*
X131944Y9403D01*
X126751Y9403D01*
X137631Y10052D02*
X140877Y8754D01*
X137631Y10051D02*
X137556Y10084D01*
X137482Y10120D01*
X137410Y10159D01*
X137340Y10202D01*
X137273Y10248D01*
X137207Y10298D01*
X137145Y10350D01*
X137084Y10406D01*
X137027Y10464D01*
X136972Y10525D01*
X136921Y10589D01*
X136873Y10655D01*
X136828Y10724D01*
X136786Y10794D01*
X136748Y10867D01*
X136713Y10941D01*
X136682Y11017D01*
X136655Y11094D01*
X136632Y11173D01*
X136612Y11252D01*
X136597Y11333D01*
X136585Y11414D01*
X136577Y11496D01*
X136573Y11577D01*
X136574Y11659D01*
X136578Y11741D01*
X136586Y11823D01*
X136598Y11904D01*
X136614Y11984D01*
X136634Y12064D01*
X136658Y12142D01*
X136686Y12219D01*
X136717Y12295D01*
X136752Y12369D01*
X136790Y12441D01*
X136832Y12512D01*
X136878Y12580D01*
X136926Y12646D01*
X136978Y12709D01*
X137033Y12770D01*
X137091Y12828D01*
X137151Y12884D01*
X137214Y12936D01*
X137280Y12985D01*
X137348Y13031D01*
X137418Y13073D01*
X137490Y13113D01*
X137564Y13148D01*
X137639Y13180D01*
X137716Y13208D01*
X137794Y13232D01*
X137874Y13253D01*
X137954Y13270D01*
X138035Y13282D01*
X138116Y13291D01*
X138198Y13296D01*
X138280Y13297D01*
X138457Y13293D01*
X138634Y13284D01*
X138811Y13270D01*
X138988Y13253D01*
X139163Y13231D01*
X139339Y13206D01*
X139513Y13175D01*
X139687Y13141D01*
X139860Y13103D01*
X140032Y13060D01*
X140203Y13013D01*
X140373Y12963D01*
X140542Y12908D01*
X140709Y12849D01*
X140874Y12786D01*
X141039Y12719D01*
X141201Y12648D01*
X140877Y8754D02*
X140952Y8721D01*
X141026Y8685D01*
X141098Y8646D01*
X141168Y8603D01*
X141235Y8557D01*
X141301Y8507D01*
X141363Y8455D01*
X141424Y8399D01*
X141481Y8341D01*
X141536Y8280D01*
X141587Y8216D01*
X141635Y8150D01*
X141680Y8081D01*
X141722Y8011D01*
X141760Y7938D01*
X141795Y7864D01*
X141826Y7788D01*
X141853Y7711D01*
X141876Y7632D01*
X141896Y7553D01*
X141911Y7472D01*
X141923Y7391D01*
X141931Y7309D01*
X141935Y7228D01*
X141934Y7146D01*
X141930Y7064D01*
X141922Y6982D01*
X141910Y6901D01*
X141894Y6821D01*
X141874Y6741D01*
X141850Y6663D01*
X141822Y6586D01*
X141791Y6510D01*
X141756Y6436D01*
X141718Y6364D01*
X141676Y6293D01*
X141630Y6225D01*
X141582Y6159D01*
X141530Y6096D01*
X141475Y6035D01*
X141417Y5977D01*
X141357Y5921D01*
X141294Y5869D01*
X141228Y5820D01*
X141160Y5774D01*
X141090Y5732D01*
X141018Y5692D01*
X140944Y5657D01*
X140869Y5625D01*
X140792Y5597D01*
X140714Y5573D01*
X140634Y5552D01*
X140554Y5535D01*
X140473Y5523D01*
X140392Y5514D01*
X140310Y5509D01*
X140228Y5508D01*
X139968Y5515D01*
X139708Y5528D01*
X139448Y5547D01*
X139189Y5572D01*
X138930Y5604D01*
X138673Y5641D01*
X138416Y5685D01*
X138160Y5734D01*
X137906Y5790D01*
X137653Y5851D01*
X137402Y5919D01*
X137152Y5993D01*
X136904Y6072D01*
X136658Y6157D01*
X148511Y5508D02*
X151756Y5508D01*
X148511Y5508D02*
X148424Y5510D01*
X148336Y5516D01*
X148250Y5526D01*
X148163Y5539D01*
X148078Y5557D01*
X147993Y5578D01*
X147909Y5603D01*
X147827Y5632D01*
X147746Y5665D01*
X147666Y5701D01*
X147588Y5740D01*
X147512Y5784D01*
X147438Y5830D01*
X147367Y5880D01*
X147297Y5933D01*
X147230Y5989D01*
X147166Y6048D01*
X147104Y6110D01*
X147045Y6174D01*
X146989Y6241D01*
X146936Y6311D01*
X146886Y6382D01*
X146840Y6456D01*
X146796Y6532D01*
X146757Y6610D01*
X146721Y6690D01*
X146688Y6771D01*
X146659Y6853D01*
X146634Y6937D01*
X146613Y7022D01*
X146595Y7107D01*
X146582Y7194D01*
X146572Y7280D01*
X146566Y7368D01*
X146564Y7455D01*
X146563Y7455D02*
X146563Y10701D01*
X146564Y10701D02*
X146566Y10802D01*
X146572Y10902D01*
X146582Y11002D01*
X146595Y11102D01*
X146613Y11201D01*
X146634Y11300D01*
X146659Y11397D01*
X146688Y11494D01*
X146721Y11589D01*
X146757Y11683D01*
X146797Y11775D01*
X146840Y11866D01*
X146887Y11955D01*
X146937Y12042D01*
X146991Y12128D01*
X147048Y12211D01*
X147108Y12291D01*
X147171Y12370D01*
X147238Y12446D01*
X147307Y12519D01*
X147379Y12589D01*
X147453Y12657D01*
X147530Y12722D01*
X147610Y12783D01*
X147692Y12842D01*
X147776Y12897D01*
X147862Y12949D01*
X147950Y12998D01*
X148040Y13043D01*
X148132Y13085D01*
X148225Y13123D01*
X148320Y13157D01*
X148415Y13188D01*
X148512Y13215D01*
X148610Y13238D01*
X148709Y13258D01*
X148809Y13273D01*
X148909Y13285D01*
X149009Y13293D01*
X149110Y13297D01*
X149210Y13297D01*
X149311Y13293D01*
X149411Y13285D01*
X149511Y13273D01*
X149611Y13258D01*
X149710Y13238D01*
X149808Y13215D01*
X149905Y13188D01*
X150000Y13157D01*
X150095Y13123D01*
X150188Y13085D01*
X150280Y13043D01*
X150370Y12998D01*
X150458Y12949D01*
X150544Y12897D01*
X150628Y12842D01*
X150710Y12783D01*
X150790Y12722D01*
X150867Y12657D01*
X150941Y12589D01*
X151013Y12519D01*
X151082Y12446D01*
X151149Y12370D01*
X151212Y12291D01*
X151272Y12211D01*
X151329Y12128D01*
X151383Y12042D01*
X151433Y11955D01*
X151480Y11866D01*
X151523Y11775D01*
X151563Y11683D01*
X151599Y11589D01*
X151632Y11494D01*
X151661Y11397D01*
X151686Y11300D01*
X151707Y11201D01*
X151725Y11102D01*
X151738Y11002D01*
X151748Y10902D01*
X151754Y10802D01*
X151756Y10701D01*
X151756Y9403D01*
X146563Y9403D01*
X155502Y13297D02*
X159397Y13297D01*
X156800Y17192D02*
X156800Y7455D01*
X156801Y7455D02*
X156803Y7368D01*
X156809Y7280D01*
X156819Y7194D01*
X156832Y7107D01*
X156850Y7022D01*
X156871Y6937D01*
X156896Y6853D01*
X156925Y6771D01*
X156958Y6690D01*
X156994Y6610D01*
X157033Y6532D01*
X157077Y6456D01*
X157123Y6382D01*
X157173Y6311D01*
X157226Y6241D01*
X157282Y6174D01*
X157341Y6110D01*
X157403Y6048D01*
X157467Y5989D01*
X157534Y5933D01*
X157604Y5880D01*
X157675Y5830D01*
X157749Y5784D01*
X157825Y5740D01*
X157903Y5701D01*
X157983Y5665D01*
X158064Y5632D01*
X158146Y5603D01*
X158230Y5578D01*
X158315Y5557D01*
X158400Y5539D01*
X158487Y5526D01*
X158573Y5516D01*
X158661Y5510D01*
X158748Y5508D01*
X159397Y5508D01*
X20508Y8754D02*
X20508Y13946D01*
X20510Y14059D01*
X20516Y14172D01*
X20526Y14285D01*
X20540Y14398D01*
X20557Y14510D01*
X20579Y14621D01*
X20604Y14731D01*
X20634Y14841D01*
X20667Y14949D01*
X20704Y15056D01*
X20744Y15162D01*
X20789Y15266D01*
X20837Y15369D01*
X20888Y15470D01*
X20943Y15569D01*
X21001Y15666D01*
X21063Y15761D01*
X21128Y15854D01*
X21196Y15944D01*
X21267Y16032D01*
X21342Y16118D01*
X21419Y16201D01*
X21499Y16281D01*
X21582Y16358D01*
X21668Y16433D01*
X21756Y16504D01*
X21846Y16572D01*
X21939Y16637D01*
X22034Y16699D01*
X22131Y16757D01*
X22230Y16812D01*
X22331Y16863D01*
X22434Y16911D01*
X22538Y16956D01*
X22644Y16996D01*
X22751Y17033D01*
X22859Y17066D01*
X22969Y17096D01*
X23079Y17121D01*
X23190Y17143D01*
X23302Y17160D01*
X23415Y17174D01*
X23528Y17184D01*
X23641Y17190D01*
X23754Y17192D01*
X23867Y17190D01*
X23980Y17184D01*
X24093Y17174D01*
X24206Y17160D01*
X24318Y17143D01*
X24429Y17121D01*
X24539Y17096D01*
X24649Y17066D01*
X24757Y17033D01*
X24864Y16996D01*
X24970Y16956D01*
X25074Y16911D01*
X25177Y16863D01*
X25278Y16812D01*
X25377Y16757D01*
X25474Y16699D01*
X25569Y16637D01*
X25662Y16572D01*
X25752Y16504D01*
X25840Y16433D01*
X25926Y16358D01*
X26009Y16281D01*
X26089Y16201D01*
X26166Y16118D01*
X26241Y16032D01*
X26312Y15944D01*
X26380Y15854D01*
X26445Y15761D01*
X26507Y15666D01*
X26565Y15569D01*
X26620Y15470D01*
X26671Y15369D01*
X26719Y15266D01*
X26764Y15162D01*
X26804Y15056D01*
X26841Y14949D01*
X26874Y14841D01*
X26904Y14731D01*
X26929Y14621D01*
X26951Y14510D01*
X26968Y14398D01*
X26982Y14285D01*
X26992Y14172D01*
X26998Y14059D01*
X27000Y13946D01*
X26999Y13946D02*
X26999Y8754D01*
X27000Y8754D02*
X26998Y8641D01*
X26992Y8528D01*
X26982Y8415D01*
X26968Y8302D01*
X26951Y8190D01*
X26929Y8079D01*
X26904Y7969D01*
X26874Y7859D01*
X26841Y7751D01*
X26804Y7644D01*
X26764Y7538D01*
X26719Y7434D01*
X26671Y7331D01*
X26620Y7230D01*
X26565Y7131D01*
X26507Y7034D01*
X26445Y6939D01*
X26380Y6846D01*
X26312Y6756D01*
X26241Y6668D01*
X26166Y6582D01*
X26089Y6499D01*
X26009Y6419D01*
X25926Y6342D01*
X25840Y6267D01*
X25752Y6196D01*
X25662Y6128D01*
X25569Y6063D01*
X25474Y6001D01*
X25377Y5943D01*
X25278Y5888D01*
X25177Y5837D01*
X25074Y5789D01*
X24970Y5744D01*
X24864Y5704D01*
X24757Y5667D01*
X24649Y5634D01*
X24539Y5604D01*
X24429Y5579D01*
X24318Y5557D01*
X24206Y5540D01*
X24093Y5526D01*
X23980Y5516D01*
X23867Y5510D01*
X23754Y5508D01*
X23641Y5510D01*
X23528Y5516D01*
X23415Y5526D01*
X23302Y5540D01*
X23190Y5557D01*
X23079Y5579D01*
X22969Y5604D01*
X22859Y5634D01*
X22751Y5667D01*
X22644Y5704D01*
X22538Y5744D01*
X22434Y5789D01*
X22331Y5837D01*
X22230Y5888D01*
X22131Y5943D01*
X22034Y6001D01*
X21939Y6063D01*
X21846Y6128D01*
X21756Y6196D01*
X21668Y6267D01*
X21582Y6342D01*
X21499Y6419D01*
X21419Y6499D01*
X21342Y6582D01*
X21267Y6668D01*
X21196Y6756D01*
X21128Y6846D01*
X21063Y6939D01*
X21001Y7034D01*
X20943Y7131D01*
X20888Y7230D01*
X20837Y7331D01*
X20789Y7434D01*
X20744Y7538D01*
X20704Y7644D01*
X20667Y7751D01*
X20634Y7859D01*
X20604Y7969D01*
X20579Y8079D01*
X20557Y8190D01*
X20540Y8302D01*
X20526Y8415D01*
X20516Y8528D01*
X20510Y8641D01*
X20508Y8754D01*
X32206Y5508D02*
X32206Y13297D01*
X35452Y13297D01*
X35539Y13295D01*
X35627Y13289D01*
X35713Y13279D01*
X35800Y13266D01*
X35885Y13248D01*
X35970Y13227D01*
X36054Y13202D01*
X36136Y13173D01*
X36217Y13140D01*
X36297Y13104D01*
X36375Y13065D01*
X36451Y13021D01*
X36525Y12975D01*
X36596Y12925D01*
X36666Y12872D01*
X36733Y12816D01*
X36797Y12757D01*
X36859Y12696D01*
X36918Y12631D01*
X36974Y12564D01*
X37027Y12494D01*
X37077Y12423D01*
X37123Y12349D01*
X37167Y12273D01*
X37206Y12195D01*
X37242Y12115D01*
X37275Y12034D01*
X37304Y11952D01*
X37329Y11868D01*
X37350Y11783D01*
X37368Y11698D01*
X37381Y11611D01*
X37391Y11525D01*
X37397Y11437D01*
X37399Y11350D01*
X37399Y5508D01*
D11*
X242244Y119950D02*
X242246Y120064D01*
X242252Y120177D01*
X242262Y120290D01*
X242276Y120403D01*
X242293Y120515D01*
X242315Y120627D01*
X242341Y120738D01*
X242370Y120847D01*
X242403Y120956D01*
X242440Y121064D01*
X242481Y121170D01*
X242525Y121274D01*
X242574Y121377D01*
X242625Y121479D01*
X242680Y121578D01*
X242739Y121675D01*
X242801Y121771D01*
X242866Y121864D01*
X242934Y121955D01*
X243006Y122043D01*
X243080Y122129D01*
X243158Y122212D01*
X243238Y122292D01*
X243321Y122370D01*
X243407Y122444D01*
X243495Y122516D01*
X243586Y122584D01*
X243679Y122649D01*
X243775Y122711D01*
X243872Y122770D01*
X243971Y122825D01*
X244073Y122876D01*
X244176Y122925D01*
X244280Y122969D01*
X244386Y123010D01*
X244494Y123047D01*
X244603Y123080D01*
X244712Y123109D01*
X244823Y123135D01*
X244935Y123157D01*
X245047Y123174D01*
X245160Y123188D01*
X245273Y123198D01*
X245386Y123204D01*
X245500Y123206D01*
X245614Y123204D01*
X245727Y123198D01*
X245840Y123188D01*
X245953Y123174D01*
X246065Y123157D01*
X246177Y123135D01*
X246288Y123109D01*
X246397Y123080D01*
X246506Y123047D01*
X246614Y123010D01*
X246720Y122969D01*
X246824Y122925D01*
X246927Y122876D01*
X247029Y122825D01*
X247128Y122770D01*
X247225Y122711D01*
X247321Y122649D01*
X247414Y122584D01*
X247505Y122516D01*
X247593Y122444D01*
X247679Y122370D01*
X247762Y122292D01*
X247842Y122212D01*
X247920Y122129D01*
X247994Y122043D01*
X248066Y121955D01*
X248134Y121864D01*
X248199Y121771D01*
X248261Y121675D01*
X248320Y121578D01*
X248375Y121479D01*
X248426Y121377D01*
X248475Y121274D01*
X248519Y121170D01*
X248560Y121064D01*
X248597Y120956D01*
X248630Y120847D01*
X248659Y120738D01*
X248685Y120627D01*
X248707Y120515D01*
X248724Y120403D01*
X248738Y120290D01*
X248748Y120177D01*
X248754Y120064D01*
X248756Y119950D01*
X248754Y119836D01*
X248748Y119723D01*
X248738Y119610D01*
X248724Y119497D01*
X248707Y119385D01*
X248685Y119273D01*
X248659Y119162D01*
X248630Y119053D01*
X248597Y118944D01*
X248560Y118836D01*
X248519Y118730D01*
X248475Y118626D01*
X248426Y118523D01*
X248375Y118421D01*
X248320Y118322D01*
X248261Y118225D01*
X248199Y118129D01*
X248134Y118036D01*
X248066Y117945D01*
X247994Y117857D01*
X247920Y117771D01*
X247842Y117688D01*
X247762Y117608D01*
X247679Y117530D01*
X247593Y117456D01*
X247505Y117384D01*
X247414Y117316D01*
X247321Y117251D01*
X247225Y117189D01*
X247128Y117130D01*
X247029Y117075D01*
X246927Y117024D01*
X246824Y116975D01*
X246720Y116931D01*
X246614Y116890D01*
X246506Y116853D01*
X246397Y116820D01*
X246288Y116791D01*
X246177Y116765D01*
X246065Y116743D01*
X245953Y116726D01*
X245840Y116712D01*
X245727Y116702D01*
X245614Y116696D01*
X245500Y116694D01*
X245386Y116696D01*
X245273Y116702D01*
X245160Y116712D01*
X245047Y116726D01*
X244935Y116743D01*
X244823Y116765D01*
X244712Y116791D01*
X244603Y116820D01*
X244494Y116853D01*
X244386Y116890D01*
X244280Y116931D01*
X244176Y116975D01*
X244073Y117024D01*
X243971Y117075D01*
X243872Y117130D01*
X243775Y117189D01*
X243679Y117251D01*
X243586Y117316D01*
X243495Y117384D01*
X243407Y117456D01*
X243321Y117530D01*
X243238Y117608D01*
X243158Y117688D01*
X243080Y117771D01*
X243006Y117857D01*
X242934Y117945D01*
X242866Y118036D01*
X242801Y118129D01*
X242739Y118225D01*
X242680Y118322D01*
X242625Y118421D01*
X242574Y118523D01*
X242525Y118626D01*
X242481Y118730D01*
X242440Y118836D01*
X242403Y118944D01*
X242370Y119053D01*
X242341Y119162D01*
X242315Y119273D01*
X242293Y119385D01*
X242276Y119497D01*
X242262Y119610D01*
X242252Y119723D01*
X242246Y119836D01*
X242244Y119950D01*
D10*
X267992Y77173D02*
X267992Y74576D01*
X267990Y74477D01*
X267984Y74377D01*
X267975Y74278D01*
X267962Y74180D01*
X267945Y74082D01*
X267924Y73984D01*
X267899Y73888D01*
X267871Y73793D01*
X267839Y73699D01*
X267804Y73606D01*
X267765Y73514D01*
X267722Y73424D01*
X267677Y73336D01*
X267627Y73249D01*
X267575Y73165D01*
X267519Y73082D01*
X267461Y73002D01*
X267399Y72924D01*
X267334Y72849D01*
X267266Y72776D01*
X267196Y72706D01*
X267123Y72638D01*
X267048Y72573D01*
X266970Y72511D01*
X266890Y72453D01*
X266807Y72397D01*
X266723Y72345D01*
X266636Y72295D01*
X266548Y72250D01*
X266458Y72207D01*
X266366Y72168D01*
X266273Y72133D01*
X266179Y72101D01*
X266084Y72073D01*
X265988Y72048D01*
X265890Y72027D01*
X265792Y72010D01*
X265694Y71997D01*
X265595Y71988D01*
X265495Y71982D01*
X265396Y71980D01*
X258904Y71980D01*
X258904Y71979D02*
X258805Y71981D01*
X258705Y71987D01*
X258606Y71996D01*
X258508Y72009D01*
X258410Y72027D01*
X258312Y72047D01*
X258216Y72072D01*
X258120Y72100D01*
X258026Y72132D01*
X257933Y72167D01*
X257842Y72206D01*
X257752Y72249D01*
X257663Y72294D01*
X257577Y72344D01*
X257492Y72396D01*
X257410Y72452D01*
X257330Y72511D01*
X257252Y72572D01*
X257176Y72637D01*
X257103Y72705D01*
X257033Y72775D01*
X256965Y72848D01*
X256900Y72924D01*
X256839Y73002D01*
X256780Y73082D01*
X256724Y73164D01*
X256672Y73249D01*
X256623Y73335D01*
X256577Y73424D01*
X256534Y73514D01*
X256495Y73605D01*
X256460Y73698D01*
X256428Y73792D01*
X256400Y73888D01*
X256375Y73984D01*
X256355Y74082D01*
X256337Y74180D01*
X256324Y74278D01*
X256315Y74377D01*
X256309Y74476D01*
X256307Y74576D01*
X256308Y74576D02*
X256308Y77173D01*
X256308Y81919D02*
X267992Y81919D01*
X261501Y81919D02*
X261501Y88410D01*
X256308Y88410D02*
X267992Y88410D01*
X267992Y93730D02*
X267992Y96976D01*
X267990Y97089D01*
X267984Y97202D01*
X267974Y97315D01*
X267960Y97428D01*
X267943Y97540D01*
X267921Y97651D01*
X267896Y97761D01*
X267866Y97871D01*
X267833Y97979D01*
X267796Y98086D01*
X267756Y98192D01*
X267711Y98296D01*
X267663Y98399D01*
X267612Y98500D01*
X267557Y98599D01*
X267499Y98696D01*
X267437Y98791D01*
X267372Y98884D01*
X267304Y98974D01*
X267233Y99062D01*
X267158Y99148D01*
X267081Y99231D01*
X267001Y99311D01*
X266918Y99388D01*
X266832Y99463D01*
X266744Y99534D01*
X266654Y99602D01*
X266561Y99667D01*
X266466Y99729D01*
X266369Y99787D01*
X266270Y99842D01*
X266169Y99893D01*
X266066Y99941D01*
X265962Y99986D01*
X265856Y100026D01*
X265749Y100063D01*
X265641Y100096D01*
X265531Y100126D01*
X265421Y100151D01*
X265310Y100173D01*
X265198Y100190D01*
X265085Y100204D01*
X264972Y100214D01*
X264859Y100220D01*
X264746Y100222D01*
X264633Y100220D01*
X264520Y100214D01*
X264407Y100204D01*
X264294Y100190D01*
X264182Y100173D01*
X264071Y100151D01*
X263961Y100126D01*
X263851Y100096D01*
X263743Y100063D01*
X263636Y100026D01*
X263530Y99986D01*
X263426Y99941D01*
X263323Y99893D01*
X263222Y99842D01*
X263123Y99787D01*
X263026Y99729D01*
X262931Y99667D01*
X262838Y99602D01*
X262748Y99534D01*
X262660Y99463D01*
X262574Y99388D01*
X262491Y99311D01*
X262411Y99231D01*
X262334Y99148D01*
X262259Y99062D01*
X262188Y98974D01*
X262120Y98884D01*
X262055Y98791D01*
X261993Y98696D01*
X261935Y98599D01*
X261880Y98500D01*
X261829Y98399D01*
X261781Y98296D01*
X261736Y98192D01*
X261696Y98086D01*
X261659Y97979D01*
X261626Y97871D01*
X261596Y97761D01*
X261571Y97651D01*
X261549Y97540D01*
X261532Y97428D01*
X261518Y97315D01*
X261508Y97202D01*
X261502Y97089D01*
X261500Y96976D01*
X256308Y97625D02*
X256308Y93730D01*
X256308Y97625D02*
X256310Y97726D01*
X256316Y97826D01*
X256326Y97926D01*
X256339Y98026D01*
X256357Y98125D01*
X256378Y98224D01*
X256403Y98321D01*
X256432Y98418D01*
X256465Y98513D01*
X256501Y98607D01*
X256541Y98699D01*
X256584Y98790D01*
X256631Y98879D01*
X256681Y98966D01*
X256735Y99052D01*
X256792Y99135D01*
X256852Y99215D01*
X256915Y99294D01*
X256982Y99370D01*
X257051Y99443D01*
X257123Y99513D01*
X257197Y99581D01*
X257274Y99646D01*
X257354Y99707D01*
X257436Y99766D01*
X257520Y99821D01*
X257606Y99873D01*
X257694Y99922D01*
X257784Y99967D01*
X257876Y100009D01*
X257969Y100047D01*
X258064Y100081D01*
X258159Y100112D01*
X258256Y100139D01*
X258354Y100162D01*
X258453Y100182D01*
X258553Y100197D01*
X258653Y100209D01*
X258753Y100217D01*
X258854Y100221D01*
X258954Y100221D01*
X259055Y100217D01*
X259155Y100209D01*
X259255Y100197D01*
X259355Y100182D01*
X259454Y100162D01*
X259552Y100139D01*
X259649Y100112D01*
X259744Y100081D01*
X259839Y100047D01*
X259932Y100009D01*
X260024Y99967D01*
X260114Y99922D01*
X260202Y99873D01*
X260288Y99821D01*
X260372Y99766D01*
X260454Y99707D01*
X260534Y99646D01*
X260611Y99581D01*
X260685Y99513D01*
X260757Y99443D01*
X260826Y99370D01*
X260893Y99294D01*
X260956Y99215D01*
X261016Y99135D01*
X261073Y99052D01*
X261127Y98966D01*
X261177Y98879D01*
X261224Y98790D01*
X261267Y98699D01*
X261307Y98607D01*
X261343Y98513D01*
X261376Y98418D01*
X261405Y98321D01*
X261430Y98224D01*
X261451Y98125D01*
X261469Y98026D01*
X261482Y97926D01*
X261492Y97826D01*
X261498Y97726D01*
X261500Y97625D01*
X261501Y97625D02*
X261501Y95028D01*
X265396Y105160D02*
X256308Y107756D01*
X265396Y105160D02*
X265396Y111651D01*
X262799Y109704D02*
X267992Y109704D01*
X262150Y116590D02*
X261920Y116593D01*
X261690Y116601D01*
X261461Y116615D01*
X261232Y116634D01*
X261003Y116659D01*
X260775Y116689D01*
X260548Y116724D01*
X260322Y116765D01*
X260097Y116811D01*
X259873Y116863D01*
X259650Y116920D01*
X259429Y116982D01*
X259209Y117050D01*
X258991Y117123D01*
X258775Y117201D01*
X258561Y117284D01*
X258349Y117372D01*
X258138Y117465D01*
X257931Y117564D01*
X257931Y117563D02*
X257841Y117596D01*
X257752Y117632D01*
X257664Y117672D01*
X257579Y117716D01*
X257495Y117763D01*
X257413Y117813D01*
X257333Y117867D01*
X257256Y117923D01*
X257180Y117983D01*
X257107Y118046D01*
X257037Y118111D01*
X256969Y118180D01*
X256905Y118251D01*
X256843Y118324D01*
X256784Y118400D01*
X256728Y118478D01*
X256675Y118559D01*
X256626Y118641D01*
X256580Y118725D01*
X256537Y118812D01*
X256498Y118899D01*
X256462Y118989D01*
X256430Y119079D01*
X256402Y119171D01*
X256377Y119264D01*
X256356Y119358D01*
X256339Y119452D01*
X256325Y119547D01*
X256316Y119643D01*
X256310Y119739D01*
X256308Y119835D01*
X256310Y119931D01*
X256316Y120027D01*
X256325Y120123D01*
X256339Y120218D01*
X256356Y120312D01*
X256377Y120406D01*
X256402Y120499D01*
X256430Y120591D01*
X256462Y120681D01*
X256498Y120771D01*
X256537Y120859D01*
X256580Y120945D01*
X256626Y121029D01*
X256675Y121111D01*
X256728Y121192D01*
X256784Y121270D01*
X256843Y121346D01*
X256905Y121419D01*
X256969Y121490D01*
X257037Y121559D01*
X257107Y121624D01*
X257180Y121687D01*
X257256Y121747D01*
X257333Y121803D01*
X257413Y121857D01*
X257495Y121907D01*
X257579Y121954D01*
X257664Y121998D01*
X257752Y122038D01*
X257841Y122074D01*
X257931Y122107D01*
X258138Y122206D01*
X258349Y122299D01*
X258561Y122387D01*
X258775Y122470D01*
X258991Y122548D01*
X259209Y122621D01*
X259429Y122689D01*
X259650Y122751D01*
X259873Y122808D01*
X260097Y122860D01*
X260322Y122906D01*
X260548Y122947D01*
X260775Y122982D01*
X261003Y123012D01*
X261232Y123037D01*
X261461Y123056D01*
X261690Y123070D01*
X261920Y123078D01*
X262150Y123081D01*
X262150Y116590D02*
X262380Y116593D01*
X262610Y116601D01*
X262839Y116615D01*
X263068Y116634D01*
X263297Y116659D01*
X263525Y116689D01*
X263752Y116724D01*
X263978Y116765D01*
X264203Y116811D01*
X264427Y116863D01*
X264650Y116920D01*
X264871Y116982D01*
X265091Y117050D01*
X265309Y117123D01*
X265525Y117201D01*
X265739Y117284D01*
X265951Y117372D01*
X266162Y117465D01*
X266369Y117564D01*
X266369Y117563D02*
X266459Y117596D01*
X266548Y117632D01*
X266636Y117673D01*
X266721Y117716D01*
X266805Y117763D01*
X266887Y117813D01*
X266967Y117867D01*
X267044Y117923D01*
X267120Y117983D01*
X267193Y118046D01*
X267263Y118111D01*
X267331Y118180D01*
X267395Y118251D01*
X267457Y118324D01*
X267516Y118400D01*
X267572Y118478D01*
X267625Y118559D01*
X267674Y118641D01*
X267720Y118725D01*
X267763Y118812D01*
X267802Y118899D01*
X267838Y118989D01*
X267870Y119079D01*
X267898Y119171D01*
X267923Y119264D01*
X267944Y119358D01*
X267961Y119452D01*
X267975Y119547D01*
X267984Y119643D01*
X267990Y119739D01*
X267992Y119835D01*
X266369Y122107D02*
X266162Y122206D01*
X265951Y122299D01*
X265739Y122387D01*
X265525Y122470D01*
X265309Y122548D01*
X265091Y122621D01*
X264871Y122689D01*
X264650Y122751D01*
X264427Y122808D01*
X264203Y122860D01*
X263978Y122906D01*
X263752Y122947D01*
X263525Y122982D01*
X263297Y123012D01*
X263068Y123037D01*
X262839Y123056D01*
X262610Y123070D01*
X262380Y123078D01*
X262150Y123081D01*
X266369Y122107D02*
X266459Y122074D01*
X266548Y122038D01*
X266636Y121998D01*
X266721Y121954D01*
X266805Y121907D01*
X266887Y121857D01*
X266967Y121803D01*
X267044Y121747D01*
X267120Y121687D01*
X267193Y121624D01*
X267263Y121559D01*
X267331Y121490D01*
X267395Y121419D01*
X267457Y121346D01*
X267516Y121270D01*
X267572Y121192D01*
X267625Y121111D01*
X267674Y121029D01*
X267720Y120945D01*
X267763Y120858D01*
X267802Y120771D01*
X267838Y120681D01*
X267870Y120591D01*
X267898Y120499D01*
X267923Y120406D01*
X267944Y120312D01*
X267961Y120218D01*
X267975Y120123D01*
X267984Y120027D01*
X267990Y119931D01*
X267992Y119835D01*
X265396Y117239D02*
X258904Y122432D01*
X261501Y132945D02*
X261501Y134892D01*
X267992Y134892D01*
X267992Y130997D01*
X267990Y130898D01*
X267984Y130798D01*
X267975Y130699D01*
X267962Y130601D01*
X267945Y130503D01*
X267924Y130405D01*
X267899Y130309D01*
X267871Y130214D01*
X267839Y130120D01*
X267804Y130027D01*
X267765Y129935D01*
X267722Y129845D01*
X267677Y129757D01*
X267627Y129670D01*
X267575Y129586D01*
X267519Y129503D01*
X267461Y129423D01*
X267399Y129345D01*
X267334Y129270D01*
X267266Y129197D01*
X267196Y129127D01*
X267123Y129059D01*
X267048Y128994D01*
X266970Y128932D01*
X266890Y128874D01*
X266807Y128818D01*
X266723Y128766D01*
X266636Y128716D01*
X266548Y128671D01*
X266458Y128628D01*
X266366Y128589D01*
X266273Y128554D01*
X266179Y128522D01*
X266084Y128494D01*
X265988Y128469D01*
X265890Y128448D01*
X265792Y128431D01*
X265694Y128418D01*
X265595Y128409D01*
X265495Y128403D01*
X265396Y128401D01*
X258904Y128401D01*
X258904Y128400D02*
X258805Y128402D01*
X258705Y128408D01*
X258606Y128417D01*
X258508Y128430D01*
X258410Y128448D01*
X258312Y128468D01*
X258216Y128493D01*
X258120Y128521D01*
X258026Y128553D01*
X257933Y128588D01*
X257842Y128627D01*
X257752Y128670D01*
X257663Y128715D01*
X257577Y128765D01*
X257492Y128817D01*
X257410Y128873D01*
X257330Y128932D01*
X257252Y128993D01*
X257176Y129058D01*
X257103Y129126D01*
X257033Y129196D01*
X256965Y129269D01*
X256900Y129345D01*
X256839Y129423D01*
X256780Y129503D01*
X256724Y129585D01*
X256672Y129670D01*
X256623Y129756D01*
X256577Y129845D01*
X256534Y129935D01*
X256495Y130026D01*
X256460Y130119D01*
X256428Y130213D01*
X256400Y130309D01*
X256375Y130405D01*
X256355Y130503D01*
X256337Y130601D01*
X256324Y130699D01*
X256315Y130798D01*
X256309Y130897D01*
X256307Y130997D01*
X256308Y130997D02*
X256308Y134892D01*
D12*
X269000Y25000D02*
X269002Y25063D01*
X269008Y25125D01*
X269018Y25187D01*
X269031Y25249D01*
X269049Y25309D01*
X269070Y25368D01*
X269095Y25426D01*
X269124Y25482D01*
X269156Y25536D01*
X269191Y25588D01*
X269229Y25637D01*
X269271Y25685D01*
X269315Y25729D01*
X269363Y25771D01*
X269412Y25809D01*
X269464Y25844D01*
X269518Y25876D01*
X269574Y25905D01*
X269632Y25930D01*
X269691Y25951D01*
X269751Y25969D01*
X269813Y25982D01*
X269875Y25992D01*
X269937Y25998D01*
X270000Y26000D01*
X270063Y25998D01*
X270125Y25992D01*
X270187Y25982D01*
X270249Y25969D01*
X270309Y25951D01*
X270368Y25930D01*
X270426Y25905D01*
X270482Y25876D01*
X270536Y25844D01*
X270588Y25809D01*
X270637Y25771D01*
X270685Y25729D01*
X270729Y25685D01*
X270771Y25637D01*
X270809Y25588D01*
X270844Y25536D01*
X270876Y25482D01*
X270905Y25426D01*
X270930Y25368D01*
X270951Y25309D01*
X270969Y25249D01*
X270982Y25187D01*
X270992Y25125D01*
X270998Y25063D01*
X271000Y25000D01*
X270998Y24937D01*
X270992Y24875D01*
X270982Y24813D01*
X270969Y24751D01*
X270951Y24691D01*
X270930Y24632D01*
X270905Y24574D01*
X270876Y24518D01*
X270844Y24464D01*
X270809Y24412D01*
X270771Y24363D01*
X270729Y24315D01*
X270685Y24271D01*
X270637Y24229D01*
X270588Y24191D01*
X270536Y24156D01*
X270482Y24124D01*
X270426Y24095D01*
X270368Y24070D01*
X270309Y24049D01*
X270249Y24031D01*
X270187Y24018D01*
X270125Y24008D01*
X270063Y24002D01*
X270000Y24000D01*
X269937Y24002D01*
X269875Y24008D01*
X269813Y24018D01*
X269751Y24031D01*
X269691Y24049D01*
X269632Y24070D01*
X269574Y24095D01*
X269518Y24124D01*
X269464Y24156D01*
X269412Y24191D01*
X269363Y24229D01*
X269315Y24271D01*
X269271Y24315D01*
X269229Y24363D01*
X269191Y24412D01*
X269156Y24464D01*
X269124Y24518D01*
X269095Y24574D01*
X269070Y24632D01*
X269049Y24691D01*
X269031Y24751D01*
X269018Y24813D01*
X269008Y24875D01*
X269002Y24937D01*
X269000Y25000D01*
X288000Y31000D02*
X292000Y31000D01*
X292000Y19000D02*
X288000Y19000D01*
X284000Y210000D02*
X284002Y210063D01*
X284008Y210125D01*
X284018Y210187D01*
X284031Y210249D01*
X284049Y210309D01*
X284070Y210368D01*
X284095Y210426D01*
X284124Y210482D01*
X284156Y210536D01*
X284191Y210588D01*
X284229Y210637D01*
X284271Y210685D01*
X284315Y210729D01*
X284363Y210771D01*
X284412Y210809D01*
X284464Y210844D01*
X284518Y210876D01*
X284574Y210905D01*
X284632Y210930D01*
X284691Y210951D01*
X284751Y210969D01*
X284813Y210982D01*
X284875Y210992D01*
X284937Y210998D01*
X285000Y211000D01*
X285063Y210998D01*
X285125Y210992D01*
X285187Y210982D01*
X285249Y210969D01*
X285309Y210951D01*
X285368Y210930D01*
X285426Y210905D01*
X285482Y210876D01*
X285536Y210844D01*
X285588Y210809D01*
X285637Y210771D01*
X285685Y210729D01*
X285729Y210685D01*
X285771Y210637D01*
X285809Y210588D01*
X285844Y210536D01*
X285876Y210482D01*
X285905Y210426D01*
X285930Y210368D01*
X285951Y210309D01*
X285969Y210249D01*
X285982Y210187D01*
X285992Y210125D01*
X285998Y210063D01*
X286000Y210000D01*
X285998Y209937D01*
X285992Y209875D01*
X285982Y209813D01*
X285969Y209751D01*
X285951Y209691D01*
X285930Y209632D01*
X285905Y209574D01*
X285876Y209518D01*
X285844Y209464D01*
X285809Y209412D01*
X285771Y209363D01*
X285729Y209315D01*
X285685Y209271D01*
X285637Y209229D01*
X285588Y209191D01*
X285536Y209156D01*
X285482Y209124D01*
X285426Y209095D01*
X285368Y209070D01*
X285309Y209049D01*
X285249Y209031D01*
X285187Y209018D01*
X285125Y209008D01*
X285063Y209002D01*
X285000Y209000D01*
X284937Y209002D01*
X284875Y209008D01*
X284813Y209018D01*
X284751Y209031D01*
X284691Y209049D01*
X284632Y209070D01*
X284574Y209095D01*
X284518Y209124D01*
X284464Y209156D01*
X284412Y209191D01*
X284363Y209229D01*
X284315Y209271D01*
X284271Y209315D01*
X284229Y209363D01*
X284191Y209412D01*
X284156Y209464D01*
X284124Y209518D01*
X284095Y209574D01*
X284070Y209632D01*
X284049Y209691D01*
X284031Y209751D01*
X284018Y209813D01*
X284008Y209875D01*
X284002Y209937D01*
X284000Y210000D01*
X303000Y216000D02*
X307000Y216000D01*
X307000Y204000D02*
X303000Y204000D01*
D11*
X142780Y242770D02*
X107220Y242770D01*
X142780Y242770D02*
X142780Y177230D01*
X107220Y177230D01*
X107220Y242770D01*
D12*
X9000Y30000D02*
X9002Y30063D01*
X9008Y30125D01*
X9018Y30187D01*
X9031Y30249D01*
X9049Y30309D01*
X9070Y30368D01*
X9095Y30426D01*
X9124Y30482D01*
X9156Y30536D01*
X9191Y30588D01*
X9229Y30637D01*
X9271Y30685D01*
X9315Y30729D01*
X9363Y30771D01*
X9412Y30809D01*
X9464Y30844D01*
X9518Y30876D01*
X9574Y30905D01*
X9632Y30930D01*
X9691Y30951D01*
X9751Y30969D01*
X9813Y30982D01*
X9875Y30992D01*
X9937Y30998D01*
X10000Y31000D01*
X10063Y30998D01*
X10125Y30992D01*
X10187Y30982D01*
X10249Y30969D01*
X10309Y30951D01*
X10368Y30930D01*
X10426Y30905D01*
X10482Y30876D01*
X10536Y30844D01*
X10588Y30809D01*
X10637Y30771D01*
X10685Y30729D01*
X10729Y30685D01*
X10771Y30637D01*
X10809Y30588D01*
X10844Y30536D01*
X10876Y30482D01*
X10905Y30426D01*
X10930Y30368D01*
X10951Y30309D01*
X10969Y30249D01*
X10982Y30187D01*
X10992Y30125D01*
X10998Y30063D01*
X11000Y30000D01*
X10998Y29937D01*
X10992Y29875D01*
X10982Y29813D01*
X10969Y29751D01*
X10951Y29691D01*
X10930Y29632D01*
X10905Y29574D01*
X10876Y29518D01*
X10844Y29464D01*
X10809Y29412D01*
X10771Y29363D01*
X10729Y29315D01*
X10685Y29271D01*
X10637Y29229D01*
X10588Y29191D01*
X10536Y29156D01*
X10482Y29124D01*
X10426Y29095D01*
X10368Y29070D01*
X10309Y29049D01*
X10249Y29031D01*
X10187Y29018D01*
X10125Y29008D01*
X10063Y29002D01*
X10000Y29000D01*
X9937Y29002D01*
X9875Y29008D01*
X9813Y29018D01*
X9751Y29031D01*
X9691Y29049D01*
X9632Y29070D01*
X9574Y29095D01*
X9518Y29124D01*
X9464Y29156D01*
X9412Y29191D01*
X9363Y29229D01*
X9315Y29271D01*
X9271Y29315D01*
X9229Y29363D01*
X9191Y29412D01*
X9156Y29464D01*
X9124Y29518D01*
X9095Y29574D01*
X9070Y29632D01*
X9049Y29691D01*
X9031Y29751D01*
X9018Y29813D01*
X9008Y29875D01*
X9002Y29937D01*
X9000Y30000D01*
X28000Y36000D02*
X32000Y36000D01*
X32000Y24000D02*
X28000Y24000D01*
X11800Y177900D02*
X-1000Y177900D01*
X-1000Y82100D01*
X11800Y82100D01*
X39000Y177900D02*
X51500Y177900D01*
X51500Y82100D02*
X39000Y82100D01*
D13*
X137500Y91000D02*
X137500Y59000D01*
X137500Y91000D02*
X112500Y91000D01*
X112500Y59000D01*
X137500Y59000D01*
X143000Y60000D02*
X143002Y60089D01*
X143008Y60178D01*
X143018Y60267D01*
X143032Y60355D01*
X143049Y60442D01*
X143071Y60528D01*
X143097Y60614D01*
X143126Y60698D01*
X143159Y60781D01*
X143195Y60862D01*
X143236Y60942D01*
X143279Y61019D01*
X143326Y61095D01*
X143377Y61168D01*
X143430Y61239D01*
X143487Y61308D01*
X143547Y61374D01*
X143610Y61438D01*
X143675Y61498D01*
X143743Y61556D01*
X143814Y61610D01*
X143887Y61661D01*
X143962Y61709D01*
X144039Y61754D01*
X144118Y61795D01*
X144199Y61832D01*
X144281Y61866D01*
X144365Y61897D01*
X144450Y61923D01*
X144536Y61946D01*
X144623Y61964D01*
X144711Y61979D01*
X144800Y61990D01*
X144889Y61997D01*
X144978Y62000D01*
X145067Y61999D01*
X145156Y61994D01*
X145244Y61985D01*
X145333Y61972D01*
X145420Y61955D01*
X145507Y61935D01*
X145593Y61910D01*
X145677Y61882D01*
X145760Y61850D01*
X145842Y61814D01*
X145922Y61775D01*
X146000Y61732D01*
X146076Y61686D01*
X146150Y61636D01*
X146222Y61583D01*
X146291Y61527D01*
X146358Y61468D01*
X146422Y61406D01*
X146483Y61342D01*
X146542Y61274D01*
X146597Y61204D01*
X146649Y61132D01*
X146698Y61057D01*
X146743Y60981D01*
X146785Y60902D01*
X146823Y60822D01*
X146858Y60740D01*
X146889Y60656D01*
X146917Y60571D01*
X146940Y60485D01*
X146960Y60398D01*
X146976Y60311D01*
X146988Y60222D01*
X146996Y60134D01*
X147000Y60045D01*
X147000Y59955D01*
X146996Y59866D01*
X146988Y59778D01*
X146976Y59689D01*
X146960Y59602D01*
X146940Y59515D01*
X146917Y59429D01*
X146889Y59344D01*
X146858Y59260D01*
X146823Y59178D01*
X146785Y59098D01*
X146743Y59019D01*
X146698Y58943D01*
X146649Y58868D01*
X146597Y58796D01*
X146542Y58726D01*
X146483Y58658D01*
X146422Y58594D01*
X146358Y58532D01*
X146291Y58473D01*
X146222Y58417D01*
X146150Y58364D01*
X146076Y58314D01*
X146000Y58268D01*
X145922Y58225D01*
X145842Y58186D01*
X145760Y58150D01*
X145677Y58118D01*
X145593Y58090D01*
X145507Y58065D01*
X145420Y58045D01*
X145333Y58028D01*
X145244Y58015D01*
X145156Y58006D01*
X145067Y58001D01*
X144978Y58000D01*
X144889Y58003D01*
X144800Y58010D01*
X144711Y58021D01*
X144623Y58036D01*
X144536Y58054D01*
X144450Y58077D01*
X144365Y58103D01*
X144281Y58134D01*
X144199Y58168D01*
X144118Y58205D01*
X144039Y58246D01*
X143962Y58291D01*
X143887Y58339D01*
X143814Y58390D01*
X143743Y58444D01*
X143675Y58502D01*
X143610Y58562D01*
X143547Y58626D01*
X143487Y58692D01*
X143430Y58761D01*
X143377Y58832D01*
X143326Y58905D01*
X143279Y58981D01*
X143236Y59058D01*
X143195Y59138D01*
X143159Y59219D01*
X143126Y59302D01*
X143097Y59386D01*
X143071Y59472D01*
X143049Y59558D01*
X143032Y59645D01*
X143018Y59733D01*
X143008Y59822D01*
X143002Y59911D01*
X143000Y60000D01*
X171000Y33700D02*
X171000Y9000D01*
X247000Y9000D01*
X247000Y33700D01*
X171000Y33700D01*
X194000Y8000D02*
X194000Y-2000D01*
X224000Y-2000D01*
X224000Y8000D01*
D14*
X372700Y207550D02*
X372700Y220250D01*
X372700Y207550D02*
X366350Y201200D01*
X353650Y201200D02*
X347300Y207550D01*
X366350Y201200D02*
X372700Y194850D01*
X372700Y182150D01*
X366350Y175800D01*
X353650Y175800D02*
X347300Y182150D01*
X347300Y194850D01*
X353650Y201200D01*
X353650Y226600D02*
X366350Y226600D01*
X372700Y220250D01*
X353650Y226600D02*
X347300Y220250D01*
X347300Y207550D01*
X366350Y175800D02*
X372700Y169450D01*
X372700Y156750D01*
X366350Y150400D01*
X353650Y150400D02*
X347300Y156750D01*
X347300Y169450D01*
X353650Y175800D01*
X372700Y144050D02*
X372700Y131350D01*
X366350Y125000D01*
X353650Y125000D02*
X347300Y131350D01*
X366350Y150400D02*
X372700Y144050D01*
X353650Y150400D02*
X347300Y144050D01*
X347300Y131350D01*
X372700Y118650D02*
X372700Y105950D01*
X366350Y99600D01*
X353650Y99600D02*
X347300Y105950D01*
X366350Y99600D02*
X372700Y93250D01*
X372700Y80550D01*
X366350Y74200D01*
X353650Y74200D02*
X347300Y80550D01*
X347300Y93250D01*
X353650Y99600D01*
X372700Y118650D02*
X366350Y125000D01*
X353650Y125000D02*
X347300Y118650D01*
X347300Y105950D01*
X366350Y74200D02*
X372700Y67850D01*
X372700Y55150D01*
X366350Y48800D01*
X353650Y48800D02*
X347300Y55150D01*
X347300Y67850D01*
X353650Y74200D01*
X372700Y42450D02*
X372700Y29750D01*
X366350Y23400D01*
X353650Y23400D01*
X347300Y29750D01*
X366350Y48800D02*
X372700Y42450D01*
X353650Y48800D02*
X347300Y42450D01*
X347300Y29750D01*
D13*
X333965Y211995D02*
X331425Y215170D01*
X342855Y215170D01*
X342855Y211995D02*
X342855Y218345D01*
X385400Y41815D02*
X385289Y41813D01*
X385179Y41807D01*
X385068Y41798D01*
X384958Y41784D01*
X384849Y41767D01*
X384740Y41746D01*
X384632Y41721D01*
X384525Y41692D01*
X384419Y41660D01*
X384314Y41624D01*
X384211Y41584D01*
X384109Y41541D01*
X384008Y41494D01*
X383909Y41443D01*
X383813Y41390D01*
X383718Y41333D01*
X383625Y41272D01*
X383534Y41209D01*
X383445Y41142D01*
X383359Y41072D01*
X383276Y40999D01*
X383194Y40924D01*
X383116Y40846D01*
X383041Y40764D01*
X382968Y40681D01*
X382898Y40595D01*
X382831Y40506D01*
X382768Y40415D01*
X382707Y40322D01*
X382650Y40227D01*
X382597Y40131D01*
X382546Y40032D01*
X382499Y39931D01*
X382456Y39829D01*
X382416Y39726D01*
X382380Y39621D01*
X382348Y39515D01*
X382319Y39408D01*
X382294Y39300D01*
X382273Y39191D01*
X382256Y39082D01*
X382242Y38972D01*
X382233Y38861D01*
X382227Y38751D01*
X382225Y38640D01*
X382227Y38529D01*
X382233Y38419D01*
X382242Y38308D01*
X382256Y38198D01*
X382273Y38089D01*
X382294Y37980D01*
X382319Y37872D01*
X382348Y37765D01*
X382380Y37659D01*
X382416Y37554D01*
X382456Y37451D01*
X382499Y37349D01*
X382546Y37248D01*
X382597Y37149D01*
X382650Y37052D01*
X382707Y36958D01*
X382768Y36865D01*
X382831Y36774D01*
X382898Y36685D01*
X382968Y36599D01*
X383041Y36516D01*
X383116Y36434D01*
X383194Y36356D01*
X383276Y36281D01*
X383359Y36208D01*
X383445Y36138D01*
X383534Y36071D01*
X383625Y36008D01*
X383718Y35947D01*
X383813Y35890D01*
X383909Y35837D01*
X384008Y35786D01*
X384109Y35739D01*
X384211Y35696D01*
X384314Y35656D01*
X384419Y35620D01*
X384525Y35588D01*
X384632Y35559D01*
X384740Y35534D01*
X384849Y35513D01*
X384958Y35496D01*
X385068Y35482D01*
X385179Y35473D01*
X385289Y35467D01*
X385400Y35465D01*
X385511Y35467D01*
X385621Y35473D01*
X385732Y35482D01*
X385842Y35496D01*
X385951Y35513D01*
X386060Y35534D01*
X386168Y35559D01*
X386275Y35588D01*
X386381Y35620D01*
X386486Y35656D01*
X386589Y35696D01*
X386691Y35739D01*
X386792Y35786D01*
X386891Y35837D01*
X386988Y35890D01*
X387082Y35947D01*
X387175Y36008D01*
X387266Y36071D01*
X387355Y36138D01*
X387441Y36208D01*
X387524Y36281D01*
X387606Y36356D01*
X387684Y36434D01*
X387759Y36516D01*
X387832Y36599D01*
X387902Y36685D01*
X387969Y36774D01*
X388032Y36865D01*
X388093Y36958D01*
X388150Y37052D01*
X388203Y37149D01*
X388254Y37248D01*
X388301Y37349D01*
X388344Y37451D01*
X388384Y37554D01*
X388420Y37659D01*
X388452Y37765D01*
X388481Y37872D01*
X388506Y37980D01*
X388527Y38089D01*
X388544Y38198D01*
X388558Y38308D01*
X388567Y38419D01*
X388573Y38529D01*
X388575Y38640D01*
X388573Y38751D01*
X388567Y38861D01*
X388558Y38972D01*
X388544Y39082D01*
X388527Y39191D01*
X388506Y39300D01*
X388481Y39408D01*
X388452Y39515D01*
X388420Y39621D01*
X388384Y39726D01*
X388344Y39829D01*
X388301Y39931D01*
X388254Y40032D01*
X388203Y40131D01*
X388150Y40227D01*
X388093Y40322D01*
X388032Y40415D01*
X387969Y40506D01*
X387902Y40595D01*
X387832Y40681D01*
X387759Y40764D01*
X387684Y40846D01*
X387606Y40924D01*
X387524Y40999D01*
X387441Y41072D01*
X387355Y41142D01*
X387266Y41209D01*
X387175Y41272D01*
X387082Y41333D01*
X386988Y41390D01*
X386891Y41443D01*
X386792Y41494D01*
X386691Y41541D01*
X386589Y41584D01*
X386486Y41624D01*
X386381Y41660D01*
X386275Y41692D01*
X386168Y41721D01*
X386060Y41746D01*
X385951Y41767D01*
X385842Y41784D01*
X385732Y41798D01*
X385621Y41807D01*
X385511Y41813D01*
X385400Y41815D01*
X379685Y41180D02*
X379585Y41178D01*
X379486Y41172D01*
X379386Y41162D01*
X379288Y41149D01*
X379189Y41131D01*
X379092Y41110D01*
X378996Y41085D01*
X378900Y41056D01*
X378806Y41023D01*
X378713Y40987D01*
X378622Y40947D01*
X378532Y40903D01*
X378444Y40856D01*
X378358Y40806D01*
X378274Y40752D01*
X378192Y40695D01*
X378113Y40635D01*
X378035Y40571D01*
X377961Y40505D01*
X377889Y40436D01*
X377820Y40364D01*
X377754Y40290D01*
X377690Y40212D01*
X377630Y40133D01*
X377573Y40051D01*
X377519Y39967D01*
X377469Y39881D01*
X377422Y39793D01*
X377378Y39703D01*
X377338Y39612D01*
X377302Y39519D01*
X377269Y39425D01*
X377240Y39329D01*
X377215Y39233D01*
X377194Y39136D01*
X377176Y39037D01*
X377163Y38939D01*
X377153Y38839D01*
X377147Y38740D01*
X377145Y38640D01*
X377147Y38540D01*
X377153Y38441D01*
X377163Y38341D01*
X377176Y38243D01*
X377194Y38144D01*
X377215Y38047D01*
X377240Y37951D01*
X377269Y37855D01*
X377302Y37761D01*
X377338Y37668D01*
X377378Y37577D01*
X377422Y37487D01*
X377469Y37399D01*
X377519Y37313D01*
X377573Y37229D01*
X377630Y37147D01*
X377690Y37068D01*
X377754Y36990D01*
X377820Y36916D01*
X377889Y36844D01*
X377961Y36775D01*
X378035Y36709D01*
X378113Y36645D01*
X378192Y36585D01*
X378274Y36528D01*
X378358Y36474D01*
X378444Y36424D01*
X378532Y36377D01*
X378622Y36333D01*
X378713Y36293D01*
X378806Y36257D01*
X378900Y36224D01*
X378996Y36195D01*
X379092Y36170D01*
X379189Y36149D01*
X379288Y36131D01*
X379386Y36118D01*
X379486Y36108D01*
X379585Y36102D01*
X379685Y36100D01*
X379785Y36102D01*
X379884Y36108D01*
X379984Y36118D01*
X380082Y36131D01*
X380181Y36149D01*
X380278Y36170D01*
X380374Y36195D01*
X380470Y36224D01*
X380564Y36257D01*
X380657Y36293D01*
X380748Y36333D01*
X380838Y36377D01*
X380926Y36424D01*
X381012Y36474D01*
X381096Y36528D01*
X381178Y36585D01*
X381257Y36645D01*
X381335Y36709D01*
X381409Y36775D01*
X381481Y36844D01*
X381550Y36916D01*
X381616Y36990D01*
X381680Y37068D01*
X381740Y37147D01*
X381797Y37229D01*
X381851Y37313D01*
X381901Y37399D01*
X381948Y37487D01*
X381992Y37577D01*
X382032Y37668D01*
X382068Y37761D01*
X382101Y37855D01*
X382130Y37951D01*
X382155Y38047D01*
X382176Y38144D01*
X382194Y38243D01*
X382207Y38341D01*
X382217Y38441D01*
X382223Y38540D01*
X382225Y38640D01*
X382223Y38740D01*
X382217Y38839D01*
X382207Y38939D01*
X382194Y39037D01*
X382176Y39136D01*
X382155Y39233D01*
X382130Y39329D01*
X382101Y39425D01*
X382068Y39519D01*
X382032Y39612D01*
X381992Y39703D01*
X381948Y39793D01*
X381901Y39881D01*
X381851Y39967D01*
X381797Y40051D01*
X381740Y40133D01*
X381680Y40212D01*
X381616Y40290D01*
X381550Y40364D01*
X381481Y40436D01*
X381409Y40505D01*
X381335Y40571D01*
X381257Y40635D01*
X381178Y40695D01*
X381096Y40752D01*
X381012Y40806D01*
X380926Y40856D01*
X380838Y40903D01*
X380748Y40947D01*
X380657Y40987D01*
X380564Y41023D01*
X380470Y41056D01*
X380374Y41085D01*
X380278Y41110D01*
X380181Y41131D01*
X380082Y41149D01*
X379984Y41162D01*
X379884Y41172D01*
X379785Y41178D01*
X379685Y41180D01*
M02*
