G04 EAGLE Gerber RS-274X export*
G75*
%MOMM*%
%FSLAX34Y34*%
%LPD*%
%INSoldermask Top*%
%IPPOS*%
%AMOC8*
5,1,8,0,0,1.08239X$1,22.5*%
G01*
%ADD10R,1.303200X1.203200*%
%ADD11R,1.203200X1.303200*%
%ADD12R,0.838200X1.727200*%
%ADD13R,1.603200X1.203200*%
%ADD14R,1.303200X1.653200*%
%ADD15R,2.353200X2.003200*%
%ADD16R,2.438200X1.422200*%
%ADD17R,2.403200X3.803200*%
%ADD18C,1.203200*%
%ADD19C,1.253200*%
%ADD20C,0.853200*%
%ADD21R,1.353200X0.803200*%
%ADD22R,1.353200X0.503200*%
%ADD23R,1.403200X1.603200*%
%ADD24C,0.903200*%
%ADD25R,1.103200X1.203200*%
%ADD26R,1.653200X1.003200*%
%ADD27C,1.727200*%


D10*
X133500Y30000D03*
X116500Y30000D03*
D11*
X238500Y180000D03*
X221500Y180000D03*
D12*
X236750Y136950D03*
X211350Y83050D03*
X249450Y136950D03*
X224050Y136950D03*
X211350Y136950D03*
X224050Y83050D03*
X198650Y83050D03*
X185950Y83050D03*
X185950Y136950D03*
X160550Y83050D03*
X198650Y136950D03*
X173250Y136950D03*
X173250Y83050D03*
X160550Y136950D03*
X236750Y83050D03*
X249450Y83050D03*
D13*
X179000Y190000D03*
X201000Y199500D03*
X201000Y180500D03*
X224000Y215000D03*
X246000Y224500D03*
X246000Y205500D03*
D11*
X95000Y83500D03*
X95000Y66500D03*
X203500Y225000D03*
X186500Y225000D03*
D14*
X281000Y25000D03*
X299000Y25000D03*
D10*
X73500Y235000D03*
X56500Y235000D03*
D15*
X138750Y165000D03*
X171250Y165000D03*
D11*
X298500Y75000D03*
X281500Y75000D03*
D10*
X281500Y155000D03*
X298500Y155000D03*
D14*
X296000Y210000D03*
X314000Y210000D03*
D11*
X298500Y180000D03*
X281500Y180000D03*
D16*
X155990Y186890D03*
X155990Y210000D03*
X155990Y233110D03*
D17*
X94010Y210000D03*
D14*
X21000Y30000D03*
X39000Y30000D03*
D11*
X56500Y30000D03*
X73500Y30000D03*
D18*
X30000Y173200D02*
X20000Y173200D01*
X20000Y86800D02*
X30000Y86800D01*
D19*
X61550Y173200D02*
X72050Y173200D01*
X72050Y86800D02*
X61550Y86800D01*
D20*
X61800Y101100D03*
X61800Y158900D03*
D21*
X72550Y162000D03*
X72550Y98000D03*
X72550Y154000D03*
X72550Y106000D03*
D22*
X72550Y127500D03*
X72550Y132500D03*
X72550Y122500D03*
X72550Y117500D03*
X72550Y112500D03*
X72550Y137500D03*
X72550Y142500D03*
X72550Y147500D03*
D23*
X133500Y64000D03*
X133500Y86000D03*
X116500Y86000D03*
X116500Y64000D03*
D11*
X298500Y100000D03*
X281500Y100000D03*
X298500Y125000D03*
X281500Y125000D03*
D24*
X197500Y18000D03*
X220500Y18000D03*
D25*
X188000Y28500D03*
X230000Y28500D03*
D26*
X175250Y8000D03*
X242750Y8000D03*
D11*
X11500Y220000D03*
X28500Y220000D03*
X46500Y200000D03*
X63500Y200000D03*
D27*
X352380Y213900D02*
X367620Y213900D01*
X367620Y188500D02*
X352380Y188500D01*
X352380Y163100D02*
X367620Y163100D01*
X367620Y137700D02*
X352380Y137700D01*
X352380Y112300D02*
X367620Y112300D01*
X367620Y86900D02*
X352380Y86900D01*
X352380Y61500D02*
X367620Y61500D01*
X367620Y36100D02*
X352380Y36100D01*
M02*
