G04 EAGLE Gerber RS-274X export*
G75*
%MOMM*%
%FSLAX34Y34*%
%LPD*%
%INSolderpaste Top*%
%IPPOS*%
%AMOC8*
5,1,8,0,0,1.08239X$1,22.5*%
G01*
%ADD10R,1.100000X1.000000*%
%ADD11R,1.000000X1.100000*%
%ADD12R,0.635000X1.524000*%
%ADD13R,1.400000X1.000000*%
%ADD14R,1.100000X1.450000*%
%ADD15R,2.150000X1.800000*%
%ADD16R,2.235000X1.219000*%
%ADD17R,2.200000X3.600000*%
%ADD18R,1.150000X0.600000*%
%ADD19R,1.150000X0.300000*%
%ADD20R,1.200000X1.400000*%
%ADD21R,0.900000X1.000000*%
%ADD22R,1.450000X0.800000*%


D10*
X133500Y30000D03*
X116500Y30000D03*
D11*
X238500Y180000D03*
X221500Y180000D03*
D12*
X236750Y136950D03*
X211350Y83050D03*
X249450Y136950D03*
X224050Y136950D03*
X211350Y136950D03*
X224050Y83050D03*
X198650Y83050D03*
X185950Y83050D03*
X185950Y136950D03*
X160550Y83050D03*
X198650Y136950D03*
X173250Y136950D03*
X173250Y83050D03*
X160550Y136950D03*
X236750Y83050D03*
X249450Y83050D03*
D13*
X179000Y190000D03*
X201000Y199500D03*
X201000Y180500D03*
X224000Y215000D03*
X246000Y224500D03*
X246000Y205500D03*
D11*
X95000Y83500D03*
X95000Y66500D03*
X203500Y225000D03*
X186500Y225000D03*
D14*
X281000Y25000D03*
X299000Y25000D03*
D10*
X73500Y235000D03*
X56500Y235000D03*
D15*
X138750Y165000D03*
X171250Y165000D03*
D11*
X298500Y75000D03*
X281500Y75000D03*
D10*
X281500Y155000D03*
X298500Y155000D03*
D14*
X296000Y210000D03*
X314000Y210000D03*
D11*
X298500Y180000D03*
X281500Y180000D03*
D16*
X155990Y186890D03*
X155990Y210000D03*
X155990Y233110D03*
D17*
X94010Y210000D03*
D14*
X21000Y30000D03*
X39000Y30000D03*
D11*
X56500Y30000D03*
X73500Y30000D03*
D18*
X72550Y162000D03*
X72550Y98000D03*
X72550Y154000D03*
X72550Y106000D03*
D19*
X72550Y127500D03*
X72550Y132500D03*
X72550Y122500D03*
X72550Y117500D03*
X72550Y112500D03*
X72550Y137500D03*
X72550Y142500D03*
X72550Y147500D03*
D20*
X133500Y64000D03*
X133500Y86000D03*
X116500Y86000D03*
X116500Y64000D03*
D11*
X298500Y100000D03*
X281500Y100000D03*
X298500Y125000D03*
X281500Y125000D03*
D21*
X188000Y28500D03*
X230000Y28500D03*
D22*
X175250Y8000D03*
X242750Y8000D03*
D11*
X11500Y220000D03*
X28500Y220000D03*
X46500Y200000D03*
X63500Y200000D03*
M02*
