M48
;GenerationSoftware,Autodesk,EAGLE,9.6.1*%
;CreationDate,2023-11-19T23:20:13Z*%
FMAT,2
ICI,OFF
METRIC,TZ,000.000
T5C0.350
T4C0.600
T3C0.650
T2C0.700
T1C1.016
%
G90
M71
T1
X36000Y3610
X36000Y16310
X36000Y21390
X36000Y18850
X36000Y13770
X36000Y11230
X36000Y8690
X36000Y6150
T2
X19750Y1800
X22050Y1800
T3
X6180Y10110
X6180Y15890
T4
X2500Y17320
X6680Y17320
X6680Y8680
X2500Y8680
T5
X24500Y17000
X31000Y4500
X31500Y7000
X8600Y3000
X21600Y9800
X27500Y600
X26000Y4500
X30000Y8500
X5000Y13500
X5000Y18500
X26700Y9000
X27000Y13600
X13000Y13500
X17500Y3000
X11500Y17000
X13500Y19500
X22000Y19600
X24000Y19600
X19000Y21100
X22000Y16600
X21500Y6500
X26500Y22600
X18600Y11900
X9000Y13700
X19100Y10900
X9000Y12800
M30